<?xml version="1.0" encoding="utf-8" ?><svg xmlns="http://www.w3.org/2000/svg" xmlns:xlink="http://www.w3.org/1999/xlink" width="2688" height="1536" viewBox="0 0 2688 1536"><path fill="#F8F2E9" d="M1734.04 509.794C1743.27 505.72 1752.37 500.441 1761.6 496.334C1802.53 478.118 1841.49 456.406 1881.1 435.459C1952.55 397.602 2023.65 359.101 2094.4 319.959C2126.32 302.204 2158.8 282.929 2190.84 265.3C2189.64 269.107 2156.89 292.325 2150.54 297.077C2161.78 295.031 2214.38 247.68 2227.75 240.521C2233.47 237.456 2245.67 223.966 2249.97 222.583C2253.67 223.291 2252.22 222.436 2254.68 224.81C2240.36 249.539 2221.87 266.549 2204.11 289.64C2200.22 277.687 2189.01 282.477 2192 292.498C2192.76 295.038 2197.77 294.82 2199.71 295.024L2193.73 302.963C2186.34 290.651 2173.85 305.078 2189.44 308.474L2185.64 313.441C2176.84 305.216 2162.86 314.454 2177.7 324.49L2173.52 330.473C2169.19 328.044 2159.78 325.164 2161.76 334.565C2162.1 336.192 2165.37 338.19 2166.75 340.145C2159.57 351.49 2148.8 366.983 2142.56 378.141C2139.46 377.656 2132.46 374.711 2130.79 379.941C2129.73 383.281 2134.45 386.128 2136.68 388.058C2127.14 403.303 2119.92 414.254 2108.65 428.342C2099.4 439.92 2088.39 452.097 2079.86 463.905C2069.46 460.426 2066.28 463.981 2072.61 473.222L2068.7 478.233C2065.79 478.561 2062.28 477.404 2061.01 478.172C2055.56 481.491 2057.86 485.465 2060.92 488.219L2060.72 489.205L2058.05 492.419C2055.47 491.908 2051.93 491.034 2049.47 492.559C2048.39 493.218 2047.62 494.292 2047.35 495.53C2046.73 498.373 2049.09 500.285 2050.96 501.957L2048.01 505.684C2037.09 503.567 2035.36 509.029 2037.53 519.227C2025.27 536.445 2011.73 553.43 1999.72 570.582C1976.86 603.225 1954.59 636.541 1931.96 669.348C1897.62 719.111 1864.56 767.719 1833.11 819.35L1808.59 859.192C1806.32 862.902 1798.77 874.928 1797.49 878.121L1786.25 896.42C1779.5 899.284 1769.57 900.363 1778.89 908.655C1761.39 936.271 1747.18 963.036 1730.49 990.908C1724.34 1001.18 1712.36 1012.33 1705.74 1023.91C1704.12 1026.23 1702.79 1028.36 1701.24 1030.67C1692.7 1026.57 1684.57 1034.78 1695.31 1040.29C1692.79 1044.41 1688.85 1049.56 1687.34 1053.98C1683.45 1059.32 1670.93 1080.64 1667.09 1087.44C1663.44 1093.91 1662.06 1096.84 1659.45 1103.8C1647.27 1102.59 1648.7 1107.42 1652.96 1116.62C1648.62 1124.65 1645.39 1130.61 1640.35 1138.15C1636.75 1143.54 1625.27 1157.3 1623.46 1161.79C1623.99 1171.75 1618.14 1167.79 1622.51 1177.5C1616.41 1181.99 1615.47 1192.49 1611.7 1198.72C1608.84 1203.45 1604.95 1208.31 1601.6 1212.75C1600.92 1226.06 1595.05 1223.83 1592.24 1230.1C1566.54 1287.37 1523.89 1279.62 1479.15 1249.35C1474.43 1246.15 1451.89 1232.72 1449.92 1227.37C1447.6 1225.31 1442.35 1223.33 1438.8 1220.26C1417.42 1201.75 1394.34 1188.67 1371.02 1173.39C1362.18 1167.96 1352.57 1163.49 1343.45 1158.37C1317.12 1143.58 1292.8 1124.55 1268.08 1107.94C1247.22 1093.92 1223.07 1073.02 1201.24 1062.93C1185.68 1076.71 1163.09 1088.67 1145.48 1100.67C1121.85 1116.76 1100.54 1134.87 1076.48 1150.37C1058.5 1161.95 1036.71 1179.71 1016.86 1187.7C1019.66 1183.84 1024.14 1181.42 1025.1 1178.55L1022.03 1176.58L1022.48 1175L1024.77 1174.14L1029 1177.32C1036.5 1175.14 1098.65 1132.78 1099.24 1127.74L1096.31 1126.51C1097.18 1124.58 1096.57 1125.48 1099.22 1124.3C1108.93 1126.9 1115.22 1120.1 1121.57 1113.03L1121 1112.3C1115.47 1115.51 1114.26 1117.29 1107.64 1116.47C1100.29 1119.59 1090.94 1125.51 1083.73 1129.61C1080.19 1123.87 1071.72 1115.61 1067.05 1110.32C1048.12 1088.87 1028.03 1070.09 1006.82 1050.92C998.653 1043.54 990.665 1034.73 982.291 1027.69C985.3 1019.88 996.264 989.487 1001.26 984.772C999.272 984.498 999.171 984.402 997.267 983.614C997.724 982.231 1004.84 965.368 1005.52 964.279C1007.4 957.791 1017.64 929.792 1020.16 925.335L1023.13 925.308L1024.65 923.465C1023.87 922.457 1023.1 921.44 1022.34 920.415C1017.54 917.702 1016.29 917.459 1011.03 916.094C1014.5 912.976 1038.96 899.467 1044.69 896.251C1067.64 883.378 1088.28 868.97 1110.46 855.016C1118.01 850.267 1128.43 846.936 1136.71 841.331C1143.63 838.941 1164.38 826.672 1171.18 822.85C1194.43 809.772 1218.23 797.047 1239.9 781.494L1243.59 778.573C1255.98 768.693 1294.59 747.387 1309.22 740.355C1315.17 738.639 1326.6 731.47 1333.15 728.621C1344.91 723.497 1356.69 715.938 1368.38 710.777C1418.07 685.049 1466.27 656.519 1514.75 628.607C1533.13 618.021 1552.86 608.585 1571.47 598.379C1604.36 580.343 1639.13 554.845 1673.01 539.336C1680.36 537.716 1726.82 514.372 1734.04 509.794ZM1298.32 1104.94C1304.96 1109.95 1327.28 1127.56 1332.08 1132.6C1351.55 1148.26 1370.04 1165.35 1390.04 1180.23L1394.78 1183.81L1394.47 1180.46C1390.96 1176.46 1384.23 1175.72 1383.34 1171.9L1384.54 1170.99C1387.67 1171.15 1392.15 1175.04 1395.34 1177L1395.41 1176.21C1391.8 1170.84 1383.6 1166.15 1378.79 1161.66C1363.02 1146.9 1348.37 1129.42 1330.11 1117.96C1324.2 1114.25 1318.12 1107.1 1312.39 1103.08C1293.63 1089.89 1272.21 1082.17 1255.46 1065.89C1252.76 1063.26 1226.58 1049.15 1223.94 1049.37C1228.07 1053.22 1246.93 1062.33 1247.99 1064.58L1246.98 1065.2C1238.36 1063.33 1216.65 1045.29 1208.99 1046.66C1228.94 1059.65 1249.77 1071.71 1269.64 1084.82C1277.16 1089.78 1292.18 1098.81 1298.32 1104.94ZM1449.07 1218.87C1469.29 1224.39 1483.64 1227.73 1504.44 1230.94C1504.65 1224.86 1492.79 1228.61 1488.61 1226.69C1487.67 1226.26 1483.8 1225.96 1483.58 1225.46L1483.68 1225.25C1488.48 1224.29 1502.93 1226.53 1504.7 1225.7L1504.72 1225.6C1501.33 1222.32 1483.62 1223.66 1482.42 1222.47C1482.41 1221.79 1482.82 1221.14 1482.45 1220.47C1482.11 1220.75 1481.76 1221.03 1481.42 1221.32C1481.18 1221.31 1474.97 1217.75 1470.51 1217.16C1461.35 1215.94 1447.03 1205.71 1437.45 1207.86C1436.42 1208.09 1436.3 1212.17 1435.77 1213.77C1438.11 1216.95 1445.21 1218.03 1449.07 1218.87ZM1586.35 1201.84C1589.24 1199.13 1592.03 1196.31 1594.71 1193.38C1598.92 1189.09 1603.56 1184.61 1607.19 1179.87C1603.61 1179.52 1604.16 1180.71 1600.68 1180.62C1588.62 1188.41 1587.03 1197.88 1574.3 1202.92C1572.8 1203.51 1568.27 1206.24 1566.56 1207.21L1566.29 1208.09C1571.68 1206.62 1575.31 1205.25 1580.54 1203.21C1578.33 1208.06 1551.87 1222.21 1545.22 1224.85C1541.98 1226.14 1533.3 1227.35 1530.94 1229.04L1531.69 1230.32C1549.62 1227.76 1572.37 1213.25 1586.35 1201.84Z"/><path fill="#FAF3EA" fill-opacity="0.85490197" d="M1208.99 1046.66C1216.65 1045.29 1238.36 1063.33 1246.98 1065.2L1247.99 1064.58C1246.93 1062.33 1228.07 1053.22 1223.94 1049.37C1226.58 1049.15 1252.76 1063.26 1255.46 1065.89C1272.21 1082.17 1293.63 1089.89 1312.39 1103.08C1318.12 1107.1 1324.2 1114.25 1330.11 1117.96C1348.37 1129.42 1363.02 1146.9 1378.79 1161.66C1383.6 1166.15 1391.8 1170.84 1395.41 1176.21L1395.34 1177C1392.15 1175.04 1387.67 1171.15 1384.54 1170.99L1383.34 1171.9C1384.23 1175.72 1390.96 1176.46 1394.47 1180.46L1394.78 1183.81L1390.04 1180.23C1370.04 1165.35 1351.55 1148.26 1332.08 1132.6C1327.28 1127.56 1304.96 1109.95 1298.32 1104.94C1292.18 1098.81 1277.16 1089.78 1269.64 1084.82C1249.77 1071.71 1228.94 1059.65 1208.99 1046.66ZM1384.02 1170.1C1383.63 1164.98 1381.93 1166.26 1377.07 1164.86C1377.33 1170.22 1379.31 1169.99 1384.02 1170.1ZM1374.1 1160.88C1371.46 1158.14 1371.22 1158.48 1367.46 1158.04C1370.23 1161.72 1369.59 1161.81 1374.1 1160.88Z"/><path fill="#F8F2E9" fill-opacity="0.87450981" d="M1377.07 1164.86C1381.93 1166.26 1383.63 1164.98 1384.02 1170.1C1379.31 1169.99 1377.33 1170.22 1377.07 1164.86Z"/><path fill="#FAF3EA" fill-opacity="0.83529413" d="M1367.46 1158.04C1371.22 1158.48 1371.46 1158.14 1374.1 1160.88C1369.59 1161.81 1370.23 1161.72 1367.46 1158.04Z"/><path fill="#F8F2E9" fill-opacity="0.87058824" d="M1435.77 1213.77C1436.3 1212.17 1436.42 1208.09 1437.45 1207.86C1447.03 1205.71 1461.35 1215.94 1470.51 1217.16C1474.97 1217.75 1481.18 1221.31 1481.42 1221.32C1481.76 1221.03 1482.11 1220.75 1482.45 1220.47C1482.82 1221.14 1482.41 1221.79 1482.42 1222.47C1483.62 1223.66 1501.33 1222.32 1504.72 1225.6L1504.7 1225.7C1502.93 1226.53 1488.48 1224.29 1483.68 1225.25L1483.58 1225.46C1483.8 1225.96 1487.67 1226.26 1488.61 1226.69C1492.79 1228.61 1504.65 1224.86 1504.44 1230.94C1483.64 1227.73 1469.29 1224.39 1449.07 1218.87C1445.21 1218.03 1438.11 1216.95 1435.77 1213.77Z"/><path fill="#F8F2E9" fill-opacity="0.94117647" d="M1531.69 1230.32L1530.94 1229.04C1533.3 1227.35 1541.98 1226.14 1545.22 1224.85C1551.87 1222.21 1578.33 1208.06 1580.54 1203.21C1575.31 1205.25 1571.68 1206.62 1566.29 1208.09L1566.56 1207.21C1568.27 1206.24 1572.8 1203.51 1574.3 1202.92C1587.03 1197.88 1588.62 1188.41 1600.68 1180.62C1604.16 1180.71 1603.61 1179.52 1607.19 1179.87C1603.56 1184.61 1598.92 1189.09 1594.71 1193.38C1588.39 1192.7 1586.48 1193.84 1586.37 1200.41L1586.35 1201.84C1572.37 1213.25 1549.62 1227.76 1531.69 1230.32Z"/><path fill="#FAF3EA" fill-opacity="0.90980393" d="M1586.35 1201.84L1586.37 1200.41C1586.48 1193.84 1588.39 1192.7 1594.71 1193.38C1592.03 1196.31 1589.24 1199.13 1586.35 1201.84Z"/><path fill="#AEA193" d="M1022.34 920.415C1036.38 923.754 1088.32 964.23 1101.26 976.686C1106.95 982.155 1114.99 992.681 1121.93 998.055C1128.83 1003.4 1137 1004.98 1144.13 1008.6C1140.84 1008.99 1139.57 1008.7 1136.39 1007.78L1134.58 1008.4C1136.57 1016.1 1209.88 1055 1215.14 1066.95L1214.22 1067.83C1209.91 1064.89 1209.59 1062.98 1204.55 1061.28L1201.24 1062.93C1185.68 1076.71 1163.09 1088.67 1145.48 1100.67C1121.85 1116.76 1100.54 1134.87 1076.48 1150.37C1058.5 1161.95 1036.71 1179.71 1016.86 1187.7C1019.66 1183.84 1024.14 1181.42 1025.1 1178.55L1022.03 1176.58L1022.48 1175L1024.77 1174.14L1029 1177.32C1036.5 1175.14 1098.65 1132.78 1099.24 1127.74L1096.31 1126.51C1097.18 1124.58 1096.57 1125.48 1099.22 1124.3C1108.93 1126.9 1115.22 1120.1 1121.57 1113.03L1121 1112.3C1115.47 1115.51 1114.26 1117.29 1107.64 1116.47C1100.29 1119.59 1090.94 1125.51 1083.73 1129.61C1080.19 1123.87 1071.72 1115.61 1067.05 1110.32C1048.12 1088.87 1028.03 1070.09 1006.82 1050.92C998.653 1043.54 990.665 1034.73 982.291 1027.69C985.3 1019.88 996.264 989.487 1001.26 984.772C999.272 984.498 999.171 984.402 997.267 983.614C997.724 982.231 1004.84 965.368 1005.52 964.279C1007.4 957.791 1017.64 929.792 1020.16 925.335L1023.13 925.308L1024.65 923.465C1023.87 922.457 1023.1 921.44 1022.34 920.415Z"/><path fill="#14151D" d="M1022.34 920.415C1036.38 923.754 1088.32 964.23 1101.26 976.686C1106.95 982.155 1114.99 992.681 1121.93 998.055C1128.83 1003.4 1137 1004.98 1144.13 1008.6C1140.84 1008.99 1139.57 1008.7 1136.39 1007.78L1134.58 1008.4C1136.57 1016.1 1209.88 1055 1215.14 1066.95L1214.22 1067.83C1209.91 1064.89 1209.59 1062.98 1204.55 1061.28L1201.24 1062.93C1185.68 1076.71 1163.09 1088.67 1145.48 1100.67C1121.85 1116.76 1100.54 1134.87 1076.48 1150.37C1058.5 1161.95 1036.71 1179.71 1016.86 1187.7C1019.66 1183.84 1024.14 1181.42 1025.1 1178.55L1022.03 1176.58L1022.48 1175L1024.77 1174.14L1029 1177.32C1036.5 1175.14 1098.65 1132.78 1099.24 1127.74L1096.31 1126.51C1097.18 1124.58 1096.57 1125.48 1099.22 1124.3C1108.93 1126.9 1115.22 1120.1 1121.57 1113.03L1121 1112.3C1115.47 1115.51 1114.26 1117.29 1107.64 1116.47C1130.41 1104.69 1147.79 1093.37 1169.07 1079.2C1179.55 1072.22 1192.42 1066.69 1203.74 1059.33C1192.27 1050.89 1174.65 1041.46 1162.15 1032.67C1146.22 1021.48 1135.09 1011.96 1120.39 999.977C1119.08 999.284 1118.83 998.916 1118.04 997.689C1101.39 983.257 1080.74 969.934 1063.38 955.97C1058.49 952.032 1055.12 949.733 1049.07 950.86C1048.83 951.143 1001.64 984.645 1001.26 984.772C999.272 984.498 999.171 984.402 997.267 983.614C997.724 982.231 1004.84 965.368 1005.52 964.279C1007.4 957.791 1017.64 929.792 1020.16 925.335L1023.13 925.308L1024.65 923.465C1023.87 922.457 1023.1 921.44 1022.34 920.415Z"/><defs><linearGradient id="gradient_0" gradientUnits="userSpaceOnUse" x1="1027.0479" y1="978.83466" x2="1018.1838" y2="930.70282"><stop offset="0" stop-color="#141727"/><stop offset="1" stop-color="#242A4A"/></linearGradient></defs><path fill="url(#gradient_0)" d="M1005.52 964.279C1011.88 958.442 1014.61 946.985 1018.83 939.556C1022.82 932.508 1016.7 924.784 1028.24 932.541C1031.15 934.495 1051.11 946.279 1051.52 947.971C1050.81 949.342 1049.88 948.303 1049.07 950.86C1048.83 951.143 1001.64 984.645 1001.26 984.772C999.272 984.498 999.171 984.402 997.267 983.614C997.724 982.231 1004.84 965.368 1005.52 964.279Z"/><path fill="#1F233B" d="M1607.19 1179.87C1612.91 1174.83 1618.5 1167.71 1623.46 1161.79C1623.99 1171.75 1618.14 1167.79 1622.51 1177.5C1616.41 1181.99 1615.47 1192.49 1611.7 1198.72C1608.84 1203.45 1604.95 1208.31 1601.6 1212.75C1600.92 1226.06 1595.05 1223.83 1592.24 1230.1C1566.54 1287.37 1523.89 1279.62 1479.15 1249.35C1474.43 1246.15 1451.89 1232.72 1449.92 1227.37C1452.21 1222.55 1448.12 1225.8 1449.07 1218.87C1469.29 1224.39 1483.64 1227.73 1504.44 1230.94C1516.05 1231.93 1520.13 1232.4 1531.69 1230.32C1549.62 1227.76 1572.37 1213.25 1586.35 1201.84C1589.24 1199.13 1592.03 1196.31 1594.71 1193.38C1598.92 1189.09 1603.56 1184.61 1607.19 1179.87Z"/><path fill="#2D3451" d="M1201.24 1062.93L1204.55 1061.28C1209.59 1062.98 1209.91 1064.89 1214.22 1067.83L1215.14 1066.95C1209.88 1055 1136.57 1016.1 1134.58 1008.4L1136.39 1007.78C1139.57 1008.7 1140.84 1008.99 1144.13 1008.6C1162.4 1016.77 1174.97 1025.83 1191.69 1036.31C1195.26 1038.55 1206.02 1045.45 1208.99 1046.66C1228.94 1059.65 1249.77 1071.71 1269.64 1084.82C1277.16 1089.78 1292.18 1098.81 1298.32 1104.94C1304.96 1109.95 1327.28 1127.56 1332.08 1132.6C1351.55 1148.26 1370.04 1165.35 1390.04 1180.23C1380.28 1179.49 1378.79 1173.04 1371.02 1173.39C1362.18 1167.96 1352.57 1163.49 1343.45 1158.37C1317.12 1143.58 1292.8 1124.55 1268.08 1107.94C1247.22 1093.92 1223.07 1073.02 1201.24 1062.93Z"/><path fill="#2B314D" d="M1332.08 1132.6C1327.05 1132.41 1298.65 1109.89 1298.32 1104.94C1304.96 1109.95 1327.28 1127.56 1332.08 1132.6Z"/><path fill="#14151D" d="M1371.02 1173.39C1378.79 1173.04 1380.28 1179.49 1390.04 1180.23L1394.78 1183.81C1406.33 1191.57 1426.52 1208.22 1435.77 1213.77C1438.11 1216.95 1445.21 1218.03 1449.07 1218.87C1448.12 1225.8 1452.21 1222.55 1449.92 1227.37C1447.6 1225.31 1442.35 1223.33 1438.8 1220.26C1417.42 1201.75 1394.34 1188.67 1371.02 1173.39Z"/><path fill="#ECE5DA" d="M1494.21 691.642C1500.71 693.107 1489.65 697.603 1487.28 698.985C1486.51 699.201 1486.18 699.418 1485.52 699.159C1484.3 697.559 1492.69 692.754 1494.21 691.642Z"/><path fill="#F8F2E9" d="M2088.97 275.455C2096.73 275.374 2140.69 250.539 2152.7 246.366C2185.23 235.057 2217.54 222.337 2248.48 207.088C2252.75 204.983 2257.27 201.119 2261.44 199.873C2250.24 212.628 2229.99 221.594 2215.84 231.163C2208.26 236.291 2170.7 252.576 2169.25 257.612C2160.81 263.274 2144.81 271.442 2135.55 276.674C2112.7 289.817 2089.69 302.674 2066.52 315.242C2063.02 317.125 2037.01 331.44 2034.31 332.411C2025.05 337.465 2012.48 344.467 2002.94 348.921C1972.38 367.076 1940.61 383.892 1909.99 402.508C1896.68 410.595 1862 433.385 1849.8 438.436C1846.58 440.3 1843.37 442.353 1839.87 443.654C1805.29 464.237 1769.39 483.352 1734.95 503.792C1721.74 510.773 1707.7 519.559 1694.38 526.76C1689.34 529.486 1677.05 536.287 1673.01 539.336C1639.13 554.845 1604.36 580.343 1571.47 598.379C1552.86 608.585 1533.13 618.021 1514.75 628.607C1466.27 656.519 1418.07 685.049 1368.38 710.777C1356.69 715.938 1344.91 723.497 1333.15 728.621C1326.6 731.47 1315.17 738.639 1309.22 740.355C1294.59 747.387 1255.98 768.693 1243.59 778.573L1239.9 781.494L1239.66 778.359L1238.17 777.609C1234.44 778.698 1232.92 779.433 1228.94 778.763C1198.68 790.684 1158.07 814.713 1132.56 835.293L1131.48 836.205C1122.91 843.379 1113.62 848.562 1104.8 854.956C1077.73 874.574 1049.04 891.307 1019.84 907.515C1016.02 909.636 1004.94 917.207 1000.91 917.196C1000.4 917.194 997.455 916.178 996.716 915.908C992.432 927.868 989.149 941.502 985.805 953.876C973.328 1000.04 959.475 1046.58 947.864 1092.93C942.981 1097.13 941.11 1098.8 937.081 1103.75C929.76 1111.94 924.422 1122.27 917.078 1130.05C899.037 1149.15 882.134 1171.72 862.567 1189.02C859.158 1184.46 858.533 1184.13 853.386 1185.57C843.032 1188.47 851.454 1192.42 839.913 1190.07L839.078 1186.83L837.891 1183.29C838.08 1175.86 836.672 1171.4 841.14 1165.16C841.833 1162.2 842.833 1147.26 843.055 1143.67C845.787 1139.4 850.353 1087.08 851.465 1078.19L849.907 1079.36C845.483 1074.61 844.996 1084.64 833.845 1082.79C835.771 1081.7 835.719 1081.98 838.086 1081.71L838.256 1080.96C828.633 1076.91 825.803 1073.52 818.436 1081.49C812.306 1078.62 817.143 1077.27 812.322 1075.33C807.877 1067.02 804.199 1050.09 796.846 1036.14C789.222 1021 784.512 974.409 778.461 953.883C764.907 907.912 736.406 844.426 730.636 798.388C735.376 795.155 743.562 778.687 740.355 774.553C733.412 765.599 748.55 762.482 750.296 759.429L750.155 759.271L749.736 759.286L748.497 758.564L747.958 759.486L747.826 759.475C746.756 757.718 751.343 758.112 750.28 755.302L749.987 754.487L751.391 753.09C754.588 752.818 797.475 732.005 804.244 728.959L898.796 686.716C913.017 680.485 931.326 673.756 944.758 667.021C959.697 663.172 964.135 656.434 978.546 652.301C968.508 649.198 980.077 649.866 980.726 643.474C985.546 639.272 1004.41 629.475 1010.97 625.958C1057.61 600.493 1106.37 581.207 1156.21 563.243C1196.04 548.886 1232.97 534.408 1274.49 525.036C1292.61 520.944 1309.51 513.763 1328.49 510.357C1337.78 513.971 1345.44 505.485 1350.45 512.181C1359.07 506.682 1414.43 494.47 1429.63 490.107C1456.98 482.256 1483.85 472.992 1511.02 464.584C1526.44 459.81 1542.16 455.989 1557.57 451.168C1624.3 430.028 1690.23 406.435 1755.23 380.439C1768.02 377.851 1785.65 369.271 1798.82 365.484C1848.25 351.266 1895.17 331.08 1944.17 315.511C1952.97 311.407 1971.06 308.208 1978.32 303.368L1980.22 303.818L1980.84 304.267C1988.53 310.028 1986.83 306.044 1997.16 306.416C1947.22 335.968 1895.81 362.886 1846.81 393.976C1834.7 401.659 1805.73 418.166 1796.05 425.827C1795.92 428.565 1798.45 427.749 1801.31 428.392C1809.67 424.79 1819.35 418.453 1828.79 414.417C1835.36 410.311 1847.67 403.717 1854.71 400.521L1855.8 399.762C1864.98 394.306 1874.32 389.145 1883.82 384.285C1886.45 382.222 1911.85 368.998 1916.28 366.514C1942.38 351.894 1968.06 337.176 1994.8 323.76C2001.06 324.88 2013.46 318.099 2015.64 313.405C2023.22 309.093 2040.06 299.769 2047.77 296.429C2051.89 296.214 2073.79 286.868 2074.81 282.369C2076.17 281.275 2082.32 278.249 2084.22 277.26L2088.97 275.455ZM987.26 645.902L990.388 644.845C991.215 644.562 992.595 644.137 993.175 643.412C993.097 643.299 993.02 643.187 992.943 643.074C991.209 642.68 990.273 642.822 988.508 642.988L987.224 643.632C984.447 645.004 980.22 647.745 987.26 645.902Z"/><path fill="#D9CFC0" d="M2088.97 275.455C2096.73 275.374 2140.69 250.539 2152.7 246.366C2185.23 235.057 2217.54 222.337 2248.48 207.088C2252.75 204.983 2257.27 201.119 2261.44 199.873C2250.24 212.628 2229.99 221.594 2215.84 231.163C2208.26 236.291 2170.7 252.576 2169.25 257.612C2160.81 263.274 2144.81 271.442 2135.55 276.674C2112.7 289.817 2089.69 302.674 2066.52 315.242C2063.02 317.125 2037.01 331.44 2034.31 332.411C2025.05 337.465 2012.48 344.467 2002.94 348.921C1972.38 367.076 1940.61 383.892 1909.99 402.508C1896.68 410.595 1862 433.385 1849.8 438.436C1846.58 440.3 1843.37 442.353 1839.87 443.654C1805.29 464.237 1769.39 483.352 1734.95 503.792C1721.74 510.773 1707.7 519.559 1694.38 526.76C1689.34 529.486 1677.05 536.287 1673.01 539.336C1639.13 554.845 1604.36 580.343 1571.47 598.379C1552.86 608.585 1533.13 618.021 1514.75 628.607C1466.27 656.519 1418.07 685.049 1368.38 710.777C1356.69 715.938 1344.91 723.497 1333.15 728.621C1326.6 731.47 1315.17 738.639 1309.22 740.355C1294.59 747.387 1255.98 768.693 1243.59 778.573L1239.9 781.494L1239.66 778.359L1238.17 777.609C1234.44 778.698 1232.92 779.433 1228.94 778.763C1198.68 790.684 1158.07 814.713 1132.56 835.293L1131.48 836.205C1122.91 843.379 1113.62 848.562 1104.8 854.956C1077.73 874.574 1049.04 891.307 1019.84 907.515C1016.02 909.636 1004.94 917.207 1000.91 917.196C1000.4 917.194 997.455 916.178 996.716 915.908C992.432 927.868 989.149 941.502 985.805 953.876C973.328 1000.04 959.475 1046.58 947.864 1092.93C942.981 1097.13 941.11 1098.8 937.081 1103.75C929.76 1111.94 924.422 1122.27 917.078 1130.05C899.037 1149.15 882.134 1171.72 862.567 1189.02C859.158 1184.46 858.533 1184.13 853.386 1185.57C843.032 1188.47 851.454 1192.42 839.913 1190.07L839.078 1186.83L837.891 1183.29C838.08 1175.86 836.672 1171.4 841.14 1165.16C841.833 1162.2 842.833 1147.26 843.055 1143.67C845.787 1139.4 850.353 1087.08 851.465 1078.19C851.983 1063.11 862.834 1023.03 868.485 1007.88C891.118 947.209 931.56 900.935 979.945 858.958C1000.78 840.887 1020.82 828.73 1043.68 813.795C1075.08 793.062 1106.96 773.053 1139.28 753.783C1186.85 724.96 1235.14 692.042 1284.28 665.993C1417.01 595.626 1543.64 513.308 1676.68 443.831C1732.15 415.498 1788.59 389.102 1845.89 364.692C1876.53 351.592 1906.41 341.854 1934.4 323.456C1937.79 321.227 1943.51 321.75 1946.89 317.42L1944.17 315.511C1952.97 311.407 1971.06 308.208 1978.32 303.368L1980.22 303.818L1980.84 304.267C1988.53 310.028 1986.83 306.044 1997.16 306.416C1947.22 335.968 1895.81 362.886 1846.81 393.976C1834.7 401.659 1805.73 418.166 1796.05 425.827C1795.92 428.565 1798.45 427.749 1801.31 428.392C1809.67 424.79 1819.35 418.453 1828.79 414.417C1835.36 410.311 1847.67 403.717 1854.71 400.521L1855.8 399.762C1864.98 394.306 1874.32 389.145 1883.82 384.285C1886.45 382.222 1911.85 368.998 1916.28 366.514C1942.38 351.894 1968.06 337.176 1994.8 323.76C2001.06 324.88 2013.46 318.099 2015.64 313.405C2023.22 309.093 2040.06 299.769 2047.77 296.429C2051.89 296.214 2073.79 286.868 2074.81 282.369C2076.17 281.275 2082.32 278.249 2084.22 277.26L2088.97 275.455Z"/><path fill="#2B314D" d="M2088.97 275.455C2096.73 275.374 2140.69 250.539 2152.7 246.366C2185.23 235.057 2217.54 222.337 2248.48 207.088C2252.75 204.983 2257.27 201.119 2261.44 199.873C2250.24 212.628 2229.99 221.594 2215.84 231.163C2208.26 236.291 2170.7 252.576 2169.25 257.612C2160.81 263.274 2144.81 271.442 2135.55 276.674C2112.7 289.817 2089.69 302.674 2066.52 315.242C2063.02 317.125 2037.01 331.44 2034.31 332.411C2025.05 337.465 2012.48 344.467 2002.94 348.921C1972.38 367.076 1940.61 383.892 1909.99 402.508C1896.68 410.595 1862 433.385 1849.8 438.436C1846.58 440.3 1843.37 442.353 1839.87 443.654C1805.29 464.237 1769.39 483.352 1734.95 503.792C1721.74 510.773 1707.7 519.559 1694.38 526.76C1689.34 529.486 1677.05 536.287 1673.01 539.336C1639.13 554.845 1604.36 580.343 1571.47 598.379C1552.86 608.585 1533.13 618.021 1514.75 628.607C1466.27 656.519 1418.07 685.049 1368.38 710.777C1356.69 715.938 1344.91 723.497 1333.15 728.621C1326.6 731.47 1315.17 738.639 1309.22 740.355C1305.37 739.57 1306.02 741.345 1302.43 739.773C1305.98 726.698 1398.38 671.729 1400.81 665.379C1401.7 664.57 1403.93 663.388 1405.07 662.721C1411.4 658.095 1440.24 639.716 1446.74 636.352C1448.85 634.271 1467.47 623.382 1470.73 621.653C1479.43 616.008 1493.68 606.976 1502.8 602.403C1504.47 600.898 1527.67 587.245 1530.87 585.501C1558.12 570.635 1590.16 549.855 1617.73 536.595C1625.31 531.958 1638.98 524.096 1646.83 520.388C1649.91 517.781 1681.67 501.15 1686.71 498.656C1695.67 492.336 1717.94 477.971 1727.8 472.399C1729.96 470.54 1739.94 464.241 1742.85 462.31C1745.48 457.982 1790.29 428.064 1796.05 425.827C1795.92 428.565 1798.45 427.749 1801.31 428.392C1809.67 424.79 1819.35 418.453 1828.79 414.417C1835.36 410.311 1847.67 403.717 1854.71 400.521L1855.8 399.762C1864.98 394.306 1874.32 389.145 1883.82 384.285C1886.45 382.222 1911.85 368.998 1916.28 366.514C1942.38 351.894 1968.06 337.176 1994.8 323.76C2001.06 324.88 2013.46 318.099 2015.64 313.405C2023.22 309.093 2040.06 299.769 2047.77 296.429C2051.89 296.214 2073.79 286.868 2074.81 282.369C2076.17 281.275 2082.32 278.249 2084.22 277.26L2088.97 275.455Z"/><path fill="#AEA193" d="M1742.85 462.31C1745.48 457.982 1790.29 428.064 1796.05 425.827C1795.92 428.565 1798.45 427.749 1801.31 428.392C1791.21 433.465 1781.41 438.585 1771.6 444.229C1762.13 449.681 1752.18 457.061 1742.85 462.31Z"/><path fill="#14151D" d="M1727.8 472.399C1726.66 477.781 1693.87 498.568 1686.71 498.656C1695.67 492.336 1717.94 477.971 1727.8 472.399Z"/><path fill="#14151D" d="M1446.74 636.352C1446.21 639.031 1445.86 638.814 1442.88 640.785L1442.23 641.205C1435.39 645.684 1411.37 662.507 1405.07 662.721C1411.4 658.095 1440.24 639.716 1446.74 636.352Z"/><path fill="#14151D" d="M2002.94 348.921C2002.55 348.531 2001.81 347.978 2001.75 347.47C2007.8 343.137 2016.97 338.456 2023.65 334.972C2029.12 332.118 2028.79 330.864 2034.31 332.411C2025.05 337.465 2012.48 344.467 2002.94 348.921Z"/><path fill="#14151D" d="M1502.8 602.403C1502.29 604.661 1501.17 605.788 1498.88 606.783C1489.94 610.677 1480.72 623.058 1470.73 621.653C1479.43 616.008 1493.68 606.976 1502.8 602.403Z"/><path fill="#1F233B" d="M1646.83 520.388C1645.63 525.452 1624.69 536.725 1617.73 536.595C1625.31 531.958 1638.98 524.096 1646.83 520.388Z"/><path fill="#14151D" d="M1883.82 384.285C1882.72 389.193 1862.3 400.444 1855.8 399.762C1864.98 394.306 1874.32 389.145 1883.82 384.285Z"/><path fill="#14151D" d="M1854.71 400.521C1853.97 404.596 1833.41 414.2 1828.79 414.417C1835.36 410.311 1847.67 403.717 1854.71 400.521Z"/><path fill="#14151D" d="M1839.87 443.654C1839.76 443.508 1839.03 442.822 1839.1 442.454C1839.17 442.084 1840.56 441.338 1840.89 441.164C1841.78 440.686 1842.69 440.221 1843.59 439.758C1844.51 439.281 1845.44 438.81 1846.35 438.298C1846.92 437.977 1847.97 437.269 1848.66 437.388C1849.14 437.469 1849.61 438.227 1849.8 438.436C1846.58 440.3 1843.37 442.353 1839.87 443.654Z"/><path fill="#14151D" d="M1400.81 665.379C1398.38 671.729 1305.98 726.698 1302.43 739.773C1306.02 741.345 1305.37 739.57 1309.22 740.355C1294.59 747.387 1255.98 768.693 1243.59 778.573L1239.9 781.494L1239.66 778.359L1238.17 777.609C1234.44 778.698 1232.92 779.433 1228.94 778.763C1234.93 775.93 1243.03 773.867 1249.41 770.681C1263.03 763.885 1277.01 754.941 1290.01 746.94C1296.98 742.656 1304.63 731.24 1312.09 725.764C1340.7 704.777 1370.42 683.688 1400.81 665.379Z"/><path fill="#ECE5DA" d="M841.14 1165.16C841.132 1171.54 840.972 1180.82 839.078 1186.83L837.891 1183.29C838.08 1175.86 836.672 1171.4 841.14 1165.16Z"/><path fill="#2B314D" d="M1328.49 510.357C1337.78 513.971 1345.44 505.485 1350.45 512.181C1299.51 538.289 1247.14 552.784 1194.38 573.185C1122.61 600.933 1051.07 626.702 978.546 652.301C968.508 649.198 980.077 649.866 980.726 643.474C985.546 639.272 1004.41 629.475 1010.97 625.958C1057.61 600.493 1106.37 581.207 1156.21 563.243C1196.04 548.886 1232.97 534.408 1274.49 525.036C1292.61 520.944 1309.51 513.763 1328.49 510.357ZM987.26 645.902L990.388 644.845C991.215 644.562 992.595 644.137 993.175 643.412C993.097 643.299 993.02 643.187 992.943 643.074C991.209 642.68 990.273 642.822 988.508 642.988L987.224 643.632C984.447 645.004 980.22 647.745 987.26 645.902Z"/><path fill="#2D3451" fill-opacity="0.98823529" d="M988.508 642.988C990.273 642.822 991.209 642.68 992.943 643.074C993.02 643.187 993.097 643.299 993.175 643.412C992.595 644.137 991.215 644.562 990.388 644.845L987.26 645.902C980.22 647.745 984.447 645.004 987.224 643.632L988.508 642.988Z"/><defs><linearGradient id="gradient_1" gradientUnits="userSpaceOnUse" x1="1140.1741" y1="368.00134" x2="1171.6667" y2="696.00122"><stop offset="0" stop-color="#F9F4EA" stop-opacity="0.94117647"/><stop offset="1" stop-color="#FAF4EA"/></linearGradient></defs><path fill="url(#gradient_1)" d="M1714.62 325.588C1721.39 329.018 1728.41 332.406 1735.96 328.571C1733.82 326.809 1724.87 329.575 1720.18 326.642C1729.65 326.537 1734.16 323.907 1743.02 324.492C1745.44 324.758 1759.98 325.128 1761.51 324.553C1771.16 320.913 1780.62 317.395 1789.77 319.562C1791.06 319.867 1799.73 310.541 1807.51 314.268C1809.37 315.159 1812.64 312.664 1813.81 311.587C1810.96 309.413 1810.4 309.799 1809.72 307.118C1816.2 301.733 1829.27 303.012 1838.71 301.428C1843.6 305.746 1841.78 301.537 1846.63 304.595L1846 307.163L1845.73 307.973C1842.3 310.229 1844.21 312.597 1846.49 315.593L1846.49 315.824C1846.12 315.967 1845.74 316.11 1845.37 316.253C1845.67 319.068 1853.4 318.3 1852.71 323.726C1851.34 324.767 1850.17 323.072 1849.37 322.37C1847.36 320.656 1843.16 321.734 1840.49 321.506C1839.21 321.396 1832.12 323.271 1833.64 325.939C1834.2 326.932 1835.62 328.212 1835.87 329.436C1835.63 329.783 1835.39 330.13 1835.14 330.477C1835.61 331.256 1836.6 330.308 1837.03 330.18C1840.7 329.079 1844.32 328.848 1848.11 329.385C1838.12 332.769 1828.39 335.51 1818.27 338.48C1770.8 352.401 1723.4 367.207 1676.37 382.547C1655.1 389.488 1634.36 398.853 1612.9 405.466C1574.85 418.458 1535.09 430.609 1497.91 445.628C1492.14 447.539 1459.99 460.44 1454.72 463.437C1449.08 465.172 1423.41 474.883 1418.69 477.466C1411.81 480.021 1374.75 494.363 1369.64 497.316C1355.08 502.828 1343.87 507.68 1328.49 510.357C1309.51 513.763 1292.61 520.944 1274.49 525.036C1232.97 534.408 1196.04 548.886 1156.21 563.243C1106.37 581.207 1057.61 600.493 1010.97 625.958C1004.41 629.475 985.546 639.272 980.726 643.474C970.43 648.709 966.155 653.648 954.176 657.262C937.927 662.165 921.613 665.828 905.356 670.49C871.677 677.349 853.696 685.529 821.844 697.351C800.761 705.176 781.115 710.188 759.49 719.4C749.339 723.726 716.238 739.455 708.173 741.481C707.032 741.179 704.84 741.014 703.579 740.872C702.85 739.607 694.809 739.218 692.738 739.041C675.583 737.644 658.871 732.265 641.791 730.38C635.886 729.729 630.391 734.198 623.53 733.2C616.125 732.433 609.571 731.555 602.072 731.18C592.289 729.851 575.31 727.444 565.665 727.219C535.58 726.518 516.431 726.883 487.039 720.28C490.11 717.685 497.25 718.448 501.36 718.53C499.757 716.955 453.906 715.078 454.851 699.735C455.796 684.373 473.357 676.988 484.183 668.994C490.603 664.253 493.398 661.262 501.21 660.582C500.117 662.463 488.389 668.155 485.453 670.173C478.734 674.79 473.855 681.787 465.886 683.542L466.704 685.656L468.949 686.091C471.709 685.097 492.463 670.458 497.503 667.522C509.311 660.644 503.002 663.274 515.904 660.608C516.796 659.513 517.547 658.485 518.186 657.228C519.083 655.461 545.498 649.459 550.116 647.648C550.823 644.73 549.972 644.422 548.578 640.931C550.073 637.661 565.572 647.411 567.399 638.471C565.574 636.191 562.24 636.206 558.706 635.417L566.83 632.285C574.5 638.205 574.386 636.626 585.011 636.59C587.317 636.582 595.691 634.602 597.314 633.38C599.483 631.407 604.295 630.799 607.517 630.656C614.881 630.33 622.182 626.136 628.955 624.838C637.622 625.5 713.765 599.453 723.641 593.66C726.143 592.193 726.511 592.131 727.245 589.305C725.494 588.213 724.906 587.845 723.815 586.085C731.123 583.615 786.473 566.833 790.391 567.353L791.169 567.533C795.141 568.445 804.009 570.511 807.889 570.146C812.6 569.703 833.485 564.049 836.784 561.987C835.93 561.525 834.818 561.01 834.106 560.427C837.524 558.214 890.491 550.631 893.047 548.627C889.183 548.797 884.184 549.275 880.502 548.564C883.311 548.093 890.775 546.293 892.511 546.167C902.202 545.464 908.329 546.792 917.965 543.86C917.271 543.976 934.972 536.819 934.208 537.415C939.43 533.342 942.84 535.15 949.268 532.729C950.367 532.529 952.329 531.717 952.948 530.94C956.42 526.535 970.313 529.996 974.029 525.035C977.844 519.943 994.608 522.112 983.896 514.57C1006.1 506.197 1034.41 502.768 1057.43 496.23C1074.26 491.449 1090.23 486.145 1106.81 480.741C1113.36 478.607 1129.38 472.942 1134.97 472.432C1133.52 473.719 1132.21 474.913 1130.82 476.265C1140.73 483.104 1150.62 476.031 1160.47 474.116C1166.19 472.916 1165.02 472.026 1169.02 469.364C1172.53 468.578 1175.23 468.983 1178.59 467.301C1182.98 465.106 1185.6 462.297 1190.74 462.609C1193.27 462.706 1201.31 461.088 1203.29 459.373C1208.85 454.578 1216.85 458.019 1222.49 454.336L1222.46 454.158C1222.09 453.781 1221.31 453.889 1220.74 453.444C1220.38 452.52 1221.13 450.729 1221.42 449.795C1258.68 441.701 1299.74 438.369 1336.6 428.188C1380.8 415.98 1424.83 402.294 1469.28 390.846C1505.05 381.636 1543.18 379.436 1578.42 369.27C1589.47 372.494 1625.07 351.916 1643.11 347.724C1644.21 349.544 1644.41 349.429 1646.28 350.548C1656.2 350.769 1660.23 347.14 1668.89 343.747C1673.28 342.03 1678.08 342.246 1682.68 339.986L1683.02 338.404C1679.1 335.316 1677.99 335.701 1672.8 334.553C1680.4 331.868 1705.84 327.285 1714.62 325.588Z"/><path fill="#D9CFC0" d="M982.291 1027.69C990.665 1034.73 998.653 1043.54 1006.82 1050.92C1028.03 1070.09 1048.12 1088.87 1067.05 1110.32C1071.72 1115.61 1080.19 1123.87 1083.73 1129.61C1072.71 1136.83 1013.93 1175.62 1006.79 1184.06C995.252 1190.46 984.224 1199.9 972.664 1206.63C968.531 1209.03 964.275 1213.99 959.818 1217.04C949.346 1226.17 934.942 1235.82 923.342 1243.54C923.504 1241.34 924.592 1239.55 924.602 1237.58C924.605 1237.05 920.602 1233.85 919.946 1233.67C914.966 1232.28 916.868 1226.26 915.112 1222.56C914.675 1221.64 913.473 1221.37 912.855 1222.17C910.177 1225.63 910.968 1231.51 911.07 1235.55C912.845 1237.31 921.172 1239.63 914.495 1239.98C912.13 1240.1 912.396 1242.04 910.453 1242.7C908.037 1242.06 907.701 1238.52 904.349 1238.49C902.518 1238.52 900.434 1239.99 898.572 1240.7C902.422 1231.44 908.282 1218.59 911.149 1209.4C914.111 1201.48 916.175 1193.19 919.406 1184.95C939.951 1132.62 962.818 1080.39 982.291 1027.69Z"/><path fill="#2D3451" fill-opacity="0.98823529" d="M1497.91 445.628C1502.49 446.456 1548.48 429.184 1555.42 426.774L1686.43 381.127C1755.04 357.467 1826.29 340.185 1894.71 315.717C1915.38 310.109 1935.58 303.668 1956.08 297.453C1989.48 287.329 2021.77 274.114 2054.59 262.376C2071.5 256.329 2090.56 252.98 2107.12 246.638C2150.06 230.193 2193.16 214.614 2237.02 200.722C2243.58 198.645 2262.85 190.96 2268.26 190.574L2268 192.105C2262.77 197.86 2200.16 226.782 2189.21 230.88C2179.45 234.536 2153.93 239.519 2142.11 246.418L2141.96 248.132C2134.51 248.893 2128.36 252.474 2121.82 254.236C2108.96 257.706 2082.45 268.757 2070.12 271.238C2068.13 270.796 2066.16 270.828 2064.22 271.39C2055.37 273.949 1978.83 300.775 1978.32 303.368C1971.06 308.208 1952.97 311.407 1944.17 315.511C1895.17 331.08 1848.25 351.266 1798.82 365.484C1785.65 369.271 1768.02 377.851 1755.23 380.439C1749.58 379.114 1731.82 387.38 1725.45 389.753L1667.22 411.235C1631.63 424.561 1595.71 436.996 1559.51 448.528C1544.85 453.169 1529.87 456.593 1515.19 461.147C1466.45 476.274 1417.56 494.559 1367.18 503.325C1363.26 504.008 1359.57 505.419 1355.67 506.28L1355.1 505.219C1359.3 503.494 1368.1 500.883 1369.64 497.316C1374.75 494.363 1411.81 480.021 1418.69 477.466C1425.51 477.856 1451.99 468.952 1454.72 463.437C1459.99 460.44 1492.14 447.539 1497.91 445.628Z"/><defs><linearGradient id="gradient_2" gradientUnits="userSpaceOnUse" x1="1920.8629" y1="686.37897" x2="1937.2478" y2="697.35535"><stop offset="0" stop-color="#1B1F34" stop-opacity="0.96470588"/><stop offset="1" stop-color="#232A48"/></linearGradient></defs><path fill="url(#gradient_2)" d="M2060.72 489.205C2064.16 488.139 2064.41 487.712 2067.23 485.294C2065.75 495.628 2066.48 490.721 2071.24 493.542L2069.81 499.399C2063.92 511.183 2054.58 525.03 2047.32 536.416L2009.27 595.741C1959.3 673.85 1907.99 751.096 1855.37 827.445C1845.58 841.399 1834.19 854.255 1824.89 869.034C1821.27 874.787 1799.89 901.684 1796.21 904.055L1794.66 902.915C1789.32 891.085 1797.1 888.492 1797.49 878.121C1798.77 874.928 1806.32 862.902 1808.59 859.192L1833.11 819.35C1864.56 767.719 1897.62 719.111 1931.96 669.348C1954.59 636.541 1976.86 603.225 1999.72 570.582C2011.73 553.43 2025.27 536.445 2037.53 519.227C2041.53 514.783 2044.44 510.439 2048.01 505.684L2050.96 501.957C2053.15 498.641 2055.74 495.72 2058.05 492.419L2060.72 489.205Z"/><defs><linearGradient id="gradient_3" gradientUnits="userSpaceOnUse" x1="1979.9739" y1="348.59198" x2="1995.155" y2="379.67191"><stop offset="0" stop-color="#BAAFA1" stop-opacity="0.94509804"/><stop offset="1" stop-color="#BCB1A3"/></linearGradient></defs><path fill="url(#gradient_3)" d="M2272.38 192.32L2267.31 205.099L2264.71 209.273C2261.64 214.547 2258.61 220.18 2254.68 224.81C2252.22 222.436 2253.67 223.291 2249.97 222.583C2245.67 223.966 2233.47 237.456 2227.75 240.521C2214.38 247.68 2161.78 295.031 2150.54 297.077C2156.89 292.325 2189.64 269.107 2190.84 265.3C2158.8 282.929 2126.32 302.204 2094.4 319.959C2023.65 359.101 1952.55 397.602 1881.1 435.459C1841.49 456.406 1802.53 478.118 1761.6 496.334C1752.37 500.441 1743.27 505.72 1734.04 509.794C1730.65 505.874 1734.22 509.128 1734.95 503.792C1769.39 483.352 1805.29 464.237 1839.87 443.654C1843.37 442.353 1846.58 440.3 1849.8 438.436C1862 433.385 1896.68 410.595 1909.99 402.508C1940.61 383.892 1972.38 367.076 2002.94 348.921C2012.48 344.467 2025.05 337.465 2034.31 332.411C2037.01 331.44 2063.02 317.125 2066.52 315.242C2089.69 302.674 2112.7 289.817 2135.55 276.674C2144.81 271.442 2160.81 263.274 2169.25 257.612C2196.38 245.486 2234.7 223.316 2259.51 206.405C2262.66 204.255 2269.58 195.722 2272.38 192.32Z"/><path fill="#2B314D" d="M905.356 670.49C910.064 673.079 945.205 660.123 947.647 662.165C947.934 664.609 943.997 663.913 944.758 667.021C931.326 673.756 913.017 680.485 898.796 686.716L804.244 728.959C797.475 732.005 754.588 752.818 751.391 753.09C747.816 752.501 723.986 761.194 721.318 763.725C720.414 772.236 729.15 798.007 729.337 806.444C726.106 802.597 722.429 797.565 718.505 794.802C718.449 797.514 720.822 800.618 722.317 803.096C713.501 796.024 698.656 770.286 691.344 763.562C676.285 759.058 660.997 760.234 645.877 758.504C615.86 755.069 580.118 748.517 551.172 739.78L550.338 739.521L553.111 738.95C551.563 735.728 525.942 731.137 519.581 728.619C530.05 726.886 550.902 729.676 563.478 728.804C572.204 728.199 588.305 732.848 600.88 732.886L602.072 731.18C609.571 731.555 616.125 732.433 623.53 733.2C637.099 735.364 650.519 738.374 663.713 742.213C670.912 744.313 687.592 751.142 693.728 748.687C694.815 748.092 695.805 747.429 696.846 746.759C700.709 745.088 704.384 743.306 708.173 741.481C716.238 739.455 749.339 723.726 759.49 719.4C781.115 710.188 800.761 705.176 821.844 697.351C853.696 685.529 871.677 677.349 905.356 670.49Z"/><path fill="#1F233B" d="M937.081 1103.75C939.648 1103.05 941.014 1102.36 943.331 1101.05C946.041 1101.49 944.767 1100.98 947.051 1103.09C945.709 1107.33 941.058 1120.63 941.375 1124.29L940.362 1126.06L938.324 1124.18C937.09 1125.86 935.102 1131.99 934.66 1134.09C931.462 1149.25 908.214 1196.23 911.149 1209.4C908.282 1218.59 902.422 1231.44 898.572 1240.7C896.008 1245.75 894.245 1252.14 892.076 1257.52C889.507 1264.98 888.042 1267.43 884.256 1274.28C889.565 1270.38 894.744 1266.31 899.785 1262.07C901.203 1261.25 901.393 1261.01 902.454 1259.82C904.619 1258.35 921.772 1245.07 923.342 1243.54C934.942 1235.82 949.346 1226.17 959.818 1217.04L961.697 1218.2C956.482 1226.64 933.249 1241.32 924.41 1247.64C912.357 1256.25 892.338 1275.67 879.583 1281.36C863.419 1282.01 854.602 1254.43 850.085 1241.53C849.31 1239.32 850.932 1233.06 848.558 1231.93C846.972 1224.66 840.231 1204.37 842.396 1198.9C842.692 1199.95 843.573 1204.24 844.711 1204.68C846.206 1204.32 859.989 1191.34 862.567 1189.02C882.134 1171.72 899.037 1149.15 917.078 1130.05C924.422 1122.27 929.76 1111.94 937.081 1103.75Z"/><path fill="#1F233B" fill-opacity="0.96470588" d="M1240.33 432.504C1242.04 432.991 1241.35 432.523 1242.42 433.859C1239.18 436.408 1212.95 444.412 1205.65 447.765C1210.82 450.885 1265.03 439.424 1275.5 438.114C1323.49 432.111 1368.92 414.799 1415.78 403.737C1430.87 400.492 1445.62 393.443 1460.71 390.36C1491.51 384.07 1522.6 377.244 1553.77 373.541C1565.15 372.189 1599.28 356.028 1607.25 358.217C1597.7 362.077 1588.09 365.762 1578.42 369.27C1543.18 379.436 1505.05 381.636 1469.28 390.846C1424.83 402.294 1380.8 415.98 1336.6 428.188C1299.74 438.369 1258.68 441.701 1221.42 449.795C1200.46 454.281 1178.16 461.749 1157.57 467.849C1155.29 468.881 1152.27 469.847 1149.82 470.786L1148.99 471.747L1147.84 471.714C1145.24 467.316 1140.04 471.878 1134.97 472.432C1129.38 472.942 1113.36 478.607 1106.81 480.741C1090.23 486.145 1074.26 491.449 1057.43 496.23C1034.41 502.768 1006.1 506.197 983.896 514.57C974.994 520.053 948.365 527.353 937.56 531.273C932.245 532.304 924.547 535.882 918.921 537.559L918.814 535.62C932.251 529.719 949.908 524.778 964.044 519.678C967.62 518.388 966.637 519.451 968.999 516.172C968.838 516.116 928.03 524.003 923.813 524.829C907.349 528.054 888.869 533.76 872.515 538.339C870.622 538.884 858.956 542.478 857.984 542.547L857.322 542.822C842.632 548.807 814.015 557.813 797.578 563.532C811.507 562.81 842.079 550.398 850.901 552.765C837.625 556.579 802.175 567.752 790.391 567.353C786.473 566.833 731.123 583.615 723.815 586.085C718.465 587.085 705.957 594.841 698.783 597.788C676.16 607.08 651.283 612.658 628.933 620.326C617.633 622.331 606.77 626.198 595.989 627.883C585.863 629.466 577.215 630.439 566.83 632.285L558.706 635.417C534.874 642.132 508.051 648.628 488.046 663.411C470.736 676.203 447.659 683.861 452.457 709.64C465.7 714.862 472.839 717.1 487.039 720.28C516.431 726.883 535.58 726.518 565.665 727.219C575.31 727.444 592.289 729.851 602.072 731.18L600.88 732.886C588.305 732.848 572.204 728.199 563.478 728.804C550.902 729.676 530.05 726.886 519.581 728.619C525.942 731.137 551.563 735.728 553.111 738.95L550.338 739.521C543.905 738.891 535.03 737.129 528.943 735.08C505.639 727.233 476.241 727.508 453.543 720.787C461.851 718.012 463.022 720.485 470.025 720.726C481.556 721.121 450.718 711.743 449.935 711.429C448.267 696.945 448.138 691.176 459.944 679.67C462.937 676.754 490.667 661.872 483.262 659.15C480.29 658.057 457.169 669.287 452.899 670.274C448.124 671.379 438.336 680.65 437.1 675.37C460.671 659.584 518.879 643.409 547.489 634.802C570.503 627.879 595.741 617.77 617.96 611.166C665.471 597.044 713.541 585.685 761.27 571.134C803.834 558.157 845.394 541.466 888.117 530.187C942.314 515.778 997.766 508.091 1051.99 493.513C1083.9 484.931 1117.17 473.308 1149.06 463.793C1167.38 458.324 1187.25 446.962 1206.37 441.382C1217.35 438.177 1230.27 435.931 1240.33 432.504ZM655.768 608.738C657.478 610.038 678.935 604.343 679.237 600.051C677.816 597.656 675.207 599.258 672.738 599.34C669.359 600.162 645.719 608.63 644.89 609.712L644.987 609.983C647.831 611.17 652.974 609.686 655.768 608.738Z"/><defs><linearGradient id="gradient_4" gradientUnits="userSpaceOnUse" x1="662.6889" y1="607.9425" x2="661.0459" y2="603.18518"><stop offset="0" stop-color="#25293D" stop-opacity="0.97647059"/><stop offset="1" stop-color="#32395C"/></linearGradient></defs><path fill="url(#gradient_4)" d="M672.738 599.34C675.207 599.258 677.816 597.656 679.237 600.051C678.935 604.343 657.478 610.038 655.768 608.738C652.974 609.686 647.831 611.17 644.987 609.983L644.89 609.712C645.719 608.63 669.359 600.162 672.738 599.34Z"/><path fill="#2D3451" fill-opacity="0.97647059" d="M1240.33 432.504C1243.27 430.879 1267.31 424.959 1272.32 423.364C1333.86 403.793 1398.13 391.798 1460.97 377.257C1492.35 369.995 1524.15 360.5 1555.52 352.7C1572.47 348.485 1591.71 346.556 1607.72 342.238C1616.21 347.985 1624.56 340.906 1631.87 345.118C1628.57 347.835 1615.6 352.351 1609.74 355.507L1609.82 356.886L1607.25 358.217C1599.28 356.028 1565.15 372.189 1553.77 373.541C1522.6 377.244 1491.51 384.07 1460.71 390.36C1445.62 393.443 1430.87 400.492 1415.78 403.737C1368.92 414.799 1323.49 432.111 1275.5 438.114C1265.03 439.424 1210.82 450.885 1205.65 447.765C1212.95 444.412 1239.18 436.408 1242.42 433.859C1241.35 432.523 1242.04 432.991 1240.33 432.504Z"/><path fill="#AEA193" fill-opacity="0.98431373" d="M2047.94 279.366L2048.78 281.584C2058.49 287.72 2071.33 276.322 2084.22 277.26C2082.32 278.249 2076.17 281.275 2074.81 282.369C2068.02 285.472 2053.91 292.62 2047.77 296.429C2040.06 299.769 2023.22 309.093 2015.64 313.405C2009.67 316.003 2000.91 320.68 1994.8 323.76C1968.06 337.176 1942.38 351.894 1916.28 366.514C1911.85 368.998 1886.45 382.222 1883.82 384.285C1874.32 389.145 1864.98 394.306 1855.8 399.762L1854.71 400.521C1847.67 403.717 1835.36 410.311 1828.79 414.417C1819.35 418.453 1809.67 424.79 1801.31 428.392C1798.45 427.749 1795.92 428.565 1796.05 425.827C1805.73 418.166 1834.7 401.659 1846.81 393.976C1895.81 362.886 1947.22 335.968 1997.16 306.416C1998.92 305.695 2017.2 294.33 2018.48 293.119C2018.8 290.962 2026.06 291.122 2028.71 286.678C2031.31 285.126 2044.36 280.661 2047.94 279.366Z"/><path fill="#2B314D" fill-opacity="0.97647059" d="M2264.71 209.273L2264.62 210.066C2264.3 213.442 2264.32 213.7 2264.92 216.985C2261.66 227.426 2233.37 262.747 2225.98 273.889C2209.29 299.045 2192.01 324.762 2174.95 349.783C2172.54 353.315 2164.39 367.347 2163.32 368.698C2152.43 382.406 2139.65 395.889 2128.55 409.487C2119.85 420.156 2111.49 432.258 2104 443.786C2102.55 446.029 2098.29 449.173 2096.69 452.048C2088.7 466.313 2081.14 481.001 2073.35 495.393C2072.11 497.683 2071.89 497.791 2069.81 499.399L2071.24 493.542C2072.38 492.611 2073.28 492.075 2073.79 490.721C2073.25 488.64 2072.62 490.063 2071.83 489.279C2070.26 487.727 2072.81 485.486 2068.65 485.367L2067.23 485.294C2064.41 487.712 2064.16 488.139 2060.72 489.205L2060.92 488.219C2063.31 485.64 2066.55 481.153 2068.7 478.233L2072.61 473.222C2075.05 470.221 2077.41 466.979 2079.86 463.905C2088.39 452.097 2099.4 439.92 2108.65 428.342C2119.92 414.254 2127.14 403.303 2136.68 388.058C2138.63 384.615 2140.28 381.461 2142.56 378.141C2148.8 366.983 2159.57 351.49 2166.75 340.145C2167.82 338.995 2172.15 332.396 2173.52 330.473L2177.7 324.49C2180.25 321.021 2183.25 316.961 2185.64 313.441L2189.44 308.474C2190.98 306.688 2192.35 304.876 2193.73 302.963L2199.71 295.024C2201.13 293.529 2202.81 291.298 2204.11 289.64C2221.87 266.549 2240.36 249.539 2254.68 224.81C2258.61 220.18 2261.64 214.547 2264.71 209.273Z"/><path fill="#2D3451" d="M1011.03 916.094C1016.29 917.459 1017.54 917.702 1022.34 920.415C1023.1 921.44 1023.87 922.457 1024.65 923.465L1023.13 925.308L1020.16 925.335C1017.64 929.792 1007.4 957.791 1005.52 964.279C1004.84 965.368 997.724 982.231 997.267 983.614C979.143 1030.7 960.511 1077.6 941.375 1124.29C941.058 1120.63 945.709 1107.33 947.051 1103.09C948.601 1098.69 949.536 1093.63 950.903 1089.11C962.292 1051.41 971.798 1013.25 982.583 975.373C987.378 958.537 991.261 941.439 997.105 924.917C1002.21 921.252 1005.54 919.197 1011.03 916.094Z"/><path fill="#1F233B" fill-opacity="0.91764706" d="M2046 234.981L2047.61 236.478C2044.42 239.804 1994.46 249.243 1986.8 250.495C1955.7 259.964 1916.15 265.473 1885.84 274.43C1871.06 278.796 1784.01 301.23 1778.18 306.358L1778.27 307.857C1783.68 310.092 1847.58 289.866 1859.51 289.507C1860.55 289.475 1878.19 285.723 1879.84 285.24C1881.73 285.55 1881.92 285.187 1883.63 284.281C1895.87 282.568 1917.87 276.489 1929.81 273.147L1931.19 275.092C1920.42 278.208 1909.88 280.706 1899.03 283.441C1890.07 285.556 1879.53 287.891 1870.48 289.529C1817.56 300.961 1768.27 315.268 1714.62 325.588C1705.84 327.285 1680.4 331.868 1672.8 334.553C1665.51 337.394 1658.16 340.058 1650.74 342.54C1648.7 342.998 1647.21 343.655 1645.27 344.277C1638.72 346.66 1615.32 355.667 1609.82 356.886L1609.74 355.507C1615.6 352.351 1628.57 347.835 1631.87 345.118C1624.56 340.906 1616.21 347.985 1607.72 342.238C1620.96 339.028 1634.86 338.03 1648.08 335.186C1668.62 330.769 1694.91 322.825 1715.63 321.335C1724.86 319.44 1731.62 315.319 1740.3 312.313C1749.44 309.151 1760.26 306.935 1769.13 303.731C1774.66 301.166 1818.24 289.41 1826.59 287.105C1865.23 276.444 1904.1 266.579 1943.15 257.516C1975.56 249.751 2013.17 240.848 2046 234.981Z"/><path fill="#2B314D" fill-opacity="0.93333334" d="M722.317 803.096C720.822 800.618 718.449 797.514 718.505 794.802C722.429 797.565 726.106 802.597 729.337 806.444C729.15 798.007 720.414 772.236 721.318 763.725C723.986 761.194 747.816 752.501 751.391 753.09L749.987 754.487C735.56 760.348 737.84 758.387 723.667 766.275C725.807 777.308 728.586 787.554 730.636 798.388C736.406 844.426 764.907 907.912 778.461 953.883C784.512 974.409 789.222 1021 796.846 1036.14C793.014 1044.49 805.063 1061.61 799.931 1064.33L798.361 1064.14C797.882 1068.38 797.98 1072.05 798.016 1076.28C796.927 1072.05 797.528 1068.01 796.709 1064.61C794.494 1055.44 792.81 1046.23 790.836 1037.06C789.023 1028.64 787.788 1017.2 785.541 1009.34C777.548 981.371 763.474 957.376 755.95 928.825C749.716 905.318 743.736 881.743 738.011 858.106C733.028 837.587 733.762 821.611 722.317 803.096ZM777.653 971.831C779.438 965.971 775.122 945.697 769.51 943.007C769.496 947.456 768.987 953.408 770.427 957.506C771.134 959.517 775.313 972.367 777.653 971.831Z"/><path fill="#2D3451" fill-opacity="0.97647059" d="M769.51 943.007C775.122 945.697 779.438 965.971 777.653 971.831C775.313 972.367 771.134 959.517 770.427 957.506C768.987 953.408 769.496 947.456 769.51 943.007Z"/><path fill="#14151D" fill-opacity="0.97254902" d="M2253.99 188.579C2259.97 186.448 2271.06 182.512 2274.03 191.865C2274.81 194.294 2272.63 199.067 2271.15 201.03C2270.02 202.514 2268.73 203.878 2267.31 205.099L2272.38 192.32C2269.58 195.722 2262.66 204.255 2259.51 206.405C2234.7 223.316 2196.38 245.486 2169.25 257.612C2170.7 252.576 2208.26 236.291 2215.84 231.163C2229.99 221.594 2250.24 212.628 2261.44 199.873C2257.27 201.119 2252.75 204.983 2248.48 207.088C2217.54 222.337 2185.23 235.057 2152.7 246.366C2140.69 250.539 2096.73 275.374 2088.97 275.455C2102.51 267.221 2133.14 254.942 2141.96 248.132L2142.11 246.418C2153.93 239.519 2179.45 234.536 2189.21 230.88C2200.16 226.782 2262.77 197.86 2268 192.105L2268.26 190.574C2262.85 190.96 2243.58 198.645 2237.02 200.722C2193.16 214.614 2150.06 230.193 2107.12 246.638C2090.56 252.98 2071.5 256.329 2054.59 262.376C2021.77 274.114 1989.48 287.329 1956.08 297.453C1935.58 303.668 1915.38 310.109 1894.71 315.717C1826.29 340.185 1755.04 357.467 1686.43 381.127L1555.42 426.774C1548.48 429.184 1502.49 446.456 1497.91 445.628C1535.09 430.609 1574.85 418.458 1612.9 405.466C1634.36 398.853 1655.1 389.488 1676.37 382.547C1723.4 367.207 1770.8 352.401 1818.27 338.48C1828.39 335.51 1838.12 332.769 1848.11 329.385C1852.62 328.44 1860.89 325.257 1865.4 323.661C1877.72 319.303 1889.8 315.41 1902.2 311.393C1906.96 310.323 1911.73 309.268 1916.32 307.575C1924.12 305.978 1937.28 301.26 1945.41 298.916C1982.51 288.221 2018.1 273.344 2054.29 260.212C2070.29 254.406 2088.72 251.662 2106 245.287C2109.31 244.172 2116.91 241.285 2119.75 239.474C2138.89 232.239 2169.48 223.118 2186.21 215.35C2192.15 214.015 2202.71 209.962 2208.6 207.821C2212.32 206.834 2217.46 205.014 2221.11 203.669C2230.64 199.982 2240.73 197.224 2250.22 193.367C2250.71 193.165 2253.54 192.322 2253.54 191.587C2252.75 191.316 2251.9 191.213 2251.06 191.072C2250.94 191.026 2250.02 190.832 2249.84 190.482C2249.75 190.309 2249.87 190.198 2249.94 190.018C2251.4 189.13 2252.11 189.731 2253.99 188.579Z"/><path fill="#2D3451" fill-opacity="0.98823529" d="M796.846 1036.14C804.199 1050.09 807.877 1067.02 812.322 1075.33C815.937 1090.24 823.275 1106.33 827.007 1121.62C829.218 1130.89 830.965 1140.26 832.241 1149.71C832.522 1151.78 833.254 1160.66 833.515 1161.72C834.862 1172.82 835.441 1173.11 837.891 1183.29L839.078 1186.83L839.913 1190.07C840.965 1193.22 842.012 1195.61 842.396 1198.9C840.231 1204.37 846.972 1224.66 848.558 1231.93C845.168 1228.72 840.197 1204.35 837.088 1197.98C834.753 1193.19 833.258 1181.32 830.831 1175.55C817.82 1144.65 808.34 1112.93 799.796 1080.62C799.567 1079.76 798.432 1077.35 798.016 1076.28C797.98 1072.05 797.882 1068.38 798.361 1064.14L799.931 1064.33C805.063 1061.61 793.014 1044.49 796.846 1036.14ZM812.368 1089.96C812.742 1088.88 812.689 1088.96 813.154 1088.53C813.525 1089.01 813.897 1089.49 814.268 1089.96C814.334 1090.02 814.399 1090.07 814.464 1090.12L814.564 1090.08C815.431 1087.77 810.838 1076.62 808.32 1074.72C809.384 1077.63 811.102 1084.57 810.191 1087.56C810.098 1087.43 810.006 1087.29 809.913 1087.15C809.167 1090.16 808.913 1095.08 812.368 1089.96Z"/><path fill="#2B314D" fill-opacity="0.94117647" d="M808.32 1074.72C810.838 1076.62 815.431 1087.77 814.564 1090.08L814.464 1090.12C814.399 1090.07 814.334 1090.02 814.268 1089.96C813.897 1089.49 813.525 1089.01 813.154 1088.53C812.689 1088.96 812.742 1088.88 812.368 1089.96C808.913 1095.08 809.167 1090.16 809.913 1087.15C810.006 1087.29 810.098 1087.43 810.191 1087.56C811.102 1084.57 809.384 1077.63 808.32 1074.72Z"/><path fill="#F8F2E9" fill-opacity="0.85882354" d="M812.322 1075.33C817.143 1077.27 812.306 1078.62 818.436 1081.49C825.803 1073.52 828.633 1076.91 838.256 1080.96L838.086 1081.71C835.719 1081.98 835.771 1081.7 833.845 1082.79C844.996 1084.64 845.483 1074.61 849.907 1079.36L851.465 1078.19C850.353 1087.08 845.787 1139.4 843.055 1143.67C837.725 1154.39 842.32 1151.57 833.515 1161.72C833.254 1160.66 832.522 1151.78 832.241 1149.71C830.965 1140.26 829.218 1130.89 827.007 1121.62C823.275 1106.33 815.937 1090.24 812.322 1075.33ZM841.717 1131.29C845.147 1122.41 843.623 1122.07 844 1111.97C845.904 1108.09 848.745 1085.62 841.034 1085.72C833.823 1085.82 833.463 1085.16 825.24 1081.91C823.046 1087.53 818.926 1095.73 823.586 1100.86C826.783 1108.61 828.232 1113.8 830.13 1122C831.282 1126.98 830.577 1137.19 836.556 1139.19C839.828 1140.07 841.339 1133.82 841.717 1131.29Z"/><path fill="#F8F2E9" fill-opacity="0.64705884" d="M823.586 1100.86C823.517 1099.07 823.485 1097.32 823.282 1095.49C823.108 1093.92 823.94 1092.39 824.966 1091.3C826.707 1089.44 829.39 1090.1 830.862 1091.96C832.379 1093.88 832.641 1096.61 832.309 1099C832.211 1100.54 830.882 1101.51 829.865 1102.46C829.079 1103.19 828.605 1105.13 829.526 1105.9C830.433 1106.67 831.937 1105.34 832.322 1104.58C832.799 1103.63 832.637 1102.35 833.587 1101.67C834.707 1101 836.383 1102.06 837.484 1101.34C838.865 1099.35 840.787 1096.31 841.065 1093.91C841.039 1093.46 841.013 1093.01 840.987 1092.57C841.004 1092.28 841.02 1091.99 841.037 1091.71L841.171 1091.66C843.48 1102.94 844.075 1099.2 841.359 1112.01C841.274 1112.41 841.676 1129.73 841.717 1131.29C841.339 1133.82 839.828 1140.07 836.556 1139.19C830.577 1137.19 831.282 1126.98 830.13 1122C828.232 1113.8 826.783 1108.61 823.586 1100.86ZM837.889 1134.66C841.694 1125.25 841.079 1113.93 834.554 1105.94C832.068 1112.61 830.635 1130.88 837.889 1134.66ZM828.329 1098.86C829.496 1098.53 830.348 1097.52 830.487 1096.32C830.625 1095.11 830.022 1093.94 828.96 1093.35C827.898 1092.77 826.586 1092.88 825.637 1093.63C824.521 1094.52 824.188 1096.08 824.842 1097.35C825.496 1098.62 826.955 1099.25 828.329 1098.86Z"/><path fill="#F8F2E9" fill-opacity="0.53725493" d="M834.554 1105.94C841.079 1113.93 841.694 1125.25 837.889 1134.66C830.635 1130.88 832.068 1112.61 834.554 1105.94Z"/><path fill="#F8F2E9" fill-opacity="0.53725493" d="M825.637 1093.63C826.586 1092.88 827.898 1092.77 828.96 1093.35C830.022 1093.94 830.625 1095.11 830.487 1096.32C830.348 1097.52 829.496 1098.53 828.329 1098.86C826.955 1099.25 825.496 1098.62 824.842 1097.35C824.188 1096.08 824.521 1094.52 825.637 1093.63Z"/><path fill="#FAF3EA" fill-opacity="0.69803923" d="M825.24 1081.91C833.463 1085.16 833.823 1085.82 841.034 1085.72C848.745 1085.62 845.904 1108.09 844 1111.97C843.623 1122.07 845.147 1122.41 841.717 1131.29C841.676 1129.73 841.274 1112.41 841.359 1112.01C844.075 1099.2 843.48 1102.94 841.171 1091.66L841.037 1091.71C841.02 1091.99 841.004 1092.28 840.987 1092.57C841.013 1093.01 841.039 1093.46 841.065 1093.91C840.787 1096.31 838.865 1099.35 837.484 1101.34C836.383 1102.06 834.707 1101 833.587 1101.67C832.637 1102.35 832.799 1103.63 832.322 1104.58C831.937 1105.34 830.433 1106.67 829.526 1105.9C828.605 1105.13 829.079 1103.19 829.865 1102.46C830.882 1101.51 832.211 1100.54 832.309 1099C832.641 1096.61 832.379 1093.88 830.862 1091.96C829.39 1090.1 826.707 1089.44 824.966 1091.3C823.94 1092.39 823.108 1093.92 823.282 1095.49C823.485 1097.32 823.517 1099.07 823.586 1100.86C818.926 1095.73 823.046 1087.53 825.24 1081.91Z"/><path fill="#2D3451" fill-opacity="0.98431373" d="M437.1 675.37C438.336 680.65 448.124 671.379 452.899 670.274C457.169 669.287 480.29 658.057 483.262 659.15C490.667 661.872 462.937 676.754 459.944 679.67C448.138 691.176 448.267 696.945 449.935 711.429C450.718 711.743 481.556 721.121 470.025 720.726C463.022 720.485 461.851 718.012 453.543 720.787C444.7 720.515 431.087 718.554 424.63 711.147C424.365 709.923 418.892 704.568 418.373 704.465C408.14 702.444 420.963 686.992 424.254 684.143C428.465 680.499 431.62 676.522 437.1 675.37Z"/><path fill="#2D3451" fill-opacity="0.97254902" d="M1986.8 250.495C1990.36 250.502 1993.03 249.792 1995.28 251.589C1994.57 254.141 1994.26 254.717 1993.16 257.048C1981.08 258.985 1954 269.936 1945.96 269.604C1942.63 269.517 1931.58 271.03 1929.81 273.147C1917.87 276.489 1895.87 282.568 1883.63 284.281C1881.73 284.303 1881.12 284.029 1879.84 285.24C1878.19 285.723 1860.55 289.475 1859.51 289.507C1847.58 289.866 1783.68 310.092 1778.27 307.857L1778.18 306.358C1784.01 301.23 1871.06 278.796 1885.84 274.43C1916.15 265.473 1955.7 259.964 1986.8 250.495Z"/><path fill="#F8F2E9" fill-opacity="0.10196079" d="M2021.66 250.587C2024.5 250.635 2025.58 250.912 2028.05 249.494C2032.73 256.772 2043.14 248.111 2047.51 253.51C2051.01 257.839 2053.43 255.935 2058.92 255.575L2058.62 256.997C2048.66 258.462 1994.08 279.284 1983.25 283.659C1978.65 283.472 1969.37 285.713 1966.11 283.825C1965.25 283.327 1968.12 274.788 1964.08 279.578L1962.84 277.09C1958.58 274.45 1948.34 279.198 1943.95 275.052L1945.7 272.497C1949.59 270.582 1954.25 271.348 1958.79 271.542C1972.76 260.665 1995.51 263.376 2006.13 253.168C2012.11 251.701 2015.95 253.268 2021.66 250.587ZM2022.71 268.427C2027.02 263.127 2020.56 264.098 2017.07 264.011C2012.93 269.384 2017.33 267.977 2022.71 268.427Z"/><path fill="#FAF3EA" fill-opacity="0.050980393" d="M2017.07 264.011C2020.56 264.098 2027.02 263.127 2022.71 268.427C2017.33 267.977 2012.93 269.384 2017.07 264.011Z"/><path fill="#FAF3EA" fill-opacity="0.25882354" d="M1993.16 257.048C1997.39 255.956 2001.14 254.375 2006.13 253.168C1995.51 263.376 1972.76 260.665 1958.79 271.542C1954.25 271.348 1949.59 270.582 1945.7 272.497L1943.95 275.052C1948.34 279.198 1958.58 274.45 1962.84 277.09L1964.08 279.578C1956.42 288.313 1953.81 282.029 1946.73 284.032C1941.23 285.587 1949.96 292.184 1952.49 291.06C1956.23 291.778 1957 290.942 1960.01 291.42C1959.53 291.71 1916.54 304.02 1914.54 304.302C1901.65 301.049 1899.24 294.383 1885.36 294.549C1880.67 294.628 1877.02 294.981 1872.54 293.539L1872.74 292.654C1880.48 289.68 1895.66 290.105 1899.03 283.441C1909.88 280.706 1920.42 278.208 1931.19 275.092C1937.59 273.484 1939.85 272.395 1945.96 269.604C1954 269.936 1981.08 258.985 1993.16 257.048ZM1922.85 290.914C1923.98 294.092 1929.03 299.651 1931.48 297.773C1930.19 295.907 1925.89 295.329 1927.63 290.375C1928.28 288.496 1932.3 288.921 1933.51 288.615C1945.75 285.538 1938.08 283.793 1929.57 284.508C1921.43 286.572 1917.03 289.845 1907.37 288.483C1906.83 288.407 1902.96 288.422 1902.7 288.711C1905.06 290.83 1922.59 286.081 1922.85 290.914ZM1939.68 297.207L1940.04 295.827C1941.39 291.141 1936.68 292.617 1933.7 292.82C1932.22 297.294 1936 296.65 1939.68 297.207ZM1910.65 299.729C1911.13 299.348 1916.84 295.287 1916.69 295.617C1916.37 294.744 1914.25 294.343 1913.47 294.055C1911.92 294.907 1909.41 295.678 1909 297.546C1908.78 298.525 1909.06 300.301 1910.3 300.432C1910.42 300.197 1910.53 299.963 1910.65 299.729ZM1917.99 303.19C1920.96 299.258 1919.52 299.683 1915.28 297.761C1910.71 301.001 1914.32 301.787 1917.99 303.19Z"/><path fill="#F8F2E9" fill-opacity="0.3019608" d="M1929.57 284.508C1938.08 283.793 1945.75 285.538 1933.51 288.615C1932.3 288.921 1928.28 288.496 1927.63 290.375C1925.89 295.329 1930.19 295.907 1931.48 297.773C1929.03 299.651 1923.98 294.092 1922.85 290.914C1922.59 286.081 1905.06 290.83 1902.7 288.711C1902.96 288.422 1906.83 288.407 1907.37 288.483C1917.03 289.845 1921.43 286.572 1929.57 284.508Z"/><path fill="#FAF3EA" fill-opacity="0.16078432" d="M1933.7 292.82C1936.68 292.617 1941.39 291.141 1940.04 295.827L1939.68 297.207C1936 296.65 1932.22 297.294 1933.7 292.82Z"/><path fill="#F8F2E9" fill-opacity="0.34901962" d="M1913.47 294.055C1914.25 294.343 1916.37 294.744 1916.69 295.617C1916.84 295.287 1911.13 299.348 1910.65 299.729C1910.53 299.963 1910.42 300.197 1910.3 300.432C1909.06 300.301 1908.78 298.525 1909 297.546C1909.41 295.678 1911.92 294.907 1913.47 294.055Z"/><path fill="#FAF3EA" fill-opacity="0.28627452" d="M1915.28 297.761C1919.52 299.683 1920.96 299.258 1917.99 303.19C1914.32 301.787 1910.71 301.001 1915.28 297.761Z"/><path fill="#1F233B" fill-opacity="0.98823529" d="M1228.94 778.763C1232.92 779.433 1234.44 778.698 1238.17 777.609L1239.66 778.359L1239.9 781.494C1218.23 797.047 1194.43 809.772 1171.18 822.85C1164.38 826.672 1143.63 838.941 1136.71 841.331L1135.44 840.247L1128.82 842.953C1128.19 841.665 1131.7 840.177 1131.94 839.343C1132.03 839.026 1132.48 835.814 1132.56 835.293C1158.07 814.713 1198.68 790.684 1228.94 778.763Z"/><path fill="#1F233B" fill-opacity="0.97647059" d="M1797.49 878.121C1797.1 888.492 1789.32 891.085 1794.66 902.915L1796.21 904.055C1793.09 906.765 1788.41 911.934 1785.57 915.548C1781.38 920.874 1770.06 928.443 1769.8 934.767C1769.79 935.004 1764.69 937.393 1763.59 937.871C1761.28 942.147 1760.49 948.137 1758.99 950.46C1747.67 967.965 1738 986.679 1727.43 1004.69C1723.59 1011.25 1719.07 1017.61 1716.25 1024.42C1712.76 1032.86 1709.09 1041.46 1705.2 1049.73C1703.13 1054.14 1696.93 1061.6 1695.97 1065.97C1695.98 1062.39 1695.25 1061.09 1696.51 1057.84C1698.88 1051.95 1700.75 1046.62 1697.81 1043.22C1695.36 1040.38 1709.08 1028.98 1705.74 1023.91C1712.36 1012.33 1724.34 1001.18 1730.49 990.908C1747.18 963.036 1761.39 936.271 1778.89 908.655C1781.37 904.652 1783.89 900.486 1786.25 896.42L1797.49 878.121Z"/><path fill="#FAF3EA" fill-opacity="0.17254902" d="M2130.92 222.269C2142.56 222.545 2156.39 222.259 2136.01 229.683C2123.72 230.597 2118.38 240.937 2108.9 236.222C2106.18 234.869 2100.67 234.073 2098.86 237.163C2098.79 239.877 2104.93 239.422 2105.53 241.238C2103.79 244.149 2095.05 243.984 2090.72 248.118C2086.18 249.325 2061.15 256.753 2058.62 256.997L2058.92 255.575C2060.9 254.459 2062.94 253.451 2064.89 252.292C2050.58 250.543 2041.37 245.542 2028.05 249.494C2025.58 250.912 2024.5 250.635 2021.66 250.587C2022.44 249.767 2024.35 247.937 2025.43 247.722C2042.51 244.346 2059.53 240.272 2076.15 235.09C2080.17 233.836 2083.09 233.913 2087.33 232.115C2090.58 231.288 2092.76 229.864 2095.83 228.906C2114.16 229.478 2113.88 226.02 2130.92 222.269ZM2082.64 248.642C2087.13 246.764 2086.36 245.429 2081.5 245.465C2068.38 245.564 2072.43 241.266 2057.21 242.561C2056.43 243.173 2054.3 244.703 2053.82 245.447C2056.41 247.616 2078.07 249.079 2082.64 248.642ZM2138.77 227.076C2148.95 223.062 2134.98 223.397 2132.23 223.469C2130.31 224.606 2129.87 224.795 2128.72 226.744L2128.82 227.303L2128.77 227.413C2130.86 229.697 2136.2 227.587 2138.77 227.076Z"/><path fill="#FAF3EA" fill-opacity="0.10196079" d="M2057.21 242.561C2072.43 241.266 2068.38 245.564 2081.5 245.465C2086.36 245.429 2087.13 246.764 2082.64 248.642C2078.07 249.079 2056.41 247.616 2053.82 245.447C2054.3 244.703 2056.43 243.173 2057.21 242.561Z"/><path fill="#F8F2E9" fill-opacity="0.019607844" d="M2132.23 223.469C2134.98 223.397 2148.95 223.062 2138.77 227.076C2136.2 227.587 2130.86 229.697 2128.77 227.413L2128.82 227.303L2128.72 226.744C2129.87 224.795 2130.31 224.606 2132.23 223.469Z"/><defs><linearGradient id="gradient_5" gradientUnits="userSpaceOnUse" x1="1056.8295" y1="1148.075" x2="1061.6097" y2="1155.101"><stop offset="0" stop-color="#12131E" stop-opacity="0.95294118"/><stop offset="1" stop-color="#2A3154"/></linearGradient></defs><path fill="url(#gradient_5)" d="M1107.64 1116.47C1114.26 1117.29 1115.47 1115.51 1121 1112.3L1121.57 1113.03C1115.22 1120.1 1108.93 1126.9 1099.22 1124.3C1096.57 1125.48 1097.18 1124.58 1096.31 1126.51L1099.24 1127.74C1098.65 1132.78 1036.5 1175.14 1029 1177.32L1024.77 1174.14L1022.48 1175L1022.03 1176.58L1025.1 1178.55C1024.14 1181.42 1019.66 1183.84 1016.86 1187.7L1003.69 1194.78C1006.6 1190.34 1006.03 1189.26 1006.79 1184.06C1013.93 1175.62 1072.71 1136.83 1083.73 1129.61C1090.94 1125.51 1100.29 1119.59 1107.64 1116.47Z"/><path fill="#F8F2E9" fill-opacity="0.83529413" d="M452.457 709.64C447.659 683.861 470.736 676.203 488.046 663.411C508.051 648.628 534.874 642.132 558.706 635.417C562.24 636.206 565.574 636.191 567.399 638.471C565.572 647.411 550.073 637.661 548.578 640.931C549.972 644.422 550.823 644.73 550.116 647.648C545.498 649.459 519.083 655.461 518.186 657.228C517.547 658.485 516.796 659.513 515.904 660.608C503.002 663.274 509.311 660.644 497.503 667.522C492.463 670.458 471.709 685.097 468.949 686.091L466.704 685.656L465.886 683.542C473.855 681.787 478.734 674.79 485.453 670.173C488.389 668.155 500.117 662.463 501.21 660.582C493.398 661.262 490.603 664.253 484.183 668.994C473.357 676.988 455.796 684.373 454.851 699.735C453.906 715.078 499.757 716.955 501.36 718.53C497.25 718.448 490.11 717.685 487.039 720.28C472.839 717.1 465.7 714.862 452.457 709.64ZM512.77 658.466C512.381 653.168 508.16 655.023 503.223 655.429C503.61 660.855 507.567 658.822 512.77 658.466Z"/><path fill="#FAF3EA" fill-opacity="0.7647059" d="M503.223 655.429C508.16 655.023 512.381 653.168 512.77 658.466C507.567 658.822 503.61 660.855 503.223 655.429Z"/><path fill="#14151D" fill-opacity="0.98431373" d="M1369.64 497.316C1368.1 500.883 1359.3 503.494 1355.1 505.219L1355.67 506.28C1359.57 505.419 1363.26 504.008 1367.18 503.325C1417.56 494.559 1466.45 476.274 1515.19 461.147C1529.87 456.593 1544.85 453.169 1559.51 448.528C1595.71 436.996 1631.63 424.561 1667.22 411.235L1725.45 389.753C1731.82 387.38 1749.58 379.114 1755.23 380.439C1690.23 406.435 1624.3 430.028 1557.57 451.168C1542.16 455.989 1526.44 459.81 1511.02 464.584C1483.85 472.992 1456.98 482.256 1429.63 490.107C1414.43 494.47 1359.07 506.682 1350.45 512.181C1345.44 505.485 1337.78 513.971 1328.49 510.357C1343.87 507.68 1355.08 502.828 1369.64 497.316Z"/><path fill="#14151D" fill-opacity="0.98431373" d="M1132.56 835.293C1132.48 835.814 1132.03 839.026 1131.94 839.343C1131.7 840.177 1128.19 841.665 1128.82 842.953L1135.44 840.247L1136.71 841.331C1128.43 846.936 1118.01 850.267 1110.46 855.016C1088.28 868.97 1067.64 883.378 1044.69 896.251C1038.96 899.467 1014.5 912.976 1011.03 916.094C1005.54 919.197 1002.21 921.252 997.105 924.917C991.261 941.439 987.378 958.537 982.583 975.373C971.798 1013.25 962.292 1051.41 950.903 1089.11C949.536 1093.63 948.601 1098.69 947.051 1103.09C944.767 1100.98 946.041 1101.49 943.331 1101.05C941.014 1102.36 939.648 1103.05 937.081 1103.75C941.11 1098.8 942.981 1097.13 947.864 1092.93C959.475 1046.58 973.328 1000.04 985.805 953.876C989.149 941.502 992.432 927.868 996.716 915.908C997.455 916.178 1000.4 917.194 1000.91 917.196C1004.94 917.207 1016.02 909.636 1019.84 907.515C1049.04 891.307 1077.73 874.574 1104.8 854.956C1113.62 848.562 1122.91 843.379 1131.48 836.205L1132.56 835.293Z"/><path fill="#FAF3EA" fill-opacity="0.56470591" d="M2090.72 248.118C2093.64 246.86 2103.16 243.694 2106 245.287C2088.72 251.662 2070.29 254.406 2054.29 260.212C2018.1 273.344 1982.51 288.221 1945.41 298.916C1937.28 301.26 1924.12 305.978 1916.32 307.575C1908.28 305.334 1898.62 313.276 1888.03 308.729C1873.53 302.505 1877.51 315.511 1867.9 300.752C1861.69 300.304 1849.07 300.927 1844.98 297.242C1856.86 292.121 1861.73 298.739 1870.48 289.529C1879.53 287.891 1890.07 285.556 1899.03 283.441C1895.66 290.105 1880.48 289.68 1872.74 292.654L1872.54 293.539C1877.02 294.981 1880.67 294.628 1885.36 294.549C1905.83 303.001 1878.29 298.984 1873.63 302.47C1873.57 302.747 1873.51 303.153 1873.58 303.426C1877.28 305.711 1883.89 304.157 1886 305.389C1891.33 308.496 1900.33 310.583 1905.53 305.428C1905.53 304.968 1905.45 305.056 1905.21 304.636L1905.21 304.51C1906.81 303.987 1910.94 305.076 1914.54 304.302C1916.54 304.02 1959.53 291.71 1960.01 291.42C1962.35 290.492 1966.87 288.413 1969.01 287.79C1973.32 286.529 1976.84 287.067 1981.27 284.728L1983.25 283.659C1994.08 279.284 2048.66 258.462 2058.62 256.997C2061.15 256.753 2086.18 249.325 2090.72 248.118Z"/><path fill="#FAF3EA" fill-opacity="0.73725492" d="M1714.62 325.588C1768.27 315.268 1817.56 300.961 1870.48 289.529C1861.73 298.739 1856.86 292.121 1844.98 297.242C1842.59 297.705 1838.45 298.965 1842.97 300.924C1844.76 301.7 1870.33 299.003 1859.49 306.327C1858.35 307.092 1848 307.327 1846 307.163L1846.63 304.595C1841.78 301.537 1843.6 305.746 1838.71 301.428C1829.27 303.012 1816.2 301.733 1809.72 307.118C1810.4 309.799 1810.96 309.413 1813.81 311.587C1812.64 312.664 1809.37 315.159 1807.51 314.268C1799.73 310.541 1791.06 319.867 1789.77 319.562C1780.62 317.395 1771.16 320.913 1761.51 324.553C1759.98 325.128 1745.44 324.758 1743.02 324.492C1734.16 323.907 1729.65 326.537 1720.18 326.642C1724.87 329.575 1733.82 326.809 1735.96 328.571C1728.41 332.406 1721.39 329.018 1714.62 325.588Z"/><defs><linearGradient id="gradient_6" gradientUnits="userSpaceOnUse" x1="916.09637" y1="536.43628" x2="913.73596" y2="527.65887"><stop offset="0" stop-color="#292E45" stop-opacity="0.96078432"/><stop offset="1" stop-color="#323959"/></linearGradient></defs><path fill="url(#gradient_6)" d="M857.984 542.547C858.956 542.478 870.622 538.884 872.515 538.339C888.869 533.76 907.349 528.054 923.813 524.829C928.03 524.003 968.838 516.116 968.999 516.172C966.637 519.451 967.62 518.388 964.044 519.678C949.908 524.778 932.251 529.719 918.814 535.62L918.921 537.559C918.027 537.992 917.229 538.368 916.317 538.774C906.991 536.031 869.982 550.804 857.819 547.084C861.598 546.482 860.872 547.207 862.759 544.92L862.09 543.464L857.984 542.547Z"/><path fill="#14151D" fill-opacity="0.98823529" d="M997.267 983.614C999.171 984.402 999.272 984.498 1001.26 984.772C996.264 989.487 985.3 1019.88 982.291 1027.69C962.818 1080.39 939.951 1132.62 919.406 1184.95C916.175 1193.19 914.111 1201.48 911.149 1209.4C908.214 1196.23 931.462 1149.25 934.66 1134.09C935.102 1131.99 937.09 1125.86 938.324 1124.18L940.362 1126.06L941.375 1124.29C960.511 1077.6 979.143 1030.7 997.267 983.614Z"/><path fill="#2B314D" fill-opacity="0.97254902" d="M2046 234.981C2048.92 233.479 2072 228.514 2076.1 228.027C2082.1 230.693 2085.89 227.357 2087.33 232.115C2083.09 233.913 2080.17 233.836 2076.15 235.09C2059.53 240.272 2042.51 244.346 2025.43 247.722C2024.35 247.937 2022.44 249.767 2021.66 250.587C2015.95 253.268 2012.11 251.701 2006.13 253.168C2001.14 254.375 1997.39 255.956 1993.16 257.048C1994.26 254.717 1994.57 254.141 1995.28 251.589C1993.03 249.792 1990.36 250.502 1986.8 250.495C1994.46 249.243 2044.42 239.804 2047.61 236.478L2046 234.981Z"/><defs><linearGradient id="gradient_7" gradientUnits="userSpaceOnUse" x1="1674.6896" y1="1074.8461" x2="1682.605" y2="1079.9963"><stop offset="0" stop-color="#191B2C" stop-opacity="0.95294118"/><stop offset="1" stop-color="#272D4C"/></linearGradient></defs><path fill="url(#gradient_7)" d="M1687.34 1053.98C1689.86 1056.51 1689.3 1053.63 1691.35 1051.63L1691.81 1051.6C1692.9 1052.57 1690.12 1057.91 1690.29 1057.74C1687.34 1060.62 1688.68 1067.7 1691.82 1061.63C1693.44 1058.5 1693.12 1058.46 1696.51 1057.84C1695.25 1061.09 1695.98 1062.39 1695.97 1065.97C1695.9 1067.99 1679.71 1096.24 1677.34 1097.13C1673.31 1093.79 1673.76 1099.54 1669.98 1100.51C1667.4 1101.17 1664.25 1095.2 1667.91 1094.01C1668.89 1093.7 1667.29 1088.09 1667.09 1087.44C1670.93 1080.64 1683.45 1059.32 1687.34 1053.98Z"/><path fill="#D9CFC0" fill-opacity="0.83529413" d="M2070.12 271.238C2082.45 268.757 2108.96 257.706 2121.82 254.236C2128.36 252.474 2134.51 248.893 2141.96 248.132C2133.14 254.942 2102.51 267.221 2088.97 275.455L2084.22 277.26C2071.33 276.322 2058.49 287.72 2048.78 281.584L2047.94 279.366C2053.68 276.766 2063.31 273.976 2070.12 271.238ZM2079.32 275.417C2091.22 269.067 2079.02 271.281 2074.74 271.84C2065.59 277.45 2070.51 276.476 2079.32 275.417Z"/><path fill="#AEA193" fill-opacity="0.81960785" d="M2074.74 271.84C2079.02 271.281 2091.22 269.067 2079.32 275.417C2070.51 276.476 2065.59 277.45 2074.74 271.84Z"/><path fill="#FAF3EA" fill-opacity="0.87450981" d="M628.933 620.326C651.283 612.658 676.16 607.08 698.783 597.788C705.957 594.841 718.465 587.085 723.815 586.085C724.906 587.845 725.494 588.213 727.245 589.305C726.511 592.131 726.143 592.193 723.641 593.66C713.765 599.453 637.622 625.5 628.955 624.838C629.964 622.489 628.988 622.723 626.615 623.114L625.292 622.59L625.666 623.159L625.246 622.826L625.27 622.555C626.295 621.462 628.118 624.204 628.933 620.326Z"/><path fill="#1F233B" fill-opacity="0.96862745" d="M1667.09 1087.44C1667.29 1088.09 1668.89 1093.7 1667.91 1094.01C1664.25 1095.2 1667.4 1101.17 1669.98 1100.51C1673.76 1099.54 1673.31 1093.79 1677.34 1097.13C1671.51 1108.44 1660.18 1117.87 1653.14 1127.78C1645.96 1137.87 1622.85 1166.5 1622.51 1177.5C1618.14 1167.79 1623.99 1171.75 1623.46 1161.79C1625.27 1157.3 1636.75 1143.54 1640.35 1138.15C1645.39 1130.61 1648.62 1124.65 1652.96 1116.62C1654.99 1111.87 1656.89 1108.27 1659.45 1103.8C1662.06 1096.84 1663.44 1093.91 1667.09 1087.44Z"/><path fill="#FAF3EA" fill-opacity="0.71372551" d="M1848.11 329.385C1844.32 328.848 1840.7 329.079 1837.03 330.18C1836.6 330.308 1835.61 331.256 1835.14 330.477C1835.39 330.13 1835.63 329.783 1835.87 329.436C1835.62 328.212 1834.2 326.932 1833.64 325.939C1832.12 323.271 1839.21 321.396 1840.49 321.506C1843.16 321.734 1847.36 320.656 1849.37 322.37C1850.17 323.072 1851.34 324.767 1852.71 323.726C1853.4 318.3 1845.67 319.068 1845.37 316.253C1845.74 316.11 1846.12 315.967 1846.49 315.824L1846.49 315.593C1844.21 312.597 1842.3 310.229 1845.73 307.973C1855.14 319.279 1862.19 303.447 1871.07 314.889C1872.9 317.253 1886.09 314.871 1887.56 312.023C1890.1 309.785 1899.33 310.69 1902.2 311.393C1889.8 315.41 1877.72 319.303 1865.4 323.661C1860.89 325.257 1852.62 328.44 1848.11 329.385Z"/><path fill="#FAF3EA" fill-opacity="0.90196079" d="M916.317 538.774C918.579 541.489 919.829 538.736 921.29 539.388C921.332 539.669 918.573 542.344 917.965 543.86C908.329 546.792 902.202 545.464 892.511 546.167C890.775 546.293 883.311 548.093 880.502 548.564C884.184 549.275 889.183 548.797 893.047 548.627C890.491 550.631 837.524 558.214 834.106 560.427C834.818 561.01 835.93 561.525 836.784 561.987C833.485 564.049 812.6 569.703 807.889 570.146C804.009 570.511 795.141 568.445 791.169 567.533L790.391 567.353C802.175 567.752 837.625 556.579 850.901 552.765C855.873 552.658 909.479 540.517 916.317 538.774Z"/><path fill="#F8F2E9" fill-opacity="0.86274511" d="M623.53 733.2C630.391 734.198 635.886 729.729 641.791 730.38C658.871 732.265 675.583 737.644 692.738 739.041C694.809 739.218 702.85 739.607 703.579 740.872C704.84 741.014 707.032 741.179 708.173 741.481C704.384 743.306 700.709 745.088 696.846 746.759C696.407 746.315 695.969 745.87 695.53 745.425C693.171 743.012 686.557 742.829 683.918 744.48C683.178 744.943 683.59 746.45 684.227 746.824C686.707 748.669 690.732 748.335 693.728 748.687C687.592 751.142 670.912 744.313 663.713 742.213C650.519 738.374 637.099 735.364 623.53 733.2Z"/><path fill="#FAF3EA" fill-opacity="0.87058824" d="M723.667 766.275C737.84 758.387 735.56 760.348 749.987 754.487L750.28 755.302C751.343 758.112 746.756 757.718 747.826 759.475L747.958 759.486L748.497 758.564L749.736 759.286L750.155 759.271L750.296 759.429C748.55 762.482 733.412 765.599 740.355 774.553C743.562 778.687 735.376 795.155 730.636 798.388C728.586 787.554 725.807 777.308 723.667 766.275ZM732.446 779.209C734.055 776.689 734.173 775.512 734.365 772.528C734.777 766.132 737.8 765.924 730.816 763.421C724.51 768.889 727.777 772.745 732.446 779.209Z"/><path fill="#FAF3EA" fill-opacity="0.60392159" d="M730.816 763.421C737.8 765.924 734.777 766.132 734.365 772.528C734.173 775.512 734.055 776.689 732.446 779.209C727.777 772.745 724.51 768.889 730.816 763.421Z"/><path fill="#FAF3EA" fill-opacity="0.76862746" d="M2175.28 210.419C2178.28 218.474 2176.3 213.833 2186.21 215.35C2169.48 223.118 2138.89 232.239 2119.75 239.474C2125.09 234.792 2129.2 233.397 2135.63 231.049C2145.15 229.315 2149.5 224.096 2158.5 222.54C2162.18 221.903 2168.04 219.621 2171.65 218.321C2165.11 217 2157.22 214.88 2151 219.008C2145.47 222.683 2139.39 219.66 2130.92 222.269C2113.88 226.02 2114.16 229.478 2095.83 228.906L2101.39 225.69C2104.24 225.939 2106.02 225.258 2108.79 224.688C2111.84 224.179 2114.99 223.705 2117.91 222.666C2123.91 221.639 2131.19 219.453 2137.51 218.126C2149.91 215.523 2163 213.221 2175.28 210.419Z"/><path fill="#FAF3EA" fill-opacity="0.79607844" d="M1650.74 342.54C1658.16 340.058 1665.51 337.394 1672.8 334.553C1677.99 335.701 1679.1 335.316 1683.02 338.404L1682.68 339.986C1678.08 342.246 1673.28 342.03 1668.89 343.747C1660.23 347.14 1656.2 350.769 1646.28 350.548C1644.41 349.429 1644.21 349.544 1643.11 347.724C1625.07 351.916 1589.47 372.494 1578.42 369.27C1588.09 365.762 1597.7 362.077 1607.25 358.217L1609.82 356.886C1615.32 355.667 1638.72 346.66 1645.27 344.277C1648.47 350.29 1669.4 347.184 1650.74 342.54Z"/><path fill="#2B314D" fill-opacity="0.97647059" d="M857.984 542.547L862.09 543.464L862.759 544.92C860.872 547.207 861.598 546.482 857.819 547.084C869.982 550.804 906.991 536.031 916.317 538.774C909.479 540.517 855.873 552.658 850.901 552.765C842.079 550.398 811.507 562.81 797.578 563.532C814.015 557.813 842.632 548.807 857.322 542.822L857.984 542.547Z"/><path fill="#FAF3EA" fill-opacity="0.627451" d="M1846 307.163C1848 307.327 1858.35 307.092 1859.49 306.327C1870.33 299.003 1844.76 301.7 1842.97 300.924C1838.45 298.965 1842.59 297.705 1844.98 297.242C1849.07 300.927 1861.69 300.304 1867.9 300.752C1877.51 315.511 1873.53 302.505 1888.03 308.729C1898.62 313.276 1908.28 305.334 1916.32 307.575C1911.73 309.268 1906.96 310.323 1902.2 311.393C1899.33 310.69 1890.1 309.785 1887.56 312.023C1886.09 314.871 1872.9 317.253 1871.07 314.889C1862.19 303.447 1855.14 319.279 1845.73 307.973L1846 307.163Z"/><path fill="#F8F2E9" fill-opacity="0.074509807" d="M1738.05 301.807C1748.49 302.181 1758.53 303.235 1769.13 303.731C1760.26 306.935 1749.44 309.151 1740.3 312.313C1731.62 315.319 1724.86 319.44 1715.63 321.335C1718.1 318.933 1724.83 314.973 1723.89 313.974C1720.38 310.273 1719.4 315.185 1719.37 308.34C1720.41 306.863 1728.59 307.46 1731.54 306.183L1731.57 306.073C1732.1 305.509 1737.1 302.384 1738.05 301.807Z"/><path fill="#FAF3EA" fill-opacity="0.83137256" d="M566.83 632.285C577.215 630.439 585.863 629.466 595.989 627.883C606.77 626.198 617.633 622.331 628.933 620.326C628.118 624.204 626.295 621.462 625.27 622.555L625.246 622.826L625.666 623.159L625.292 622.59L626.615 623.114C628.988 622.723 629.964 622.489 628.955 624.838C622.182 626.136 614.881 630.33 607.517 630.656C604.295 630.799 599.483 631.407 597.314 633.38C595.691 634.602 587.317 636.582 585.011 636.59C574.386 636.626 574.5 638.205 566.83 632.285Z"/><path fill="#FAF3EA" fill-opacity="0.85882354" d="M1157.57 467.849C1178.16 461.749 1200.46 454.281 1221.42 449.795C1221.13 450.729 1220.38 452.52 1220.74 453.444C1221.31 453.889 1222.09 453.781 1222.46 454.158L1222.49 454.336C1216.85 458.019 1208.85 454.578 1203.29 459.373C1201.31 461.088 1193.27 462.706 1190.74 462.609C1185.6 462.297 1182.98 465.106 1178.59 467.301C1175.23 468.983 1172.53 468.578 1169.02 469.364C1165.02 472.026 1166.19 472.916 1160.47 474.116C1155.37 473.96 1153.17 474.719 1148.99 471.747L1149.82 470.786C1152.93 471.588 1160.73 474.361 1163.24 470.468C1162.64 468.685 1159.18 468.293 1157.57 467.849Z"/><path fill="#1F233B" fill-opacity="0.97647059" d="M959.818 1217.04C964.275 1213.99 968.531 1209.03 972.664 1206.63C984.224 1199.9 995.252 1190.46 1006.79 1184.06C1006.03 1189.26 1006.6 1190.34 1003.69 1194.78C998.197 1198.31 966.339 1216.74 961.697 1218.2L959.818 1217.04Z"/><path fill="#D9CFC0" fill-opacity="0.78431374" d="M911.07 1235.55C914.092 1235.96 916.347 1236.39 919.12 1237.86C920.264 1242.11 913.468 1241.33 913.09 1242.54C909.753 1253.22 902.63 1246.68 902.454 1259.82C901.393 1261.01 901.203 1261.25 899.785 1262.07C897.359 1260.35 895.293 1260.09 893.113 1258.33L892.076 1257.52C894.245 1252.14 896.008 1245.75 898.572 1240.7C900.434 1239.99 902.518 1238.52 904.349 1238.49C907.701 1238.52 908.037 1242.06 910.453 1242.7C912.396 1242.04 912.13 1240.1 914.495 1239.98C921.172 1239.63 912.845 1237.31 911.07 1235.55ZM898.513 1258.05C900.028 1258.13 901.31 1256.95 901.366 1255.43C901.423 1253.92 900.232 1252.65 898.716 1252.6C897.221 1252.56 895.971 1253.73 895.915 1255.23C895.859 1256.72 897.018 1257.98 898.513 1258.05Z"/><path fill="#D9CFC0" fill-opacity="0.72549021" d="M898.716 1252.6C900.232 1252.65 901.423 1253.92 901.366 1255.43C901.31 1256.95 900.028 1258.13 898.513 1258.05C897.018 1257.98 895.859 1256.72 895.915 1255.23C895.971 1253.73 897.221 1252.56 898.716 1252.6Z"/><path fill="#14151D" fill-opacity="0.89803922" d="M2119.48 218.239L2120.06 218.079C2139.58 212.865 2161.2 210.507 2180.7 204.891C2184.03 205.626 2187.89 205.741 2191.32 205.899C2186.2 207.456 2180.08 208.697 2175.28 210.419C2163 213.221 2149.91 215.523 2137.51 218.126C2131.19 219.453 2123.91 221.639 2117.91 222.666C2118.49 220.545 2118.56 220.269 2119.48 218.239Z"/><path fill="#14151D" fill-opacity="0.98823529" d="M980.726 643.474C980.077 649.866 968.508 649.198 978.546 652.301C964.135 656.434 959.697 663.172 944.758 667.021C943.997 663.913 947.934 664.609 947.647 662.165C945.205 660.123 910.064 673.079 905.356 670.49C921.613 665.828 937.927 662.165 954.176 657.262C966.155 653.648 970.43 648.709 980.726 643.474Z"/><path fill="#D9CFC0" fill-opacity="0.9254902" d="M2028.71 286.678C2026.06 291.122 2018.8 290.962 2018.48 293.119C2017.2 294.33 1998.92 305.695 1997.16 306.416C1986.83 306.044 1988.53 310.028 1980.84 304.267L1980.22 303.818C1995.05 298.849 2014.25 290.63 2028.71 286.678ZM1992.68 305.738C1996.29 301.201 1991.52 302.221 1987.3 301.788L1986.69 302.768C1983.63 306.715 1990.34 305.655 1992.68 305.738Z"/><path fill="#D9CFC0" fill-opacity="0.88627452" d="M1987.3 301.788C1991.52 302.221 1996.29 301.201 1992.68 305.738C1990.34 305.655 1983.63 306.715 1986.69 302.768L1987.3 301.788Z"/><path fill="#D9CFC0" fill-opacity="0.94117647" d="M911.07 1235.55C910.968 1231.51 910.177 1225.63 912.855 1222.17C913.473 1221.37 914.675 1221.64 915.112 1222.56C916.868 1226.26 914.966 1232.28 919.946 1233.67C920.602 1233.85 924.605 1237.05 924.602 1237.58C924.592 1239.55 923.504 1241.34 923.342 1243.54C921.772 1245.07 904.619 1258.35 902.454 1259.82C902.63 1246.68 909.753 1253.22 913.09 1242.54C913.468 1241.33 920.264 1242.11 919.12 1237.86C916.347 1236.39 914.092 1235.96 911.07 1235.55Z"/><defs><linearGradient id="gradient_8" gradientUnits="userSpaceOnUse" x1="1890.4159" y1="309.07166" x2="1887.3251" y2="298.00067"><stop offset="0" stop-color="#FCF2EA" stop-opacity="0.4509804"/><stop offset="1" stop-color="#F8F4EA" stop-opacity="0.51764709"/></linearGradient></defs><path fill="url(#gradient_8)" d="M1885.36 294.549C1899.24 294.383 1901.65 301.049 1914.54 304.302C1910.94 305.076 1906.81 303.987 1905.21 304.51L1905.21 304.636C1905.45 305.056 1905.53 304.968 1905.53 305.428C1900.33 310.583 1891.33 308.496 1886 305.389C1883.89 304.157 1877.28 305.711 1873.58 303.426C1873.51 303.153 1873.57 302.747 1873.63 302.47C1878.29 298.984 1905.83 303.001 1885.36 294.549Z"/><path fill="#F8F2E9" fill-opacity="0.88627452" d="M937.56 531.273C948.365 527.353 974.994 520.053 983.896 514.57C994.608 522.112 977.844 519.943 974.029 525.035C970.313 529.996 956.42 526.535 952.948 530.94C952.329 531.717 950.367 532.529 949.268 532.729C942.99 532.671 942.261 533.997 937.56 531.273Z"/><path fill="#AEA193" fill-opacity="0.98823529" d="M1734.95 503.792C1734.22 509.128 1730.65 505.874 1734.04 509.794C1726.82 514.372 1680.36 537.716 1673.01 539.336C1677.05 536.287 1689.34 529.486 1694.38 526.76C1707.7 519.559 1721.74 510.773 1734.95 503.792Z"/><path fill="#302C2D" fill-opacity="0.86666667" d="M2192.74 201.357C2206.46 198.333 2241.59 186.845 2253.99 188.579C2252.11 189.731 2251.4 189.13 2249.94 190.018C2249.87 190.198 2249.75 190.309 2249.84 190.482C2250.02 190.832 2250.94 191.026 2251.06 191.072C2242.87 194.018 2231.05 195.666 2221.99 198.516C2219.37 197.406 2212.91 197.204 2211.6 199.364L2211.66 199.588C2212.41 199.995 2213.29 200.043 2214.12 200.226L2214.09 200.749C2208.69 201.672 2204.26 203.032 2198.99 204.328C2198.64 204.365 2198.29 204.402 2197.93 204.439C2196.23 203.372 2194.5 202.344 2192.74 201.357Z"/><path fill="#1F233B" fill-opacity="0.98823529" d="M1978.32 303.368C1978.83 300.775 2055.37 273.949 2064.22 271.39C2066.16 270.828 2068.13 270.796 2070.12 271.238C2063.31 273.976 2053.68 276.766 2047.94 279.366C2044.36 280.661 2031.31 285.126 2028.71 286.678C2014.25 290.63 1995.05 298.849 1980.22 303.818L1978.32 303.368Z"/><path fill="#D9CFC0" fill-opacity="0.86666667" d="M839.913 1190.07C851.454 1192.42 843.032 1188.47 853.386 1185.57C858.533 1184.13 859.158 1184.46 862.567 1189.02C859.989 1191.34 846.206 1204.32 844.711 1204.68C843.573 1204.24 842.692 1199.95 842.396 1198.9C842.012 1195.61 840.965 1193.22 839.913 1190.07ZM855.845 1193.51C856.679 1192.73 857.005 1191.55 856.69 1190.45C856.374 1189.35 855.471 1188.52 854.351 1188.31C853.231 1188.09 852.083 1188.51 851.378 1189.41C850.399 1190.66 850.546 1192.45 851.717 1193.53C852.887 1194.6 854.686 1194.59 855.845 1193.51Z"/><path fill="#D9CFC0" fill-opacity="0.74117649" d="M851.378 1189.41C852.083 1188.51 853.231 1188.09 854.351 1188.31C855.471 1188.52 856.374 1189.35 856.69 1190.45C857.005 1191.55 856.679 1192.73 855.845 1193.51C854.686 1194.59 852.887 1194.6 851.717 1193.53C850.546 1192.45 850.399 1190.66 851.378 1189.41Z"/><path fill="#FAF3EA" fill-opacity="0.58823532" d="M2197.93 204.439C2198.29 204.402 2198.64 204.365 2198.99 204.328C2203.18 204.565 2208.43 203.017 2208.6 207.821C2202.71 209.962 2192.15 214.015 2186.21 215.35C2176.3 213.833 2178.28 218.474 2175.28 210.419C2180.08 208.697 2186.2 207.456 2191.32 205.899C2193.91 205.577 2195.43 205.1 2197.93 204.439Z"/><path fill="#F8F2E9" fill-opacity="0.14509805" d="M1964.08 279.578C1968.12 274.788 1965.25 283.327 1966.11 283.825C1969.37 285.713 1978.65 283.472 1983.25 283.659L1981.27 284.728C1976.84 287.067 1973.32 286.529 1969.01 287.79C1966.87 288.413 1962.35 290.492 1960.01 291.42C1957 290.942 1956.23 291.778 1952.49 291.06C1949.96 292.184 1941.23 285.587 1946.73 284.032C1953.81 282.029 1956.42 288.313 1964.08 279.578Z"/><defs><linearGradient id="gradient_9" gradientUnits="userSpaceOnUse" x1="1690.2456" y1="1050.235" x2="1696.2699" y2="1053.5022"><stop offset="0" stop-color="#121522" stop-opacity="0.97647059"/><stop offset="1" stop-color="#29304E"/></linearGradient></defs><path fill="url(#gradient_9)" d="M1705.74 1023.91C1709.08 1028.98 1695.36 1040.38 1697.81 1043.22C1700.75 1046.62 1698.88 1051.95 1696.51 1057.84C1693.12 1058.46 1693.44 1058.5 1691.82 1061.63C1688.68 1067.7 1687.34 1060.62 1690.29 1057.74C1690.12 1057.91 1692.9 1052.57 1691.81 1051.6L1691.35 1051.63C1689.3 1053.63 1689.86 1056.51 1687.34 1053.98C1688.85 1049.56 1692.79 1044.41 1695.31 1040.29C1697.29 1036.97 1699.26 1033.94 1701.24 1030.67C1702.79 1028.36 1704.12 1026.23 1705.74 1023.91Z"/><path fill="#F8F2E9" fill-opacity="0.39607844" d="M2090.72 248.118C2095.05 243.984 2103.79 244.149 2105.53 241.238C2104.93 239.422 2098.79 239.877 2098.86 237.163C2100.67 234.073 2106.18 234.869 2108.9 236.222C2118.38 240.937 2123.72 230.597 2136.01 229.683L2135.63 231.049C2129.2 233.397 2125.09 234.792 2119.75 239.474C2116.91 241.285 2109.31 244.172 2106 245.287C2103.16 243.694 2093.64 246.86 2090.72 248.118Z"/><path fill="#FAF3EA" fill-opacity="0.43921569" d="M2130.92 222.269C2139.39 219.66 2145.47 222.683 2151 219.008C2157.22 214.88 2165.11 217 2171.65 218.321C2168.04 219.621 2162.18 221.903 2158.5 222.54C2149.5 224.096 2145.15 229.315 2135.63 231.049L2136.01 229.683C2156.39 222.259 2142.56 222.545 2130.92 222.269Z"/><path fill="#FAF3EA" fill-opacity="0.070588239" d="M2028.05 249.494C2041.37 245.542 2050.58 250.543 2064.89 252.292C2062.94 253.451 2060.9 254.459 2058.92 255.575C2053.43 255.935 2051.01 257.839 2047.51 253.51C2043.14 248.111 2032.73 256.772 2028.05 249.494Z"/><path fill="#FAF3EA" fill-opacity="0.96470588" d="M833.515 1161.72C842.32 1151.57 837.725 1154.39 843.055 1143.67C842.833 1147.26 841.833 1162.2 841.14 1165.16C836.672 1171.4 838.08 1175.86 837.891 1183.29C835.441 1173.11 834.862 1172.82 833.515 1161.72Z"/><path fill="#F8F2E9" fill-opacity="0.65098041" d="M2251.06 191.072C2251.9 191.213 2252.75 191.316 2253.54 191.587C2253.54 192.322 2250.71 193.165 2250.22 193.367C2240.73 197.224 2230.64 199.982 2221.11 203.669C2218.77 202.666 2216.37 201.898 2214.09 200.749L2214.12 200.226C2217.76 199.846 2218.52 199.469 2221.99 198.516C2231.05 195.666 2242.87 194.018 2251.06 191.072Z"/><path fill="#FAF3EA" fill-opacity="0.81568629" d="M2177.7 324.49C2162.86 314.454 2176.84 305.216 2185.64 313.441C2183.25 316.961 2180.25 321.021 2177.7 324.49Z"/><path fill="#F8F2E9" fill-opacity="0.91764706" d="M918.921 537.559C924.547 535.882 932.245 532.304 937.56 531.273C942.261 533.997 942.99 532.671 949.268 532.729C942.84 535.15 939.43 533.342 934.208 537.415C934.972 536.819 917.271 543.976 917.965 543.86C918.573 542.344 921.332 539.669 921.29 539.388C919.829 538.736 918.579 541.489 916.317 538.774C917.229 538.368 918.027 537.992 918.921 537.559Z"/><path fill="#F8F2E9" fill-opacity="0.7647059" d="M2199.71 295.024C2197.77 294.82 2192.76 295.038 2192 292.498C2189.01 282.477 2200.22 277.687 2204.11 289.64C2202.81 291.298 2201.13 293.529 2199.71 295.024Z"/><path fill="#FAF3EA" fill-opacity="0.89411765" d="M1147.84 471.714L1148.99 471.747C1153.17 474.719 1155.37 473.96 1160.47 474.116C1150.62 476.031 1140.73 483.104 1130.82 476.265C1136.44 477.172 1142.33 474.176 1147.84 471.714Z"/><path fill="#F8F2E9" fill-opacity="0.85882354" d="M2166.75 340.145C2165.37 338.19 2162.1 336.192 2161.76 334.565C2159.78 325.164 2169.19 328.044 2173.52 330.473C2172.15 332.396 2167.82 338.995 2166.75 340.145Z"/><path fill="#1F233B" fill-opacity="0.98823529" d="M1418.69 477.466C1423.41 474.883 1449.08 465.172 1454.72 463.437C1451.99 468.952 1425.51 477.856 1418.69 477.466Z"/><path fill="#FAF3EA" fill-opacity="0.72156864" d="M2189.44 308.474C2173.85 305.078 2186.34 290.651 2193.73 302.963C2192.35 304.876 2190.98 306.688 2189.44 308.474Z"/><path fill="#F8F2E9" fill-opacity="0.9137255" d="M2136.68 388.058C2134.45 386.128 2129.73 383.281 2130.79 379.941C2132.46 374.711 2139.46 377.656 2142.56 378.141C2140.28 381.461 2138.63 384.615 2136.68 388.058Z"/><path fill="#FAF3EA" fill-opacity="0.87058824" d="M2037.53 519.227C2035.36 509.029 2037.09 503.567 2048.01 505.684C2044.44 510.439 2041.53 514.783 2037.53 519.227Z"/><path fill="#14151D" fill-opacity="0.8392157" d="M2080.53 227.319C2088.29 227.177 2092.94 224.558 2101.39 225.69L2095.83 228.906C2092.76 229.864 2090.58 231.288 2087.33 232.115C2085.89 227.357 2082.1 230.693 2076.1 228.027C2077.69 227.729 2078.92 227.486 2080.53 227.319Z"/><path fill="#D9CFC0" fill-opacity="0.92156863" d="M892.076 1257.52L893.113 1258.33C895.293 1260.09 897.359 1260.35 899.785 1262.07C894.744 1266.31 889.565 1270.38 884.256 1274.28C888.042 1267.43 889.507 1264.98 892.076 1257.52Z"/><path fill="#F8F2E9" fill-opacity="0.8509804" d="M1695.31 1040.29C1684.57 1034.78 1692.7 1026.57 1701.24 1030.67C1699.26 1033.94 1697.29 1036.97 1695.31 1040.29Z"/><path fill="#302C2D" fill-opacity="0.97254902" d="M2080.53 227.319C2086.41 224.664 2098.73 222.222 2105.16 221.361C2105.79 221.647 2106.34 221.811 2106.81 222.239C2106.9 224.14 2107.02 223.796 2108.79 224.688C2106.02 225.258 2104.24 225.939 2101.39 225.69C2092.94 224.558 2088.29 227.177 2080.53 227.319Z"/><path fill="#FAF3EA" fill-opacity="0.87450981" d="M2072.61 473.222C2066.28 463.981 2069.46 460.426 2079.86 463.905C2077.41 466.979 2075.05 470.221 2072.61 473.222Z"/><path fill="#F8F2E9" fill-opacity="0.88235295" d="M1652.96 1116.62C1648.7 1107.42 1647.27 1102.59 1659.45 1103.8C1656.89 1108.27 1654.99 1111.87 1652.96 1116.62Z"/><path fill="#FAF3EA" fill-opacity="0.81960785" d="M2198.99 204.328C2204.26 203.032 2208.69 201.672 2214.09 200.749C2216.37 201.898 2218.77 202.666 2221.11 203.669C2217.46 205.014 2212.32 206.834 2208.6 207.821C2208.43 203.017 2203.18 204.565 2198.99 204.328Z"/><path fill="#FAF3EA" fill-opacity="0.88235295" d="M2050.96 501.957C2049.09 500.285 2046.73 498.373 2047.35 495.53C2047.62 494.292 2048.39 493.218 2049.47 492.559C2051.93 491.034 2055.47 491.908 2058.05 492.419C2055.74 495.72 2053.15 498.641 2050.96 501.957Z"/><path fill="#F8F2E9" fill-opacity="0.90980393" d="M2060.92 488.219C2057.86 485.465 2055.56 481.491 2061.01 478.172C2062.28 477.404 2065.79 478.561 2068.7 478.233C2066.55 481.153 2063.31 485.64 2060.92 488.219Z"/><path fill="#FAF3EA" fill-opacity="0.90588236" d="M1778.89 908.655C1769.57 900.363 1779.5 899.284 1786.25 896.42C1783.89 900.486 1781.37 904.652 1778.89 908.655Z"/><path fill="#14151D" fill-opacity="0.98039216" d="M2074.81 282.369C2073.79 286.868 2051.89 296.214 2047.77 296.429C2053.91 292.62 2068.02 285.472 2074.81 282.369Z"/><path fill="#14151D" fill-opacity="0.97254902" d="M1134.97 472.432C1140.04 471.878 1145.24 467.316 1147.84 471.714C1142.33 474.176 1136.44 477.172 1130.82 476.265C1132.21 474.913 1133.52 473.719 1134.97 472.432Z"/><path fill="#14151D" fill-opacity="0.68627453" d="M2105.16 221.361C2110.2 220.133 2114.32 218.82 2119.48 218.239C2118.56 220.269 2118.49 220.545 2117.91 222.666C2114.99 223.705 2111.84 224.179 2108.79 224.688C2107.02 223.796 2106.9 224.14 2106.81 222.239C2106.34 221.811 2105.79 221.647 2105.16 221.361Z"/><path fill="#FAF3EA" fill-opacity="0.58823532" d="M693.728 748.687C690.732 748.335 686.707 748.669 684.227 746.824C683.59 746.45 683.178 744.943 683.918 744.48C686.557 742.829 693.171 743.012 695.53 745.425C695.969 745.87 696.407 746.315 696.846 746.759C695.805 747.429 694.815 748.092 693.728 748.687Z"/><path fill="#FAF3EA" fill-opacity="0.75686276" d="M1645.27 344.277C1647.21 343.655 1648.7 342.998 1650.74 342.54C1669.4 347.184 1648.47 350.29 1645.27 344.277Z"/><path fill="#14151D" fill-opacity="0.98431373" d="M2015.64 313.405C2013.46 318.099 2001.06 324.88 1994.8 323.76C2000.91 320.68 2009.67 316.003 2015.64 313.405Z"/><path fill="#2B314D" d="M2067.23 485.294L2068.65 485.367C2072.81 485.486 2070.26 487.727 2071.83 489.279C2072.62 490.063 2073.25 488.64 2073.79 490.721C2073.28 492.075 2072.38 492.611 2071.24 493.542C2066.48 490.721 2065.75 495.628 2067.23 485.294Z"/><path fill="#14151D" fill-opacity="0.71372551" d="M2180.7 204.891C2184.99 203.553 2188.75 203.462 2192.74 201.357C2194.5 202.344 2196.23 203.372 2197.93 204.439C2195.43 205.1 2193.91 205.577 2191.32 205.899C2187.89 205.741 2184.03 205.626 2180.7 204.891Z"/><path fill="#1F233B" d="M1929.81 273.147C1931.58 271.03 1942.63 269.517 1945.96 269.604C1939.85 272.395 1937.59 273.484 1931.19 275.092L1929.81 273.147Z"/><path fill="#F8F2E9" fill-opacity="0.75686276" d="M1149.82 470.786C1152.27 469.847 1155.29 468.881 1157.57 467.849C1159.18 468.293 1162.64 468.685 1163.24 470.468C1160.73 474.361 1152.93 471.588 1149.82 470.786Z"/><path fill="#302C2D" fill-opacity="0.72549021" d="M2214.12 200.226C2213.29 200.043 2212.41 199.995 2211.66 199.588L2211.6 199.364C2212.91 197.204 2219.37 197.406 2221.99 198.516C2218.52 199.469 2217.76 199.846 2214.12 200.226Z"/><path fill="#1F233B" fill-opacity="0.95686275" d="M1879.84 285.24C1881.12 284.029 1881.73 284.303 1883.63 284.281C1881.92 285.187 1881.73 285.55 1879.84 285.24Z"/></svg>