<?xml version="1.0" encoding="utf-8" ?><svg xmlns="http://www.w3.org/2000/svg" xmlns:xlink="http://www.w3.org/1999/xlink" width="2688" height="1536" viewBox="0 0 2688 1536"><path fill="#F7FAFE" d="M0 0L2688 0L2688 1536L0 1536L0 0Z"/><path fill="#3788E2" d="M574.919 725.856C576.362 702.901 575.181 673.036 559.399 654.954C552.479 647.025 535.801 643.253 536.49 630.51C536.811 624.567 541.071 619.752 545.417 616.095C559.274 604.432 634.235 571.228 651.551 573.408C654.997 573.842 658.224 575.121 660.422 577.917C667.194 586.531 660.582 638.589 659.672 650.701C654.629 717.854 649.629 785.929 654.484 853.263C655.24 863.746 656.505 874.866 660.629 884.605C665.305 895.647 678.006 901.686 676.36 910.327C673.843 923.534 658.739 934.668 648.191 941.256C634.766 949.642 598.928 966.259 582.286 962.102C578.289 961.104 575.246 958.876 573.196 955.292C568.745 947.512 569.78 933.647 570.703 924.887L566.448 924.991C536.908 960.719 502.672 974.55 462.187 942.299C432.656 918.774 422.837 876.283 419.201 840.473C415.854 795.856 423.704 745.807 453.318 710.493C475.196 684.403 520.121 662.001 550.519 688.158C560.264 696.543 568.954 713.943 574.919 725.856Z"/><path fill="#E9EBFA" d="M566.448 924.991L568.339 922.316C570.734 918.993 570.616 923.361 570.703 924.887L566.448 924.991Z"/><path fill="#F7FAFE" d="M524.917 758.297C527.271 758.382 529.621 758.536 531.965 758.761C543.435 759.964 549.438 766.068 556.241 774.451C571.506 775.063 577.743 780.479 582.523 794.431C651.989 788.582 639.384 872.597 580.003 854.329C579.293 855.844 578.544 857.34 577.755 858.815C572.64 868.296 547.472 882.226 536.966 885.357C519.081 885.589 513.989 881.541 501.841 869.858C498.79 868.952 489.944 872.246 486.158 873.096C480.464 874.373 474.526 872.404 469.946 869.068C461.255 862.931 453.093 865.015 443.536 859.078C431.139 851.377 432.286 835.434 439.378 824.51C443.654 817.922 452.321 815.041 460.066 813.792C465.136 794.414 474.072 785.458 495.274 788.964C499.326 770.664 506.519 762.735 524.917 758.297Z"/><path fill="#000B71" d="M1194.63 662.556C1190.82 654.959 1186.56 648.077 1178.1 645.025C1168.79 641.666 1154.61 649.093 1149.07 638.757C1146.42 633.803 1145.29 626.574 1147.13 621.252C1150.49 611.556 1169.66 604.854 1178.51 600.929C1193.49 594.294 1247.55 569.927 1261.07 574.785C1264.63 576.068 1268 578.567 1269.43 582.172C1275.45 597.383 1265.39 695.67 1264.77 719.153C1276 702.18 1289.64 680.854 1311.13 677.474C1367.2 668.94 1397.08 732.742 1404.87 778.668C1412.66 824.673 1407.3 876.955 1380.62 916.203C1359.25 947.649 1318.84 974.298 1283.05 948.081C1266.17 935.712 1257.79 918.906 1248.24 901.007L1244.23 901.927C1244.36 913.181 1241.65 953.614 1234.28 960.722C1220.23 974.289 1183.37 948.482 1174.1 936.395C1166.56 926.56 1160.85 915.774 1162.66 903.017C1164.32 888.7 1171.46 876.263 1172.65 862.099C1174.03 845.728 1173.9 828.822 1173.95 812.441L1173.99 735.427C1182.46 729.994 1187.16 725.733 1192.16 716.764C1210.53 721.37 1233.62 719.475 1239.09 697.492C1240.94 689.963 1239.57 682.003 1235.31 675.525C1225.76 661.181 1210.27 659.404 1194.63 662.556Z"/><path fill="#E9EBFA" d="M1244.23 901.927C1244.49 900.572 1244.68 898.016 1245.36 896.89L1245.55 896.78C1246.49 897.133 1247.74 900.027 1248.24 901.007L1244.23 901.927Z"/><path fill="#F7FAFE" d="M1282.68 725.224C1296.92 724.155 1305.31 728.774 1313.41 740.301C1314.76 740.546 1316.11 740.817 1317.45 741.113C1329.13 743.696 1333.88 744.527 1338.44 756.276C1341.38 763.871 1354.01 760.867 1360.89 762.569C1408.76 774.399 1390.34 838.153 1338.36 822.344C1337.21 824.271 1333.41 830.832 1332.05 831.779C1323.37 837.837 1306.01 849.07 1296.41 851.885C1280.42 852.744 1269.6 849.646 1259.73 836.319C1259.46 836.434 1259.18 836.548 1258.9 836.662C1236.56 844.005 1241.39 841.369 1222.25 833.005C1217.12 831.607 1211.69 832.335 1206.76 830.104C1192.21 823.475 1189.16 808.081 1197.23 795.026C1203.27 785.253 1209.68 783.354 1220.18 780.992C1222.02 770.741 1225.53 761.869 1235.84 757.281C1242.02 754.531 1247.15 756.391 1253.4 755.265C1257.14 750.195 1257.07 743.862 1260.23 738.313C1264.41 730.966 1274.92 727.189 1282.68 725.224Z"/><path fill="#000B71" d="M2288.7 903.305C2291.34 908.46 2293.15 913.764 2293.85 919.531C2294.75 927.014 2293.02 934.374 2288.18 940.276C2277.85 952.873 2257.66 956.508 2242.39 957.932C2218.42 960.167 2185.61 959.238 2166.56 943.027C2160.13 937.559 2155.24 929.903 2154.79 921.292C2154.03 906.52 2164.96 902.732 2173.11 893.243C2192.34 870.877 2191.3 739.944 2189.15 707.388C2188.07 691.065 2186.24 668.703 2175.49 655.749C2171.54 650.99 2165.95 647.308 2161.34 643.203C2157.5 639.782 2154.75 635.334 2154.61 630.076C2154.48 625.172 2155.85 621.233 2159.15 617.652C2170.15 605.71 2248.47 573.514 2263.56 573.475C2267.61 573.464 2271.36 574.82 2274.22 577.744C2277.68 581.295 2278.97 586.479 2279.49 591.279C2280.84 603.793 2278.89 617.061 2277.97 629.591C2275.96 656.993 2272.74 685.139 2272.91 712.598C2273.36 717.704 2272.31 720.434 2274.38 723.924C2286.6 700.108 2301.64 678.695 2330.92 676.766C2348.37 675.703 2365.52 681.62 2378.59 693.213C2423.19 732.426 2416.67 806.05 2421.23 859.187C2423.04 880.339 2427.07 888.612 2443.68 901.255C2455.02 909.892 2456.26 926.092 2445.73 936.23C2428.15 953.149 2399.6 957.879 2375.97 958.883C2357.4 959.394 2333.79 957.982 2319.45 945.179C2308.72 935.096 2309.6 920.112 2309.51 906.708C2319.28 903.22 2336.02 893.132 2344.7 886.708C2346.7 885.224 2349.63 879.633 2350.95 877.152C2366.38 881.451 2381.56 881.937 2393.04 868.827C2398.6 862.503 2401.42 854.227 2400.87 845.825C2400.27 837.23 2396.17 829.257 2389.52 823.775C2378.94 814.884 2367.61 815.008 2354.73 815.979C2348.26 799.964 2342.16 795.36 2324.87 794.962C2299.2 745.894 2269.95 784.281 2265.18 808.391C2264.7 810.825 2249.31 807.665 2243.41 812.493C2234.65 819.655 2233.24 824.176 2230.82 834.894C2219.17 837.221 2211.4 840.644 2206.31 852.366C2199.61 862.047 2208.33 884.224 2219.49 884.998C2248.71 887.023 2241.25 902.035 2271.4 889.779C2277.43 897.393 2280.16 898.648 2288.7 903.305Z"/><path fill="#E9EBFA" d="M2274.38 723.924C2274.02 725.088 2273.64 726.612 2272.55 727.294C2270.93 726.196 2272.53 714.607 2272.91 712.598C2273.36 717.704 2272.31 720.434 2274.38 723.924Z"/><path fill="#000B71" d="M1751.82 676.253C1756.46 675.823 1761.76 676.382 1763.05 681.398C1766 692.844 1762.8 711 1761.81 722.755C1783.52 694.973 1812.27 669.233 1851.48 683.951C1876.19 693.224 1888.31 719.742 1897.91 742.757C1890.67 753.306 1894.96 762.869 1881.75 761.793C1865.25 760.448 1859.16 771.452 1855.96 786.336C1836.17 790.241 1819.6 807.182 1834.36 828.289C1840.1 835.961 1844.16 834.737 1851.04 836.217C1870.01 840.297 1873.85 852.132 1895.54 840.689C1900.37 845.946 1901.95 847.941 1907.87 851.862C1910.82 877.912 1919.1 881.282 1936.18 899.431C1948.04 912.027 1941.52 933.346 1927.72 942.442C1902.2 959.271 1868.14 961.058 1838.77 957.048C1806.18 952.599 1790.56 932.2 1800.9 900.434C1803.62 891.791 1806.35 878.047 1807.88 869.222C1810.55 852.611 1817.5 768.236 1781.64 774.255C1765.11 777.031 1759.08 808.749 1759.95 822.935C1761.06 840.917 1757.38 865.997 1765.17 883.73C1768.85 892.505 1781.06 905.014 1782.88 913.961C1792.97 963.601 1704.95 962.582 1674.77 955.027C1658.9 951.053 1644.14 941.033 1640.75 924.637C1636.86 905.849 1649.81 895.837 1658.35 881.022C1671.43 858.604 1675.57 832.688 1675.12 807.075C1674.63 795.829 1675.31 776.517 1669.34 766.95C1662.78 756.446 1637.87 745.305 1651.63 727.805C1671.63 702.364 1721.1 682.264 1751.82 676.253Z"/><path fill="#3788E2" d="M1018.51 676.414C1044.4 673.778 1079.7 687.742 1096.67 707.672C1136.83 754.825 1113.42 816.676 1129.28 870.963C1133.14 884.169 1141.33 889.62 1148.23 900.42C1151.95 906.162 1153.16 913.176 1151.58 919.833C1141.88 959.814 1064.61 968.888 1035.31 948.112C1030.6 944.771 1026.07 931.713 1020.29 930.196C1016.58 931.988 1006.21 941.516 1002.39 944.921C973.373 970.775 929.478 964.724 908.063 929.071C903.574 921.172 900.612 912.498 899.331 903.503C896.506 882.421 902.06 861.072 914.8 844.039C937.989 813.486 976.119 805.843 1012.01 802.697C1036.46 799.641 1043.18 777.294 1039.8 755.898C1037.64 742.234 1032.17 731.25 1015.89 734.102C994.176 737.905 979.37 758.51 966.463 774.841C955.541 788.661 938.997 805.409 920.621 791.683C898.189 773.431 920.549 734.65 934.489 717.945C956.308 691.797 985.121 679.47 1018.51 676.414Z"/><path fill="#F7FAFE" d="M1009.32 826.217C1019.23 825.262 1031.45 825.416 1035.47 836.563C1042.52 856.11 1037.26 883.776 1015.67 891.135C983.528 890.855 974.192 841.024 1009.32 826.217Z"/><path fill="#3788E2" d="M791.216 675.429C815.121 673.268 840.755 687.323 857.606 703.135C879.31 723.503 894.351 749.922 895.523 780.061C897.386 828.013 845.867 824.818 812.172 824.867C799.57 824.895 786.969 825.006 774.369 825.2C777.542 838.218 782.143 848.649 794.476 854.191C828.844 869.636 847.018 848.263 874.459 832.989C882.013 828.784 892.02 837.371 892.788 846.483C894.878 871.295 888.241 891.543 874.911 912.132C872.792 914.971 870.576 917.737 868.267 920.423C849.131 942.62 821.97 956.319 792.745 958.514C766.182 960.386 741.635 952.982 722.118 935.121C658.432 876.842 658.52 780.394 716.129 718.179C739.969 692.434 754.348 677.784 791.216 675.429Z"/><path fill="#F7FAFE" d="M771.231 708.19C772.87 708.075 780.355 707.616 782.012 708.154C785.733 709.362 789.332 712.019 792.969 714.078C798.773 717.363 803.418 713.905 809.35 717.032C813.847 719.403 817.058 722.379 820.552 725.723C824.122 729.139 826.706 731.374 830.24 734.639C837.83 734.458 846.561 733.08 853.286 737.433C862.076 742.349 859.324 752.379 862.404 758.897C864.453 763.234 876.306 769.282 868.866 777.4C861.535 785.399 844.171 786.474 833.805 788.246C832.179 788.286 823.92 784.958 823.005 785.436C814.462 789.896 811.151 791.781 801.488 792.967C790.371 791.647 786.873 790.448 778.418 783.354C762.482 798.541 756.326 794.75 740.404 788.371C736.668 786.874 725.657 794.603 716.478 787.994C705.52 780.102 703.787 769.753 712.26 759.289C715.681 755.394 727.526 754.233 727.979 753.145C733.594 739.635 733.015 739.671 748.425 738.414C756.104 731.404 746.223 718.99 771.231 708.19Z"/><path fill="#3788E2" d="M1526.93 676.302C1556.09 673.266 1580.72 684.353 1601.97 703.99C1623.46 724.058 1636.12 751.823 1637.18 781.205C1638.83 829.28 1594.46 826.167 1559.89 826.091C1546.5 826.027 1533.11 826.142 1519.72 826.438C1522.2 839.679 1525.91 850.107 1539.34 855.755C1561.42 865.044 1581.35 859.233 1599.17 844.388C1604.22 840.186 1611.49 835.082 1617.51 832.515C1625.32 829.251 1634.03 834.042 1635.39 842.336C1638.94 863.897 1633.32 888.239 1622.78 907.177C1605.45 932.182 1582.38 948.724 1552.74 956.479C1485.4 974.124 1436.89 919.793 1421.71 859.912C1404.01 790.108 1454.93 692.745 1526.93 676.302Z"/><path fill="#F7FAFE" d="M1518.16 717.22C1535.14 714.354 1534.05 722.381 1549.95 724.483C1556.11 725.298 1569.52 733.194 1572.08 739.117C1574.31 744.281 1585.06 735.882 1593.11 742.142C1603.16 748.165 1600.16 755.914 1603.56 764.249C1604.55 766.698 1615.5 771.792 1609.06 780.652C1605.35 785.742 1595.92 784.258 1590.68 785.747C1587.91 786.793 1579.5 791.38 1576.81 790.199C1562.94 784.1 1562.97 792.839 1549 794.355C1537.15 794.179 1534.6 792.978 1525.38 786.06C1520.75 790.867 1516.43 793.399 1510.03 795.523C1503.88 797.978 1495.98 791.095 1490.87 791.122C1477.7 791.347 1462.57 796.861 1460.98 777.758C1460.58 772.904 1460.87 770.334 1463.61 765.801C1467.44 759.465 1474.97 760.769 1480.21 757.753C1481.58 756.962 1483.54 749.6 1485.9 747.491C1490.58 743.303 1492.26 744.493 1498.7 744.207C1504.85 738.878 1497.82 727.395 1518.16 717.22Z"/><path fill="#3788E2" d="M2059.58 676.326C2085.56 672.811 2111.94 682.771 2130.58 701.154C2151.17 721.458 2166.47 772.31 2141.93 794.914C2135.97 800.328 2128.08 803.127 2120.04 802.686C2096 801.279 2089.84 773.671 2076.55 758.727C2071.71 753.278 2065.78 749.086 2058.23 748.803C2049.73 748.484 2040.51 752.935 2034.52 758.823C2026.1 767.108 2020.39 779.479 2020.43 791.354C2020.48 807.621 2031.25 825.755 2042.63 836.784C2049.75 843.688 2058.3 847.961 2068.14 849.334C2101.99 854.059 2119.57 825.454 2136.71 825.748C2141.41 825.828 2146.39 827.922 2149.45 831.551C2156.26 839.619 2154.44 851.855 2153.62 861.541C2147.86 894.817 2135.88 911.929 2110.73 932.873C2035.28 995.714 1954.58 939.024 1942.53 852.616C1935.8 804.326 1949.84 764.552 1978.04 725.885C1999.38 696.701 2023.91 681.419 2059.58 676.326Z"/><path fill="#000B71" d="M327.728 583.432C347.473 581.885 386.105 586.691 401.894 598.255C429.419 618.413 396.3 637.583 385.388 652.768C363.091 649.112 351.365 654.99 346.404 678.172C337.468 680.043 331.464 681.379 324.812 688.309C319.409 693.956 316.562 701.573 316.936 709.379C317.695 728.105 331.99 734.506 348.435 733.135C349.432 734.15 350.456 735.14 351.505 736.102C360.595 744.393 368.109 744.994 379.753 744.428C380.227 783.423 382.14 841.481 397.3 878.831C403.879 892.127 420.819 904.566 424.656 918.775C431.244 943.174 396.982 949.468 379.374 954.068C372.662 955.63 365.867 956.812 359.022 957.61C327.336 961.46 272.918 959.061 247.452 938.716C242.591 934.832 237.017 928.666 236.551 922.189C235.618 909.223 262.239 895.94 270.193 885.822C290.575 859.892 289.783 738.552 285.936 704.849C284.157 689.264 281.677 665.42 271.69 653.11C267.005 647.336 259.422 642.761 253.613 638.102C247.755 633.403 239.172 625.182 238.689 617.218C238.443 613.166 240.259 609.602 242.857 606.61C258.841 588.198 304.296 584.551 327.728 583.432Z"/></svg>