<?xml version="1.0" encoding="utf-8" ?><svg xmlns="http://www.w3.org/2000/svg" xmlns:xlink="http://www.w3.org/1999/xlink" width="2688" height="1536" viewBox="0 0 2688 1536"><path fill="#F5F5F4" d="M0 0L2688 0L2688 1536L0 1536L0 0Z"/><path fill="#5798CD" d="M1192.07 741.561C1187.21 733.191 1177.49 693.483 1188.72 687.38C1201.01 680.697 1227.13 699.752 1231.07 712.28C1234.81 724.165 1231.37 731.913 1226.36 742.999C1254.52 734.351 1266.16 733.184 1285.47 756.126C1276.05 759.23 1273.05 760.507 1265.8 767.181L1264.14 769.519C1259.85 775.68 1257.87 782.146 1255.79 789.21C1252.01 809.726 1252.56 829.08 1256.1 849.617C1260.32 864.21 1262.34 872.166 1278.02 877.625C1302.89 876.811 1315.43 858.716 1322.71 836.795C1345.48 829.229 1363.28 830.888 1373.14 854.808C1405.93 831.21 1414.87 885.037 1403.37 905.228C1399.08 913.785 1393.99 920.385 1384.49 923.548C1381.99 924.354 1379.48 925.095 1376.94 925.77C1376.91 935.996 1376.45 942.802 1372.62 952.46C1357.34 990.912 1295.79 995.939 1262.63 980.812C1258.84 979.938 1255.27 977.274 1251.87 975.198C1265.78 975.324 1280.74 975.941 1294.4 975.691L1294.99 975.533C1298.76 974.484 1299.79 975.525 1301.98 972.462C1290.17 967.333 1278.49 964.442 1265.62 965.212C1251.67 949.648 1242.59 945.749 1221.76 944.073C1219.28 917.689 1212.21 911.095 1186.71 907.558C1178.8 890.041 1181.61 872.737 1190.94 856.604C1189.82 854.587 1188.75 852.543 1187.73 850.473C1183.01 840.728 1176.7 814.551 1189.79 809.339C1200.83 809.784 1208.33 822.394 1214.66 825.731C1228.22 816.311 1231.3 824.712 1242.99 826.329L1243.63 825.28C1239.18 816.182 1229.14 810.088 1218.58 813.197C1215.96 813.967 1214.63 811.251 1213.24 809.407C1205.61 799.348 1200.24 796.334 1188.09 794.091C1180.89 775.389 1181.47 758.725 1192.07 741.561Z"/><path fill="#5798CD" d="M1322.71 836.795C1345.48 829.229 1363.28 830.888 1373.14 854.808C1405.93 831.21 1414.87 885.037 1403.37 905.228C1400.13 903.361 1383.78 921.411 1370.68 897.83C1361.83 925.623 1338.57 941.711 1313.14 919.804C1301.33 931.105 1287.08 924.812 1280.67 911.219C1275.09 899.395 1279.69 890.166 1284.08 878.826L1278.02 877.625C1302.89 876.811 1315.43 858.716 1322.71 836.795Z"/><path fill="#0567B1" d="M1203.84 866.912C1217.31 848.756 1234.36 840.647 1256.1 849.617C1260.32 864.21 1262.34 872.166 1278.02 877.625L1284.08 878.826C1279.69 890.166 1275.09 899.395 1280.67 911.219C1287.08 924.812 1301.33 931.105 1313.14 919.804C1338.57 941.711 1361.83 925.623 1370.68 897.83C1383.78 921.411 1400.13 903.361 1403.37 905.228C1399.08 913.785 1393.99 920.385 1384.49 923.548C1381.99 924.354 1379.48 925.095 1376.94 925.77C1376.91 935.996 1376.45 942.802 1372.62 952.46C1357.34 990.912 1295.79 995.939 1262.63 980.812C1258.84 979.938 1255.27 977.274 1251.87 975.198C1265.78 975.324 1280.74 975.941 1294.4 975.691L1294.99 975.533C1298.76 974.484 1299.79 975.525 1301.98 972.462C1304.59 973.567 1305.21 973.745 1307.02 975.771C1324.8 974.541 1334.48 968.04 1344.51 953.835C1328.54 952.08 1321.48 948.165 1311.05 935.542C1293.67 936.971 1276.27 931.035 1272.42 911.898C1268.59 892.879 1273.06 888.6 1251.19 885.751C1243.4 857.436 1227.88 855.516 1203.84 866.912Z"/><path fill="#166FB7" d="M1301.98 972.462C1304.59 973.567 1305.21 973.745 1307.02 975.771L1306.31 976.012C1295.85 978.449 1269.02 975.145 1262.63 980.812C1258.84 979.938 1255.27 977.274 1251.87 975.198C1265.78 975.324 1280.74 975.941 1294.4 975.691L1294.99 975.533C1298.76 974.484 1299.79 975.525 1301.98 972.462Z"/><path fill="#DEE9F1" d="M1301.98 972.462C1304.59 973.567 1305.21 973.745 1307.02 975.771L1306.31 976.012C1301.93 975.604 1298.78 975.683 1294.4 975.691L1294.99 975.533C1298.76 974.484 1299.79 975.525 1301.98 972.462Z"/><path fill="#0567B1" d="M1194.99 769.416C1209.34 753.745 1222.83 746.161 1245 752.015C1255.6 754.814 1260.05 757.898 1265.8 767.181L1264.14 769.519C1259.85 775.68 1257.87 782.146 1255.79 789.21C1251.77 788.525 1247.64 786.112 1243 786.373C1243 786.462 1240.53 786.494 1240.52 786.243C1238.77 759.078 1221.21 755.836 1194.99 769.416Z"/><path fill="#5798CD" d="M1212.41 561.277C1242.75 501.853 1308.6 546.811 1277.12 582.671C1277.25 597.931 1275.66 604.671 1266.71 617.519C1276.74 631.573 1270.77 649.065 1262 662.076C1267.43 675.253 1269.85 683.946 1264.59 697.85L1262.72 703.135L1263.27 703.847C1317.98 652.854 1376.44 652.504 1400.73 731.27C1405.1 749.459 1406.25 763.683 1397.85 780.812C1415.74 799.009 1411.32 826.174 1399.32 846.455C1397.74 843.392 1394.74 837.915 1393.59 834.946C1392.48 833.745 1391.76 833.02 1390.56 831.939C1387.28 827.691 1359.97 805.115 1353.91 799.937C1352.95 799.14 1351.97 798.363 1350.98 797.607C1346.97 793.101 1324.77 775.104 1319.18 772.74C1312.27 764.15 1309.14 763.006 1305.17 758.447C1301.87 757.039 1300.39 757.997 1296.29 755.94L1296.45 753.943C1297.29 748.082 1296.38 741.455 1294.16 735.963C1291.39 729.008 1285.89 723.494 1278.95 720.708C1268.37 716.359 1259.86 718.225 1249.88 722.278C1251.86 715.575 1252.85 709.171 1249.88 702.345C1246.53 694.662 1234.22 697.343 1227.9 694.746C1222.48 692.517 1227.16 684.055 1223.44 677.649C1220.44 672.474 1216.78 670.263 1211.19 668.337C1204.84 666.147 1194.47 665.779 1188.48 668.911C1186.76 669.813 1186.66 670.132 1184.55 669.9C1180.15 664.49 1173.07 632.055 1170.18 622.53C1165.26 621.517 1161.34 620.599 1157.01 617.802C1149.57 613.013 1144.32 605.483 1142.4 596.848C1139.17 581.638 1147.13 573.049 1161.41 570.227C1175.02 549.351 1192.35 545.749 1212.41 561.277Z"/><path fill="#E64012" d="M1296.45 753.943C1307.4 741.907 1320.99 732.576 1336.16 726.684C1359.31 717.927 1378.91 721.522 1400.73 731.27C1405.1 749.459 1406.25 763.683 1397.85 780.812C1415.74 799.009 1411.32 826.174 1399.32 846.455C1397.74 843.392 1394.74 837.915 1393.59 834.946C1392.48 833.745 1391.76 833.02 1390.56 831.939C1387.28 827.691 1359.97 805.115 1353.91 799.937C1352.95 799.14 1351.97 798.363 1350.98 797.607C1346.97 793.101 1324.77 775.104 1319.18 772.74C1312.27 764.15 1309.14 763.006 1305.17 758.447C1301.87 757.039 1300.39 757.997 1296.29 755.94L1296.45 753.943Z"/><path fill="#F15E19" d="M1305.17 758.447C1307.72 758.08 1307.93 757.867 1310.09 756.317C1326.94 744.21 1353.12 740.804 1365.88 760.577C1374.33 773.666 1367.75 788.562 1354.51 794.942C1353.02 795.662 1352.2 796.509 1350.98 797.607C1346.97 793.101 1324.77 775.104 1319.18 772.74C1312.27 764.15 1309.14 763.006 1305.17 758.447Z"/><path fill="#F15E19" d="M1353.91 799.937C1360.23 799.959 1369.75 799.122 1375.49 801.089C1390.16 806.118 1393.21 821.972 1393.59 834.946C1392.48 833.745 1391.76 833.02 1390.56 831.939C1387.28 827.691 1359.97 805.115 1353.91 799.937Z"/><path fill="#0567B1" d="M1206.09 602.938C1213.48 613.212 1227.17 619.964 1238.14 610.342C1247.69 601.959 1249.14 589.794 1250.02 577.927C1259.73 583.416 1265.89 585.812 1277.12 582.671C1277.25 597.931 1275.66 604.671 1266.71 617.519C1276.74 631.573 1270.77 649.065 1262 662.076C1267.43 675.253 1269.85 683.946 1264.59 697.85L1263.84 697.709C1260.82 694.38 1262.54 688.567 1260.58 684.438C1259.01 681.12 1254.57 677.787 1253.78 674.018C1256.65 663.194 1255.44 657.452 1246.83 649.92C1241.5 645.256 1237.33 648.159 1231.64 645.891C1234.02 640.986 1240.1 634.696 1238.36 629.544C1222.29 630.874 1217.28 629.552 1204.52 620.036C1196.9 625.455 1188.34 629.397 1179.95 623.031L1180.41 622.12C1196.51 619.068 1197.65 617.344 1206.09 602.938Z"/><path fill="#F15E19" d="M365.412 570.21C378.364 554.973 391.128 550.05 410.793 553.181C412.483 553.858 414.105 554.526 415.835 555.113C425.456 560.07 432.491 564.904 436.034 575.839C438.687 584.118 437.918 593.114 433.898 600.823C430.09 607.999 426.684 610.178 420.294 614.643L419.623 615.105C418.045 627.335 415.826 635.024 406.431 643.914L400.453 650.357C409.954 671.053 407.89 693.888 389.688 708.865C403.085 727.001 401.706 749.25 391.881 768.736C398.083 780.356 399.053 791.831 397.738 804.984C394.359 800.658 365.823 778.489 359.369 773.01C353.232 782.713 342.83 789.284 342.531 796.395C345.173 798.845 345.142 798.143 349.353 798.967L347.677 798.93C325.367 798.519 318.101 804.688 302.835 819.349C294.073 800.094 292.797 780.064 306.736 763.115C302.926 753.88 302.387 750.489 301.107 740.484C300.437 720.909 302.184 714.002 310.884 697.119C297.608 675.972 295.945 656.926 307.335 634.331C287.477 632.917 264.493 625.958 259.93 604.676C249.587 556.43 289.21 543.186 325.414 563.367C339.8 554.654 354.331 558.595 365.412 570.21Z"/><path fill="#5798CD" d="M365.412 570.21C378.364 554.973 391.128 550.05 410.793 553.181C412.483 553.858 414.105 554.526 415.835 555.113C425.456 560.07 432.491 564.904 436.034 575.839C438.687 584.118 437.918 593.114 433.898 600.823C430.09 607.999 426.684 610.178 420.294 614.643L419.623 615.105C418.045 627.335 415.826 635.024 406.431 643.914C404.396 642.705 402.482 641.431 400.505 640.135L399.908 640.266C372.425 617.15 343.494 594.66 316.432 571.138L325.414 563.367C339.8 554.654 354.331 558.595 365.412 570.21Z"/><path fill="#0567B1" d="M415.835 555.113C425.456 560.07 432.491 564.904 436.034 575.839C438.687 584.118 437.918 593.114 433.898 600.823C430.09 607.999 426.684 610.178 420.294 614.643L419.623 615.105C418.045 627.335 415.826 635.024 406.431 643.914C404.396 642.705 402.482 641.431 400.505 640.135C411.346 624.615 415.675 613.895 398.033 601.087C420.982 593.575 428.362 578.022 412.914 558.201C413.894 557.095 414.803 556.159 415.835 555.113Z"/><path fill="#166FB7" d="M412.914 558.201C410.016 557.114 405.65 554.778 410.793 553.181C412.483 553.858 414.105 554.526 415.835 555.113C414.803 556.159 413.894 557.095 412.914 558.201Z"/><path fill="#E64012" d="M352.078 638.151C366.814 645.131 385.775 652.002 399.908 640.266L400.505 640.135C402.482 641.431 404.396 642.705 406.431 643.914L400.453 650.357C409.954 671.053 407.89 693.888 389.688 708.865C403.085 727.001 401.706 749.25 391.881 768.736C398.083 780.356 399.053 791.831 397.738 804.984C394.359 800.658 365.823 778.489 359.369 773.01L356.611 770.738C358.056 726.834 332.999 742.773 325.359 733.62C331.207 723.401 358.289 732.721 367.28 735.364C373.07 733.384 374.197 732.727 378.67 728.707C385.482 722.585 387.384 714.534 379.325 708.107C369.417 700.204 355.629 702.225 343.785 703.257C356.085 697.212 370.595 690.768 371.227 674.675C371.795 660.248 361.186 648.155 352.078 638.151Z"/><path fill="#5798CD" d="M301.107 740.484C320.965 732.787 341.626 760.498 356.611 770.738L359.369 773.01C353.232 782.713 342.83 789.284 342.531 796.395C345.173 798.845 345.142 798.143 349.353 798.967L347.677 798.93C325.367 798.519 318.101 804.688 302.835 819.349C294.073 800.094 292.797 780.064 306.736 763.115C302.926 753.88 302.387 750.489 301.107 740.484Z"/><path fill="#5798CD" d="M1687.42 703.217C1695.68 683.499 1719.77 658.197 1743 660.792C1779.91 662.283 1764.95 692.817 1756.79 713.295L1752.53 723.828C1755.14 724.792 1754.1 723.72 1757.21 725.517C1773.38 700.336 1796.36 672.181 1826.72 665.981C1871.1 656.919 1894.4 690.198 1899.12 729.084C1899.19 738.836 1899.39 748.176 1897.54 757.826C1895.96 763.246 1895.25 765.607 1892.87 770.711C1896.45 783.661 1896.72 791.572 1889.92 803.663C1889.12 805.077 1888.3 806.483 1887.47 807.881C1898.24 822.422 1896.59 843.123 1891.78 859.739C1884.23 852.442 1871.64 842.866 1863.19 836.15C1856.01 828.96 1843.32 818.994 1835.2 812.332C1828.72 807.026 1823.77 802.946 1817.77 797.022C1816.12 782.927 1816.21 774.426 1807.21 763.215C1805.91 762.253 1804.56 761.352 1803.18 760.516C1796.36 756.474 1790.32 758.309 1783.24 760.173C1773.43 765.978 1768.77 769.464 1762.76 779.434C1757.34 790.414 1755.28 807.656 1743.79 812.341C1735.76 809.735 1741.55 783.866 1706.84 794.402C1699.38 770.459 1687.54 764.403 1663.33 771.115C1659.98 762.829 1657.08 752.475 1657.09 743.513C1657.09 733.544 1661.15 724.003 1668.33 717.093C1686.1 699.898 1713.01 709.286 1728.1 725.286C1720.26 703.87 1708.7 700.602 1687.42 703.217Z"/><path fill="#E64012" d="M1846.94 714.581C1864.23 715.246 1887.41 712.109 1899.12 729.084C1899.19 738.836 1899.39 748.176 1897.54 757.826C1895.96 763.246 1895.25 765.607 1892.87 770.711C1896.45 783.661 1896.72 791.572 1889.92 803.663C1889.12 805.077 1888.3 806.483 1887.47 807.881C1898.24 822.422 1896.59 843.123 1891.78 859.739C1884.23 852.442 1871.64 842.866 1863.19 836.15C1856.01 828.96 1843.32 818.994 1835.2 812.332C1828.72 807.026 1823.77 802.946 1817.77 797.022C1816.12 782.927 1816.21 774.426 1807.21 763.215C1805.91 762.253 1804.56 761.352 1803.18 760.516C1796.36 756.474 1790.32 758.309 1783.24 760.173L1783.12 759.212C1785.66 756.572 1809.19 734.004 1810.64 733.65L1811.26 735.737L1812.35 734.65C1832.75 741.999 1842.12 734.172 1846.94 714.581Z"/><path fill="#F15E19" d="M1807.21 763.215C1821.36 766.546 1836.95 772.308 1849.75 762.722C1866.18 750.42 1876.09 740.209 1888.11 766.141C1883.24 774.559 1882.72 775.492 1874.26 780.092C1897.08 806.434 1858.41 805.314 1843.13 804.644C1840.47 807.15 1837.69 809.664 1835.2 812.332C1828.72 807.026 1823.77 802.946 1817.77 797.022C1816.12 782.927 1816.21 774.426 1807.21 763.215Z"/><path fill="#0567B1" d="M1846.94 714.581C1864.23 715.246 1887.41 712.109 1899.12 729.084C1899.19 738.836 1899.39 748.176 1897.54 757.826C1884.1 749.468 1880.23 746.173 1864.48 745.282C1852.27 754.521 1832.56 764.704 1816.62 751.929C1811.69 747.973 1811.06 741.833 1811.26 735.737L1812.35 734.65C1832.75 741.999 1842.12 734.172 1846.94 714.581Z"/><path fill="#0567B1" d="M1678.89 752.207C1693.53 739.904 1719.51 728.543 1736.59 743.609C1741.5 747.946 1745.27 754.577 1750.44 758.76C1760.5 766.896 1772.52 760.045 1783.12 759.212L1783.24 760.173C1773.43 765.978 1768.77 769.464 1762.76 779.434C1750.64 770.012 1748.16 769.574 1733.79 769.964C1731.92 765.62 1734.91 761.494 1733.93 759.41C1724.16 738.614 1694.67 746.625 1678.89 752.207Z"/><path fill="#0567B1" d="M1743 660.792C1779.91 662.283 1764.95 692.817 1756.79 713.295C1746.84 703.304 1745.66 704.203 1732.41 699.898C1737.82 697.814 1742.64 697.012 1746.75 692.759C1754 685.266 1754.14 671.899 1746.11 664.87C1743.93 662.959 1743.8 663.442 1743 660.792Z"/><path fill="#DEE9F1" d="M1752.53 723.828C1755.14 724.792 1754.1 723.72 1757.21 725.517C1754.3 730.455 1747.26 747.139 1745.42 749.615L1745.17 749.579C1742.78 746.417 1750.74 727.789 1752.53 723.828Z"/><path fill="#5798CD" d="M1014.02 678.908C1034.32 664.201 1051.36 656.798 1075.88 666.218C1091.57 674.27 1109.48 690.453 1109.55 709.892C1109.57 715.409 1111.9 718.628 1114.1 723.565C1119.57 736.092 1118.54 747.199 1115.06 759.997C1122.08 770.236 1125 775.983 1126.95 788.402C1119.68 794.304 1112.58 800.415 1105.66 806.728C1095.16 816.296 1085.04 826.276 1075.32 836.645C1063.26 824.771 1061.88 826.541 1045.81 823.015C1042.99 822.342 1040.27 820.075 1037.33 820.098C1026.52 820.183 1016.23 824.896 1008.8 832.725C994.902 847.374 989.98 868.175 994.712 887.602C990.625 891.047 985.231 895.864 980.93 898.719L979.933 898.135C965.869 889.951 952.583 886.084 936.502 890.286C928.029 879.937 925.057 878.548 913.946 871.462C914.045 870.561 914.173 869.664 914.33 868.771C917.041 853.334 923.14 846.053 935.509 837.409C955.957 771.789 1002.83 816.913 1032.03 791.995C1043.06 782.579 1047.23 766.911 1048.23 753.012C1059.06 747.596 1063.06 745.216 1074.99 748.294L1076.42 748.668L1077.2 746.951C1071.89 738.815 1056.53 737.518 1048.77 743.407C1046.61 742.161 1043.01 734.868 1038.76 730.561C999.178 710.947 992.925 787.368 947.174 765.814C943.546 764.136 940.207 761.894 937.281 759.171C916.163 742.015 927.634 698.846 966.786 723.756C963.575 712.389 963.216 709.288 953.9 702.051C956.361 694.391 958.434 687.805 963.369 681.309C977.401 662.839 998.473 660.403 1014.02 678.908Z"/><path fill="#5798CD" d="M1014.02 678.908C1034.32 664.201 1051.36 656.798 1075.88 666.218C1077.2 673.554 1078.37 677.461 1074.19 684.769C1068.09 695.431 1054.68 683.88 1048.82 685.167C1047.06 695.789 1045.89 707.2 1031.55 704.104C1022.27 702.1 1015.74 696.062 1008.36 690.547C1012.12 708.913 1009.58 723.286 989.137 729.62C985.415 728.113 982.51 726.189 979.027 726.651C977.435 732.49 986.283 746.114 968.798 757.515C959.426 763.626 944.125 755.459 937.281 759.171C916.163 742.015 927.634 698.846 966.786 723.756C963.575 712.389 963.216 709.288 953.9 702.051C956.361 694.391 958.434 687.805 963.369 681.309C977.401 662.839 998.473 660.403 1014.02 678.908Z"/><path fill="#0567B1" d="M1075.88 666.218C1091.57 674.27 1109.48 690.453 1109.55 709.892C1109.57 715.409 1111.9 718.628 1114.1 723.565C1119.57 736.092 1118.54 747.199 1115.06 759.997C1122.08 770.236 1125 775.983 1126.95 788.402C1119.68 794.304 1112.58 800.415 1105.66 806.728C1092.83 783.948 1077.06 790.243 1058.88 800.608C1076.9 773.063 1095.77 782.323 1102.29 775.634C1107.79 754.021 1092.7 756.379 1089.43 748.433C1103.81 737.338 1103.83 708.002 1089.82 700.508C1064.24 686.825 1066.99 725.308 1038.76 730.561C999.178 710.947 992.925 787.368 947.174 765.814C943.546 764.136 940.207 761.894 937.281 759.171C944.125 755.459 959.426 763.626 968.798 757.515C986.283 746.114 977.435 732.49 979.027 726.651C982.51 726.189 985.415 728.113 989.137 729.62C1009.58 723.286 1012.12 708.913 1008.36 690.547C1015.74 696.062 1022.27 702.1 1031.55 704.104C1045.89 707.2 1047.06 695.789 1048.82 685.167C1054.68 683.88 1068.09 695.431 1074.19 684.769C1078.37 677.461 1077.2 673.554 1075.88 666.218Z"/><path fill="#F15E19" d="M1081.34 854.777C1089.71 848.279 1116.8 825.59 1125.33 823.727C1133.45 825.858 1126.93 842.843 1125.11 848.892C1124.1 852.354 1122.9 855.76 1121.52 859.093C1128.16 868.834 1128.31 874.36 1128.64 886.101C1152.88 887.457 1154.91 904.222 1153.78 924.554C1153.03 938.138 1145.17 955.733 1135.43 965.228C1126.97 977.624 1105 988.151 1089.88 987.464C1057.46 985.992 1051.8 961.334 1052.37 933.926L1049.6 930.999C1041.44 945.935 1035.08 956.043 1023.12 968.634C978.414 1010.86 916.33 978.052 908.352 921.761C907.485 915.645 906.406 900.576 910.214 895.617C922.443 891.519 944.245 909.285 955.886 914.725L956.84 915.164C964.969 909.829 973 904.346 980.93 898.719C985.231 895.864 990.625 891.047 994.712 887.602C1008.78 917.279 1026.85 897.74 1043.42 884.691L1081.34 854.777Z"/><path fill="#5798CD" d="M1023.12 968.634C978.414 1010.86 916.33 978.052 908.352 921.761C907.485 915.645 906.406 900.576 910.214 895.617C922.443 891.519 944.245 909.285 955.886 914.725L956.84 915.164C970.391 928.42 1006.67 955.912 1023.12 968.634Z"/><path fill="#E64012" d="M1081.34 854.777C1089.71 848.279 1116.8 825.59 1125.33 823.727C1133.45 825.858 1126.93 842.843 1125.11 848.892C1124.1 852.354 1122.9 855.76 1121.52 859.093C1128.16 868.834 1128.31 874.36 1128.64 886.101C1152.88 887.457 1154.91 904.222 1153.78 924.554C1153.03 938.138 1145.17 955.733 1135.43 965.228C1134.89 961.664 1135.8 957.501 1135.16 953.919C1130.27 926.73 1108.77 932.202 1089.62 935.23C1095.05 932.026 1101.43 928.396 1105.06 923.421C1122.64 899.28 1095.91 881.874 1073.44 886.775C1071.66 887.163 1072.17 886.991 1070.71 886.218C1077.26 874.285 1080.87 868.23 1081.34 854.777Z"/><path fill="#FBEBE3" d="M1049.6 930.999C1052.88 922.033 1052.74 930.214 1052.37 933.926L1049.6 930.999Z"/><path fill="#5798CD" d="M2297.22 770.522C2297.77 770.154 2300.02 768.694 2300.41 768.647C2304.23 768.172 2313.03 773.415 2317.73 774.965C2337.08 781.82 2346.78 759.705 2361.73 752.477C2373.42 746.824 2383.73 750.543 2388.55 762.985C2389.31 765.429 2388.94 765.961 2391.08 765.216C2390.83 769.188 2389.51 771.805 2389.48 775.007C2398.59 787.777 2393.95 805.688 2387.13 818.374C2394.77 832.529 2394.75 855.562 2389.59 870.469L2391.73 873.55C2405.44 883.367 2405.49 895.574 2402.14 910.4C2426.54 915.017 2444.63 932.362 2439.32 958.567C2437.37 968.653 2431.32 977.476 2422.62 982.935C2417.44 986.238 2411.14 988.376 2405.1 989.342C2391.94 993.039 2367.69 991.133 2354.86 986.008C2340.72 961.489 2332.64 949.422 2302.35 954.113C2289.47 933.882 2288.1 908.793 2315.06 900.024C2320.81 876.718 2345.06 869.484 2364.45 882.944C2371.75 876.239 2378.63 874.677 2388.07 873.43L2384.02 869.645C2374.76 866.907 2370.6 865.71 2360.92 864.86C2359.85 864.808 2358.77 864.77 2357.7 864.747C2337.88 864.313 2329.18 871.356 2315.79 884.071C2310.2 867.769 2311.72 851.856 2318.66 836.362C2292.82 816.217 2304.43 796.859 2297.22 770.522Z"/><path fill="#5798CD" d="M2297.22 770.522C2297.77 770.154 2300.02 768.694 2300.41 768.647C2304.23 768.172 2313.03 773.415 2317.73 774.965C2337.08 781.82 2346.78 759.705 2361.73 752.477C2373.42 746.824 2383.73 750.543 2388.55 762.985C2389.31 765.429 2388.94 765.961 2391.08 765.216C2390.83 769.188 2389.51 771.805 2389.48 775.007C2388.66 774.644 2387.77 774.298 2387 773.827C2380.72 785.178 2370.79 786.767 2359.05 789.387C2366.1 792.731 2378.39 797.15 2381.05 804.935C2389.58 829.884 2359.04 821.78 2345.51 822.536C2361.42 831.06 2375.42 842.578 2362.05 861.643L2360.5 863.884L2360.92 864.86C2359.85 864.808 2358.77 864.77 2357.7 864.747C2337.88 864.313 2329.18 871.356 2315.79 884.071C2310.2 867.769 2311.72 851.856 2318.66 836.362C2292.82 816.217 2304.43 796.859 2297.22 770.522Z"/><path fill="#166FB7" d="M2388.55 762.985C2389.31 765.429 2388.94 765.961 2391.08 765.216C2390.83 769.188 2389.51 771.805 2389.48 775.007C2388.66 774.644 2387.77 774.298 2387 773.827C2387.94 769.422 2388.22 767.444 2388.55 762.985Z"/><path fill="#0567B1" d="M2387 773.827C2387.77 774.298 2388.66 774.644 2389.48 775.007C2398.59 787.777 2393.95 805.688 2387.13 818.374C2394.77 832.529 2394.75 855.562 2389.59 870.469L2391.73 873.55C2405.44 883.367 2405.49 895.574 2402.14 910.4C2426.54 915.017 2444.63 932.362 2439.32 958.567C2437.37 968.653 2431.32 977.476 2422.62 982.935C2417.44 986.238 2411.14 988.376 2405.1 989.342C2406.48 982.754 2417.86 976.254 2414.68 964.104C2408.99 942.375 2378.48 944.919 2362 948.525L2362 944.888C2377.84 936.077 2389.79 924.432 2374.25 904.803C2368.21 897.178 2357.95 895.993 2348.62 895.854C2354.47 891.512 2359.27 888.133 2364.45 882.944C2371.75 876.239 2378.63 874.677 2388.07 873.43L2384.02 869.645C2374.76 866.907 2370.6 865.71 2360.92 864.86L2360.5 863.884L2362.05 861.643C2375.42 842.578 2361.42 831.06 2345.51 822.536C2359.04 821.78 2389.58 829.884 2381.05 804.935C2378.39 797.15 2366.1 792.731 2359.05 789.387C2370.79 786.767 2380.72 785.178 2387 773.827Z"/><path fill="#166FB7" d="M2362 944.888L2362 948.525C2361.27 948.654 2356.97 949.662 2356.75 948.456C2357.38 947.286 2360.15 946.067 2361.27 945.355L2362 944.888Z"/><path fill="#5798CD" d="M1936.56 878.781C1930.96 877.7 1927.99 876.804 1923 873.815C1906.57 863.985 1905.11 834.612 1927.48 831.568C1939.68 829.907 1949.98 835.633 1959.67 842.725C1971.23 837.28 1991.24 838.85 2003.55 841.16C2010.15 853.885 2030.65 872.509 2044.07 877.779C2055.93 882.439 2072.57 868.798 2083.64 884.419C2093.99 862.999 2124.54 853.002 2132.9 879.948L2133.8 882.856C2134.35 884.876 2134.58 886.182 2135.51 888.066C2133.86 903.155 2136.78 907.815 2127.73 921.025C2121.33 929.396 2118.56 928.508 2109.66 933.05C2108.58 933.597 2106.42 948.174 2105.49 950.817C2097.95 972.399 2071.67 986.014 2050.26 988.304C2023.52 991.162 2006.14 986.055 1985.42 970.315C1995.8 970.63 2008.45 971.337 2018.66 971.104C2026.41 970.37 2041.68 972.115 2045.86 969.65C2034.2 965.92 2025.34 962.452 2012.93 962.917C2000.96 952.743 1993.22 951.702 1978.96 957.322C1980 933.355 1973.97 920.564 1946.72 924.482C1939.23 908.727 1937.07 895.899 1936.56 878.781Z"/><path fill="#0567B1" d="M1962.56 882.201C1981.13 859.498 2012.06 852.807 2022.9 887.166C2027.95 887.221 2033.56 886.808 2038.66 886.539C2031.68 897.495 2027.68 907.162 2031.95 920.553C2033.48 925.336 2036.44 928.472 2041.03 930.596C2049.14 934.35 2050.59 930.641 2057.42 927.808C2078.64 944.331 2095.41 930.542 2103.7 909.64C2116.25 926.199 2116.83 916.063 2127.73 921.025C2121.33 929.396 2118.56 928.508 2109.66 933.05C2108.58 933.597 2106.42 948.174 2105.49 950.817C2097.95 972.399 2071.67 986.014 2050.26 988.304C2023.52 991.162 2006.14 986.055 1985.42 970.315C1995.8 970.63 2008.45 971.337 2018.66 971.104C2026.41 970.37 2041.68 972.115 2045.86 969.65C2048.89 970.172 2048.82 970.292 2051.4 971.976C2065.94 969.91 2072.68 962.185 2081.37 951.157C2067.74 948.841 2065.88 947.668 2057.41 936.909C2025.07 937.953 2027.86 928.326 2019.93 903.708C2018.74 900.014 2009.47 898.743 2005.51 897.979C2003.24 895.833 2003.8 891.2 2002.43 888.412C1993.29 869.923 1976.23 876.359 1962.56 882.201Z"/><path fill="#DEE9F1" d="M2045.86 969.65C2048.89 970.172 2048.82 970.292 2051.4 971.976C2044.41 972.348 2025.3 972.194 2018.66 971.104C2026.41 970.37 2041.68 972.115 2045.86 969.65Z"/><path fill="#F5F5F4" d="M2083.64 884.419C2093.99 862.999 2124.54 853.002 2132.9 879.948L2133.8 882.856C2130.97 882.156 2129.28 880.503 2126.53 879.936C2104.88 875.489 2093.15 887.157 2081.86 902.361C2081.93 895.329 2081.22 890.898 2083.64 884.419Z"/><path fill="#E64012" d="M433.21 825.85C432.761 816.597 432.996 800.885 437.668 792.606L439.726 791.294C456.402 802.581 480.493 823.647 496.999 836.679C544.421 874.122 592.286 916.584 640.166 953.213C648.627 960.197 657.451 967.26 665.375 974.8L668.594 977.223C657.433 985.904 645.401 988.552 631.391 986.919C616.669 985.265 603.211 977.817 593.99 966.221C591.739 963.37 589.961 960.214 588.185 957.054C568.619 981.19 549.743 989.889 518.177 985.133C517.87 980.526 517.187 976.56 516.976 972.012L527.823 972.282C531.9 971.142 532.508 971.741 536.023 969.561C532.716 966.417 531.296 964.856 527.211 962.588C509.499 954.138 506.247 953.236 486.777 952.374C476.993 951.94 479.662 943.873 460.071 946.193C444.761 928.398 440.22 914.894 438.374 892.152C435.347 873.856 433.533 858.412 438.325 840.132C435.928 834.581 434.895 831.661 433.21 825.85Z"/><path fill="#F15E19" d="M433.21 825.85C432.761 816.597 432.996 800.885 437.668 792.606L439.726 791.294C456.402 802.581 480.493 823.647 496.999 836.679C544.421 874.122 592.286 916.584 640.166 953.213C622.957 961.271 599.808 961.684 598.374 936.672C598.064 931.276 599.831 925.368 601.128 920.135C587.55 931.214 568.566 939.591 551.798 929.937C545.218 926.224 540.517 919.9 538.859 912.53C536.099 900.202 541.449 890.584 547.623 880.602C529.056 887.095 488.406 909.803 479.225 873.949C475.373 858.909 482.645 844.653 490.873 832.209C477.809 833.487 461.606 834.868 448.858 830.818C445.679 829.807 439.133 825.399 434.48 823.494L433.21 825.85Z"/><path fill="#5798CD" d="M438.374 892.152C458.16 906.802 477.883 923.682 497.452 938.829C502.708 942.898 523.868 958.99 527.211 962.588C509.499 954.138 506.247 953.236 486.777 952.374C476.993 951.94 479.662 943.873 460.071 946.193C444.761 928.398 440.22 914.894 438.374 892.152Z"/><path fill="#FBEBE3" d="M536.023 969.561C537.369 970.067 540.078 970.743 540.341 972.353C539.395 973.936 529.745 972.542 527.823 972.282C531.9 971.142 532.508 971.741 536.023 969.561Z"/><path fill="#5798CD" d="M2239.16 749.253C2247.66 737.436 2251.74 722.393 2260.94 710.487C2273.9 693.837 2293.82 674.483 2314.93 668.753C2361.15 656.206 2387.02 694.976 2392.24 734.586C2392.67 745.749 2393.1 754.076 2391.08 765.216C2388.94 765.961 2389.31 765.429 2388.55 762.985C2383.73 750.543 2373.42 746.824 2361.73 752.477C2346.78 759.705 2337.08 781.82 2317.73 774.965C2313.03 773.415 2304.23 768.172 2300.41 768.647C2300.02 768.694 2297.77 770.154 2297.22 770.522C2284.95 760.147 2273.62 769.674 2265.7 779.942C2259.44 788.135 2254.73 797.401 2251.81 807.285C2248.94 818.293 2250.12 836.534 2245.91 843.996C2242.71 845.137 2235.3 842.866 2231.94 841.708C2229.05 837.788 2232.61 828.897 2227.1 819.925C2219.89 808.173 2212.51 812.745 2201.53 809.672C2197.52 808.55 2198.55 794.174 2193.87 788.712C2188.39 782.324 2173.24 782.225 2171.29 776.544C2167.18 764.56 2170.87 750.964 2176.02 740.163C2171.64 730.785 2162.66 692.321 2175.76 686.455C2193.65 678.443 2210.99 702.056 2217.85 715.885C2224.09 728.488 2224.47 734.967 2220.29 748.896L2239.16 749.253Z"/><path fill="#0567B1" d="M2297.05 726.548C2317.43 771.406 2341.35 719.279 2367.21 720.413C2378.08 720.89 2385.05 726.866 2392.24 734.586C2392.67 745.749 2393.1 754.076 2391.08 765.216C2388.94 765.961 2389.31 765.429 2388.55 762.985C2383.73 750.543 2373.42 746.824 2361.73 752.477C2346.78 759.705 2337.08 781.82 2317.73 774.965C2313.03 773.415 2304.23 768.172 2300.41 768.647C2300.02 768.694 2297.77 770.154 2297.22 770.522C2284.95 760.147 2273.62 769.674 2265.7 779.942C2259.44 788.135 2254.73 797.401 2251.81 807.285C2251.28 805.666 2250.73 804.052 2250.17 802.444C2242.21 778.853 2231.83 802.699 2229.68 774.713C2228.36 757.512 2205.15 762.219 2192.85 765.5C2206.7 754.321 2223.63 743.439 2242.44 752.273C2252.61 757.05 2261.38 766.835 2273.69 759.633C2286.04 752.416 2292.87 739.624 2297.05 726.548Z"/><path fill="#5798CD" d="M359.369 773.01C365.823 778.489 394.359 800.658 397.738 804.984C396.347 813.804 395.853 818.275 389.454 825.028C400.046 838.45 399.882 843.733 396.675 860.037C409.963 871.266 409.496 887.568 403.956 902.942C430.374 908.504 446.002 929.006 440.059 956.141C437.828 966.702 431.431 975.916 422.315 981.697C417.926 984.476 413.252 986.265 408.21 987.486C398.926 990.361 388.675 988.812 380.619 988.195C332.636 984.524 350.966 957.637 324.299 939.107C319.393 935.698 307.695 939.252 301.634 941.886C323.065 881.726 254.692 923.644 294.469 865.255C281.933 833.988 310.868 814.134 339.994 818.854C345.106 819.682 350.96 823.444 356.378 823.859L359.644 820.91C367.215 817.49 369.414 817.713 377.393 818.348C378.643 816.623 378.577 816.786 378.749 814.707C368.702 805.358 362.725 802.608 349.353 798.967C345.142 798.143 345.173 798.845 342.531 796.395C342.83 789.284 353.232 782.713 359.369 773.01Z"/><path fill="#0567B1" d="M359.369 773.01C365.823 778.489 394.359 800.658 397.738 804.984C396.347 813.804 395.853 818.275 389.454 825.028C400.046 838.45 399.882 843.733 396.675 860.037C409.963 871.266 409.496 887.568 403.956 902.942C430.374 908.504 446.002 929.006 440.059 956.141C437.828 966.702 431.431 975.916 422.315 981.697C417.926 984.476 413.252 986.265 408.21 987.486L407.816 985.855C421.608 965.532 415.046 940.213 391.495 930.71C382.904 927.243 375.719 927.913 366.648 928.324C378.98 910.093 373.617 892.369 352.083 885.411C336.106 880.25 322.234 887.23 308.4 894.861C317.419 881.679 333.932 870.007 350.889 870.348C377.39 870.881 385.599 860.716 376.891 834.382C374.774 827.978 366.453 823.14 359.644 820.91C367.215 817.49 369.414 817.713 377.393 818.348C378.643 816.623 378.577 816.786 378.749 814.707C368.702 805.358 362.725 802.608 349.353 798.967C345.142 798.143 345.173 798.845 342.531 796.395C342.83 789.284 353.232 782.713 359.369 773.01Z"/><path fill="#DEE9F1" d="M378.749 814.707C379.878 815.719 383.384 818.764 383.193 820.389C381.857 821.2 378.498 819.124 377.393 818.348C378.643 816.623 378.577 816.786 378.749 814.707Z"/><path fill="#5798CD" d="M1451.16 916.31C1438.47 904.824 1435.6 896.167 1433.22 878.847C1432.31 872.237 1430.35 854.137 1433.93 849.546C1438.86 851.15 1444.24 855.408 1448.86 858.137C1464.5 867.372 1476.63 869.951 1494.33 870.027C1501.69 869.261 1506.42 867.898 1513.32 865.43C1517 863.345 1520.45 861.261 1524.34 859.605C1570.54 893.194 1591.19 906.112 1625.85 851.607C1635.34 865.728 1648.63 892.64 1635.62 908.509C1628.58 919.906 1624.84 922.812 1612.74 928.337C1612.37 995.12 1524.8 1002.84 1482.88 971.811C1504.27 972.483 1530.41 974.821 1551.18 973.793C1544.15 968.735 1521.22 964.726 1511.91 965.118C1509.61 962.847 1507.14 960.745 1504.54 958.83C1490.98 948.773 1478.87 946.121 1462.59 948.418C1454.73 938.585 1451.38 928.813 1451.16 916.31Z"/><path fill="#5798CD" d="M1451.16 916.31C1438.47 904.824 1435.6 896.167 1433.22 878.847C1432.31 872.237 1430.35 854.137 1433.93 849.546C1438.86 851.15 1444.24 855.408 1448.86 858.137C1464.5 867.372 1476.63 869.951 1494.33 870.027C1496.54 877.332 1496.14 877.567 1492.52 884.467C1497.99 885.056 1512.39 886.018 1513.76 891.049C1520.87 917.048 1517.59 938.494 1556.11 936.475C1565.14 947.507 1570.28 950.855 1584.53 953.24C1574.8 965.561 1567.46 972.28 1551.18 973.793C1544.15 968.735 1521.22 964.726 1511.91 965.118C1509.61 962.847 1507.14 960.745 1504.54 958.83C1490.98 948.773 1478.87 946.121 1462.59 948.418C1454.73 938.585 1451.38 928.813 1451.16 916.31Z"/><path fill="#0567B1" d="M1494.33 870.027C1501.69 869.261 1506.42 867.898 1513.32 865.43C1514.25 869.991 1513.54 870.029 1516.44 873.235C1522.73 875.845 1529.25 873.074 1536.08 871.301C1526.96 885.802 1514.95 910.449 1534.87 925.676C1541.43 930.686 1552.19 926.887 1558.94 922.892C1581.45 936.804 1598.37 924.549 1606.18 902.484C1619.8 918.443 1621.28 910.21 1635.62 908.509C1628.58 919.906 1624.84 922.812 1612.74 928.337C1612.37 995.12 1524.8 1002.84 1482.88 971.811C1504.27 972.483 1530.41 974.821 1551.18 973.793C1567.46 972.28 1574.8 965.561 1584.53 953.24C1570.28 950.855 1565.14 947.507 1556.11 936.475C1517.59 938.494 1520.87 917.048 1513.76 891.049C1512.39 886.018 1497.99 885.056 1492.52 884.467C1496.14 877.567 1496.54 877.332 1494.33 870.027Z"/><path fill="#5798CD" d="M692.21 847.186C716.61 864.769 722.707 869.039 753.184 871.21C758.906 871.003 761.957 869.598 766.892 867.198C772.304 863.887 774.847 862.379 780.658 859.975C806.554 878.887 842.522 906.893 868.871 871.931C871.465 868.491 877.382 857.047 880.879 857.398C897.734 859.09 900.082 899.589 891.607 909.506C885.886 920.06 880.399 923.946 869.055 928.209C870.425 993.015 784.385 1002.72 742.853 972.129C753.638 972.181 763.662 972.591 774.44 973.127C782.942 972.963 791.447 973.091 799.94 973.511L801.903 969.951C791.867 967.377 780.876 964.188 770.576 964.398C766.912 961.087 762.888 958.197 758.581 955.781C747.535 949.723 737.042 946.833 724.77 950.423C723.562 949.106 722.387 947.76 721.245 946.385C714.192 937.859 711.534 928.39 712.542 917.441C692.335 900.079 689.516 872.436 692.21 847.186Z"/><path fill="#5798CD" d="M780.658 859.975C806.554 878.887 842.522 906.893 868.871 871.931C871.465 868.491 877.382 857.047 880.879 857.398C897.734 859.09 900.082 899.589 891.607 909.506C878.322 912.442 874.167 918.766 863.376 903.973C862.568 905.759 861.739 907.536 860.891 909.303C851.358 929.077 835.007 940.591 814.413 926.402C811.431 924.348 807.465 929.059 804.154 929.39C793.171 930.49 784.169 922.385 782.842 911.605C780.886 897.66 785.089 889.753 792.701 878.965C766.271 883.854 779.589 879.32 766.892 867.198C772.304 863.887 774.847 862.379 780.658 859.975Z"/><path fill="#0567B1" d="M766.892 867.198C779.589 879.32 766.271 883.854 792.701 878.965C785.089 889.753 780.886 897.66 782.842 911.605C784.169 922.385 793.171 930.49 804.154 929.39C807.465 929.059 811.431 924.348 814.413 926.402C835.007 940.591 851.358 929.077 860.891 909.303C861.739 907.536 862.568 905.759 863.376 903.973C874.167 918.766 878.322 912.442 891.607 909.506C885.886 920.06 880.399 923.946 869.055 928.209C870.425 993.015 784.385 1002.72 742.853 972.129C753.638 972.181 763.662 972.591 774.44 973.127C780.416 974.724 801.775 974.958 807.971 973.931C824.018 971.271 831.887 965.465 841.352 953.145C825.751 951.528 821.192 948.433 810.813 937.071C784.539 940.245 775.689 925.623 773.818 901.743C772.858 889.504 761.404 892.351 754.511 887.694L754.87 882.162C755.211 877.344 755.132 876.778 753.57 872.297L753.184 871.21C758.906 871.003 761.957 869.598 766.892 867.198Z"/><path fill="#DEE9F1" d="M801.903 969.951C803.503 970.352 807.726 971.058 808.527 972.359C808.524 973.681 801.038 973.489 799.94 973.511L801.903 969.951Z"/><path fill="#5798CD" d="M1937.09 769.382C1938.1 765.91 1937.58 761.591 1937.48 757.733C1937.1 743.574 1937.4 729.891 1944.97 717.354C1945.85 712.729 1958.72 708.704 1959.5 707.402C1972.78 685.29 1990 667.93 2016.66 662.69C2028.15 660.43 2046.39 661.155 2058.06 669.242C2068.88 676.517 2073.36 680.779 2079.74 692.235C2077.51 701.432 2056.66 704.968 2048.64 705.358C2050.25 714.464 2052.6 735.74 2045.92 742.869C2038.51 742.692 2037.14 743.775 2031.49 748.263C2009.92 777.33 2003.92 840.115 2035.68 864.339C2074.53 893.979 2089.26 813.775 2124.11 832.167C2140.53 840.834 2139.99 872.859 2135.51 888.066C2134.58 886.182 2134.35 884.876 2133.8 882.856L2132.9 879.948C2124.54 853.002 2093.99 862.999 2083.64 884.419C2072.57 868.798 2055.93 882.439 2044.07 877.779C2030.65 872.509 2010.15 853.885 2003.55 841.16C1998.41 829.08 1992.78 826.84 1980.2 826.919C1969.98 802.43 1955.61 798.463 1931.32 806.95C1931.56 794.226 1933.5 781.591 1937.09 769.382Z"/><path fill="#E64012" d="M1984.03 747.532C1995.67 753.852 2006.39 755.507 2018.82 750C2022.89 748.197 2026.08 746.183 2030.4 744.925L2031.49 748.263C2009.92 777.33 2003.92 840.115 2035.68 864.339C2074.53 893.979 2089.26 813.775 2124.11 832.167C2140.53 840.834 2139.99 872.859 2135.51 888.066C2134.58 886.182 2134.35 884.876 2133.8 882.856L2132.9 879.948C2124.54 853.002 2093.99 862.999 2083.64 884.419C2072.57 868.798 2055.93 882.439 2044.07 877.779C2030.65 872.509 2010.15 853.885 2003.55 841.16C1998.41 829.08 1992.78 826.84 1980.2 826.919C1969.98 802.43 1955.61 798.463 1931.32 806.95C1931.56 794.226 1933.5 781.591 1937.09 769.382C1959.4 793.182 1977.18 769.505 1984.03 747.532Z"/><path fill="#0567B1" d="M2010.59 688.406C2024.09 690.668 2053.43 699.719 2057.56 679.116C2058.24 675.711 2056.14 672.866 2058.06 669.242C2068.88 676.517 2073.36 680.779 2079.74 692.235C2077.51 701.432 2056.66 704.968 2048.64 705.358C2050.25 714.464 2052.6 735.74 2045.92 742.869C2038.51 742.692 2037.14 743.775 2031.49 748.263L2030.4 744.925C2029.28 743.468 2029.13 744.191 2030.15 742.418C2038.76 727.355 2045.88 704.656 2024.04 696.95C2021.01 695.878 2013.24 690.299 2010.59 688.406Z"/><path fill="#5798CD" d="M2205.94 563.656C2210.83 552.059 2216.15 544.05 2228.81 537.405C2254.95 523.681 2288.56 541.094 2279.79 573.022C2278.99 575.92 2276.11 579.311 2274.89 583.331C2277 601.212 2269.85 614.847 2256.04 626.118C2264.45 640.663 2267.71 661.984 2256.55 676.007C2251.97 680.559 2257.74 689.811 2256.92 696.242C2255.74 705.417 2250.1 716.713 2246.41 725.105C2239.4 711.969 2232.99 709.88 2218.8 709.922C2221.08 700.525 2221.32 690.684 2218.18 683.667C2208.84 662.832 2184.56 671.191 2172.87 672.956C2167.73 673.731 2160.34 633.38 2158.41 624.008C2145.8 619.136 2135.68 612.41 2133.04 598.292C2130.14 582.738 2138.6 573.416 2153.04 570.781C2165.78 548.378 2187.94 545.74 2205.94 563.656Z"/><path fill="#0567B1" d="M2247.17 577.669C2256.84 585.285 2263.43 585.52 2274.89 583.331C2277 601.212 2269.85 614.847 2256.04 626.118C2264.45 640.663 2267.71 661.984 2256.55 676.007C2255.39 674.229 2254.74 657.261 2250.63 653.477C2245.43 648.675 2235.42 648.148 2228.97 648.093C2234.18 641.058 2235.82 636.934 2239 628.793C2237 629.338 2234.98 629.827 2232.95 630.261C2218.78 633.285 2210.88 628.803 2199.35 621.335C2195.77 623.735 2191.53 625.296 2187.54 626.953C2184.68 625.61 2184.69 625.722 2182.57 623.476C2193.52 617.058 2196.82 612.757 2200.85 600.981C2201.58 602 2202.33 603.003 2203.11 603.991C2215.7 620.001 2234.16 617.719 2242.33 599.335C2245.75 591.648 2246.62 586.013 2247.17 577.669Z"/><path fill="#166FB7" d="M2187.54 626.953C2185.74 626.856 2173.73 627.831 2173.91 625.555C2174.52 625.214 2181.7 623.543 2182.57 623.476C2184.69 625.722 2184.68 625.61 2187.54 626.953Z"/><path fill="#F15E19" d="M1555.96 732.132C1573.77 725.456 1587.23 725.63 1602.03 739.118C1612.82 736.373 1623.12 734.593 1634.15 737.031C1637.63 738.463 1640.19 739.277 1641.49 743.108C1648.38 763.377 1647.37 791.054 1639.94 810.684C1631.88 831.982 1605.73 848.712 1583.18 849.035C1561.79 854.257 1542.76 844.897 1525.52 833.496C1525.29 834.241 1525.04 834.983 1524.79 835.722C1517.05 858.602 1497.41 869.868 1472.98 862.6C1462.03 859.344 1457.22 850.721 1452.41 840.953C1444.23 840.15 1432.43 840.611 1428.74 831.767C1425.1 823.018 1422.27 784.998 1434.19 782.464C1457.08 777.599 1484.09 790.194 1504.95 799.521C1529.62 795.952 1548.56 793.666 1572.34 786.065C1573.11 775.99 1572.15 768.19 1570.61 758.382C1567.74 746.318 1564.34 740.876 1555.96 732.132Z"/><path fill="#E64012" d="M1634.15 737.031C1637.63 738.463 1640.19 739.277 1641.49 743.108C1648.38 763.377 1647.37 791.054 1639.94 810.684C1631.88 831.982 1605.73 848.712 1583.18 849.035C1579.4 848.957 1575.61 848.817 1571.84 848.614C1571.8 845.973 1580.4 844.165 1583.85 836.562C1583.74 831.653 1582.97 832.058 1580.06 827.204C1583.07 823.498 1592.83 825.743 1598.17 816.1C1608.17 798.037 1598.25 780.036 1582.76 769.827C1605.09 774.544 1626.22 773.623 1631.23 747.243C1632.09 742.743 1631.29 740.465 1634.15 737.031Z"/><path fill="#5798CD" d="M1555.96 732.132C1573.77 725.456 1587.23 725.63 1602.03 739.118C1590.37 744.517 1580.91 750.783 1570.61 758.382C1567.74 746.318 1564.34 740.876 1555.96 732.132Z"/><path fill="#F15E19" d="M816.494 731.57C837.564 724.169 847.093 725.09 863.864 739.506C878.112 736.036 884.175 735.023 898.475 737.895C901.008 744.538 901.85 747.009 903.162 753.936C909.449 787.742 902.664 816.518 874.863 837.988C865.456 843.909 854.955 847.879 843.984 849.662C820.162 853.401 800.144 847.849 780.854 833.897C780.33 835.501 779.769 837.091 779.17 838.668C766.863 870.925 724.966 875.021 709.818 841.345C680.253 838.303 683.174 828.05 682.911 803.015C682.37 751.713 754.866 798.799 775.605 802.472C781.339 803.487 824.382 787.887 832.887 785.292C833.297 777.738 833.245 770.166 831.964 762.706C827.218 745.044 826.759 745.5 816.494 731.57Z"/><path fill="#E64012" d="M881.602 798.371C874.604 783.142 858.456 774.53 856.364 766.883C861.995 765.198 871.586 769.212 882.48 765.759C893.701 762.203 896.801 756.817 903.162 753.936C909.449 787.742 902.664 816.518 874.863 837.988C869.081 834.703 863.764 832.989 857.564 830.767C876.245 824.804 880.769 817.94 881.602 798.371Z"/><path fill="#5798CD" d="M816.494 731.57C837.564 724.169 847.093 725.09 863.864 739.506C860.344 741.648 835.744 759.769 831.964 762.706C827.218 745.044 826.759 745.5 816.494 731.57Z"/><path fill="#5798CD" d="M2169.09 835.22C2167.8 824.715 2164.48 809.786 2180.26 812.256C2205.65 816.231 2208.73 823.633 2211.09 846.589C2224.33 850.076 2225.82 855.842 2232.55 866.681C2234.44 869.73 2235.51 869.235 2239.11 870.067C2257.49 873.063 2260.55 888.027 2260.76 903.565C2281.6 914.104 2274.92 944.667 2266.68 961.259C2254.97 984.818 2216.28 992.556 2192.89 989.965C2163.03 987.938 2150.06 967.22 2151.47 939.26C2141.37 922.134 2146.69 901.373 2161.4 888.787C2159.95 869.258 2160.15 852.955 2169.09 835.22Z"/><path fill="#0567B1" d="M2239.11 870.067C2257.49 873.063 2260.55 888.027 2260.76 903.565C2281.6 914.104 2274.92 944.667 2266.68 961.259C2254.97 984.818 2216.28 992.556 2192.89 989.965C2207.37 983.495 2224.9 983.646 2233.27 967.13C2239.43 954.977 2236.5 937.503 2222.72 931.928C2212.25 927.692 2202.33 931.807 2192.67 936.175C2198.49 930.422 2202.12 926.765 2209.61 922.702C2216.69 918.683 2230.68 918.254 2235.84 911.889C2239.73 905.925 2234.83 894.996 2230.63 890.644C2220.25 879.893 2206.96 885.38 2195.21 889.631C2195.84 888.988 2196.46 888.349 2197.09 887.714C2209.96 874.777 2221.05 870.078 2239.11 870.067Z"/><path fill="#5798CD" d="M612.58 561.181C617.367 552.543 620.067 547.15 628.129 541.065C636.655 534.755 647.339 532.093 657.829 533.664C675.93 536.289 690.698 553.463 684.514 572.902C683.402 576.398 681.476 577.832 681.09 581.896C682.872 598.467 678.081 609.449 665.975 620.43C676.473 645.097 672.789 654.146 657.853 674.833C668.898 688.572 667.31 706.365 663.766 722.424C662.044 717.888 662.079 719.178 658.911 715.569C663.08 701.33 640.36 701.109 632.367 700.026C630.366 697.477 631.129 692.432 630.637 689.084C627.782 669.668 606.493 670.714 591.686 672.163C584.047 659.652 575.14 638.011 568.754 624.055C534.666 617.649 527.95 574.095 560.459 570.561C573.775 548.62 592.474 544.012 612.58 561.181Z"/><path fill="#0567B1" d="M649.15 579.193C650.845 580.198 652.567 581.159 654.313 582.075C664.753 587.473 670.972 585.049 681.09 581.896C682.872 598.467 678.081 609.449 665.975 620.43C676.473 645.097 672.789 654.146 657.853 674.833L656.654 675.577C643.912 674.032 663.204 648.685 623.608 650.117C632.097 642.393 632.852 640.816 637.539 630.129C635.931 630.491 634.318 630.828 632.7 631.14C619.801 633.588 612.081 627.736 602.011 620.915C593.643 627.265 587.899 629.416 577.802 625.283L577.392 624.101C589.773 616.571 594.455 625.673 602.692 604.467L603.133 603.314C629.452 633.772 645.799 607.672 649.15 579.193Z"/><path fill="#E64012" d="M1669.01 798.639C1678.97 788.164 1705.21 801.866 1713.37 810.147C1720.69 817.568 1722.09 822.061 1724.45 831.749C1734.1 828.281 1750.55 820.907 1755.05 835.583C1757.2 842.574 1754.14 858.138 1751.44 864.763C1751.28 865.102 1749.79 868.331 1749.79 868.331C1752.46 875.755 1754.29 882.303 1755.28 890.216C1756.07 896.459 1755.02 901.155 1753.77 907.315C1758.5 908.607 1763.01 909.727 1767.05 912.667C1788.03 927.922 1789.63 961.91 1770.88 979.755C1724.37 1014.43 1739.97 941.18 1696.99 954.376C1698.3 923.474 1688.14 917.719 1660.99 919.96C1659.41 920.09 1658.43 917.417 1657.87 916.208C1657.65 909.613 1661.41 900.611 1664.33 894.764C1667.41 890.927 1670.42 887.034 1673.35 883.089C1663.88 862.613 1664.73 844.189 1675.55 824.613C1670.31 814.523 1668.47 809.745 1669.01 798.639Z"/><path fill="#F15E19" d="M1673.35 883.089C1684.18 871.191 1693.86 863.678 1711.2 866.424C1723.63 868.393 1721.81 878.023 1714.28 885.251C1712.16 887.25 1710.03 889.233 1707.88 891.201C1732.12 889.722 1741.79 906.421 1729.29 926.883C1741.98 927.378 1752.9 929.216 1762.04 939.16C1767.81 945.38 1770.83 953.669 1770.4 962.144C1770.17 967.121 1768.18 972.251 1766.44 976.877L1770.88 979.755C1724.37 1014.43 1739.97 941.18 1696.99 954.376C1698.3 923.474 1688.14 917.719 1660.99 919.96C1659.41 920.09 1658.43 917.417 1657.87 916.208C1657.65 909.613 1661.41 900.611 1664.33 894.764C1667.41 890.927 1670.42 887.034 1673.35 883.089Z"/><path fill="#5798CD" d="M1664.33 894.764C1694.84 919.68 1724.86 945.13 1756.1 969.169C1759.35 971.671 1763.02 974.675 1766.44 976.877L1770.88 979.755C1724.37 1014.43 1739.97 941.18 1696.99 954.376C1698.3 923.474 1688.14 917.719 1660.99 919.96C1659.41 920.09 1658.43 917.417 1657.87 916.208C1657.65 909.613 1661.41 900.611 1664.33 894.764Z"/><path fill="#5798CD" d="M1669.01 798.639C1678.97 788.164 1705.21 801.866 1713.37 810.147C1720.69 817.568 1722.09 822.061 1724.45 831.749C1734.1 828.281 1750.55 820.907 1755.05 835.583C1757.2 842.574 1754.14 858.138 1751.44 864.763C1727.28 842.83 1695.01 817.742 1669.01 798.639Z"/><path fill="#5798CD" d="M741.254 685.454C779.439 652.942 837.364 642.992 873.019 684.727C882.952 695.157 888.622 708.504 891.219 722.536L877.837 729.858C869.86 717.917 861.462 710.807 846.964 717.645C842.772 715.595 842.015 713.749 836.895 712.934C824.272 710.923 816.547 718.692 809.794 727.862C769.353 719.154 763.476 760.774 759.787 790.612C740.855 769.887 719.078 758.589 690.51 766.178C693.975 744 710.358 697.966 739.951 699.568C744.516 699.815 753.38 706.168 757.928 707.599C773.035 704.509 768.694 701.274 785.127 705.091L785.24 703.795L781.721 699.713C771.992 694.839 767.348 697.15 763.962 695.495C751.09 689.201 757.289 688.001 741.254 685.454Z"/><path fill="#0567B1" d="M741.254 685.454C779.439 652.942 837.364 642.992 873.019 684.727C871.466 686.884 871.182 687.73 868.642 688.475C859.069 681.295 851.054 677.833 839.094 682.187C836.86 684.196 836.519 684.2 836.072 687.161C825.38 680.727 822.086 676.003 807.48 677.663C804.685 677.98 799.632 679.517 797.486 679.315C789.564 683.498 785.167 691.837 781.721 699.713C771.992 694.839 767.348 697.15 763.962 695.495C751.09 689.201 757.289 688.001 741.254 685.454Z"/><path fill="#DEE9F1" d="M797.486 679.315C805.573 673.723 812.921 673.565 822.507 674.846C831.457 676.042 833.655 679.889 839.094 682.187C836.86 684.196 836.519 684.2 836.072 687.161C825.38 680.727 822.086 676.003 807.48 677.663C804.685 677.98 799.632 679.517 797.486 679.315Z"/><path fill="#F5F5F4" d="M839.094 682.187C851.054 677.833 859.069 681.295 868.642 688.475C868.184 690.455 867.725 690.513 865.522 690.839C857.397 692.041 850.624 695.59 843.999 700.26C841.159 694.411 839.98 692.385 836.072 687.161C836.519 684.2 836.86 684.196 839.094 682.187Z"/><path fill="#5798CD" d="M1481.27 686.061C1508.36 664.275 1546.97 649.216 1581.39 661.346C1594.66 666.021 1603.95 674.104 1613.73 683.732C1623.54 696.689 1629.35 706.782 1631.6 723.065C1626.48 725.139 1623.03 726.462 1618.24 729.249C1602.47 706.314 1604.4 717.951 1586.97 715.379C1566.06 712.292 1563.65 709.926 1549.5 727.424C1516.14 721.485 1506.88 749.331 1502.42 776.767C1501.61 781.829 1500.96 786.916 1500.48 792.019C1484.95 767.992 1458.94 757.971 1431.49 766.687C1435.84 743.318 1446.31 718.376 1465.4 703.426C1476.94 694.39 1488.57 701.083 1499.18 707.112C1500.81 708.04 1511.65 702.779 1514 702.874C1518.33 702.687 1522.16 704.008 1526.64 704.667L1526.86 703.325L1523.91 699.545C1513.77 694.001 1508.35 697.675 1504.77 695.74C1491.44 688.538 1497.14 688.552 1481.27 686.061Z"/><path fill="#0567B1" d="M1481.27 686.061C1508.36 664.275 1546.97 649.216 1581.39 661.346C1594.66 666.021 1603.95 674.104 1613.73 683.732C1611.81 687.278 1612.46 687.597 1609.62 688.666L1608.96 688.567C1598.78 681.079 1594.55 680.695 1584.47 683.23C1585.16 683.057 1571.94 676.666 1568.58 675.844C1563.97 676.182 1561.89 675.516 1558.15 677.574C1554.37 677.913 1545.37 678.843 1542 678.676C1528.52 688.561 1531.41 691.249 1523.91 699.545C1513.77 694.001 1508.35 697.675 1504.77 695.74C1491.44 688.538 1497.14 688.552 1481.27 686.061Z"/><path fill="#DEE9F1" d="M1542 678.676C1550.96 674.157 1558.62 673.393 1568.58 675.844C1563.97 676.182 1561.89 675.516 1558.15 677.574C1554.37 677.913 1545.37 678.843 1542 678.676Z"/><path fill="#F5F5F4" d="M1568.58 675.844C1571.94 676.666 1585.16 683.057 1584.47 683.23C1594.55 680.695 1598.78 681.079 1608.96 688.567C1608.52 689.873 1608.77 690.135 1607.28 690.321C1598.81 691.378 1594.35 693.544 1587.57 698.5C1579.03 684.569 1574.14 680.988 1558.15 677.574C1561.89 675.516 1563.97 676.182 1568.58 675.844Z"/><path fill="#5798CD" d="M1862.04 860.921L1858.9 859.554C1858.76 856.351 1862.82 844.44 1863.19 836.15C1871.64 842.866 1884.23 852.442 1891.78 859.739C1888.81 870.187 1891.54 866.959 1897.71 875.307C1904.36 884.289 1902.82 895.725 1901.7 906.141C1904.78 907.508 1909.74 909.47 1912.3 911.485C1936.73 930.713 1936.9 964.576 1911.5 982.03C1908.78 983.579 1907.1 984.199 1904.2 985.306C1890.75 993.076 1858.98 990.581 1852.46 973.014C1844.02 950.252 1831.03 936.615 1805.03 940.963C1797.47 927.112 1794.12 906.544 1812.77 898.305C1814.89 897.369 1819.5 889.092 1821.55 886.63C1831.63 874.496 1851.13 865.078 1864.75 877.272C1871.07 870.423 1875.17 872.278 1882.87 868.12L1883.2 866.791C1878.12 863.317 1868.12 861.915 1862.04 860.921Z"/><path fill="#0567B1" d="M1862.04 860.921L1858.9 859.554C1858.76 856.351 1862.82 844.44 1863.19 836.15C1871.64 842.866 1884.23 852.442 1891.78 859.739C1888.81 870.187 1891.54 866.959 1897.71 875.307C1904.36 884.289 1902.82 895.725 1901.7 906.141C1904.78 907.508 1909.74 909.47 1912.3 911.485C1936.73 930.713 1936.9 964.576 1911.5 982.03L1909.42 975.783C1914.66 963.819 1912.16 949.28 1900.6 941.881C1886.03 932.554 1872.2 935.72 1856.4 938.753C1864.66 931.453 1880.01 925.183 1881.53 915.32C1884.15 898.325 1867.28 889.695 1854.39 887.533C1859.17 883.589 1861.06 882.183 1864.75 877.272C1871.07 870.423 1875.17 872.278 1882.87 868.12L1883.2 866.791C1878.12 863.317 1868.12 861.915 1862.04 860.921Z"/><path fill="#166FB7" d="M1904.2 985.306C1903.23 983.93 1908.11 977.951 1909.42 975.783L1911.5 982.03C1908.78 983.579 1907.1 984.199 1904.2 985.306Z"/><path fill="#0567B1" d="M596.119 834.724C599.607 804.455 596.436 799.132 591.02 771.502C595.022 764.695 618.178 779.134 623.375 782.026C633.713 776.441 644.133 776.646 652.254 785.643L651.867 787.093L655.144 788.614C659.205 802.712 658.656 811.877 653.494 825.549C661.957 836.577 663.299 844.657 660.228 858.311C658.796 861.554 658.146 863.277 656.109 866.215C670.501 878.116 668.846 891.577 664.819 908.272C666.991 910.564 673.06 916.663 674.433 918.941C682.646 927.808 684.525 937.237 683.967 948.94C681.062 963.794 678.633 966.364 668.594 977.223L665.375 974.8C659.484 949.835 658.881 934.631 629.059 938.37C631.368 913.578 622.316 906.186 600.286 905.375C595.049 905.182 597.07 891.678 593.817 886.457C588.265 877.548 583.824 875.548 574.28 871.98C586.16 865.165 590.32 855.912 594.979 843.627C609.573 845.903 613.693 847.831 620.941 861.011C623.297 860.895 625.655 860.838 628.014 860.839C637.481 860.906 643.811 861.743 650.754 868.734L652.235 865.197C648.983 849.877 637.807 849.888 625.164 853.304C619.348 837.088 612.182 834.9 596.119 834.724Z"/><path fill="#5798CD" d="M594.979 843.627C609.573 845.903 613.693 847.831 620.941 861.011C623.297 860.895 625.655 860.838 628.014 860.839C637.481 860.906 643.811 861.743 650.754 868.734C641.063 873.065 627.324 876.803 619.923 883.439C621.043 884.97 621.403 885.338 622.767 886.718C647.851 881.443 666.881 899.132 651.682 922.828C657.887 923.209 660.803 923.316 666.749 925.695C672.679 926.481 677.034 930.507 676.623 930.484C678.956 929.104 674.899 923.773 674.433 918.941C682.646 927.808 684.525 937.237 683.967 948.94C681.062 963.794 678.633 966.364 668.594 977.223L665.375 974.8C659.484 949.835 658.881 934.631 629.059 938.37C631.368 913.578 622.316 906.186 600.286 905.375C595.049 905.182 597.07 891.678 593.817 886.457C588.265 877.548 583.824 875.548 574.28 871.98C586.16 865.165 590.32 855.912 594.979 843.627Z"/><path fill="#166FB7" d="M674.433 918.941C682.646 927.808 684.525 937.237 683.967 948.94C676.704 936.717 679.751 936.07 667.46 926.273L666.749 925.695C672.679 926.481 677.034 930.507 676.623 930.484C678.956 929.104 674.899 923.773 674.433 918.941Z"/><path fill="#166FB7" d="M608.912 892.04C611.291 889.96 617.215 884.539 619.923 883.439C621.043 884.97 621.403 885.338 622.767 886.718C618.859 888.78 613.125 890.552 608.912 892.04Z"/><path fill="#5798CD" d="M596.119 834.724C599.607 804.455 596.436 799.132 591.02 771.502C595.022 764.695 618.178 779.134 623.375 782.026L623.264 782.835C622.787 785.466 622.346 786.009 623.292 788.346C627.949 792.711 633.529 796.977 634.906 803.205C633.699 805.56 633.02 806.513 629.924 807.294C612.574 811.672 611.041 812.578 598.684 824.943C612.814 818.742 637.146 808.971 636.253 834.045C646.999 841.036 651.099 827.893 655.332 855.967C654.554 859.011 653.695 862.099 653.143 865.185L652.235 865.197C648.983 849.877 637.807 849.888 625.164 853.304C619.348 837.088 612.182 834.9 596.119 834.724Z"/><path fill="#5798CD" d="M623.375 782.026C633.713 776.441 644.133 776.646 652.254 785.643L651.867 787.093C645.402 786.972 625.929 783.561 623.292 788.346C622.346 786.009 622.787 785.466 623.264 782.835L623.375 782.026Z"/><path fill="#5798CD" d="M532.284 663.515C562.14 656.399 586.531 681.762 600.663 705.095L602.907 701.906C600.971 694.965 599.544 689.74 596.836 682.998C607.304 684.694 616.129 686.769 623.119 695.767C625.847 699.279 631.759 712.336 633.855 713.571C643.374 709.751 650.447 709.997 658.911 715.569C662.079 719.178 662.044 717.888 663.766 722.424C659.899 731.568 660.03 731.817 654.429 740.132C661.509 754.633 661.874 760.066 658.713 776.15C657.742 781.182 656.808 783.796 655.144 788.614L651.867 787.093L652.254 785.643C652.876 771.778 633.765 770.367 623.47 776.21C611.868 760.907 599.746 756.014 580.768 755.996C565.902 742.681 560.569 701.981 530.368 720.93C525.866 711.783 523.719 705.761 513.806 701.968C502.34 691.624 508.142 691.896 490.284 683.898C503.683 672.748 515.154 667.259 532.284 663.515Z"/><path fill="#0567B1" d="M633.855 713.571C643.374 709.751 650.447 709.997 658.911 715.569C662.079 719.178 662.044 717.888 663.766 722.424C659.899 731.568 660.03 731.817 654.429 740.132C661.509 754.633 661.874 760.066 658.713 776.15C658.42 776.282 657.992 776.543 657.702 776.501C657.199 775.913 656.852 774.182 656.747 773.565C655.072 763.636 652.273 759.929 642.825 757.376C641.953 757.141 643.552 751.692 643.37 750.998C643.649 744.068 642.325 738.882 637.726 733.572C630.863 725.65 619.076 726.21 609.432 725.501C619.396 721.289 624.441 720.088 633.855 713.571Z"/><path fill="#0567B1" d="M490.284 683.898C503.683 672.748 515.154 667.259 532.284 663.515C524.864 672.805 518.579 675.334 516.051 690.013C515.207 694.914 516.108 697.473 513.806 701.968C502.34 691.624 508.142 691.896 490.284 683.898Z"/><path fill="#DEE9F1" d="M602.907 701.906C604.14 706.187 605.252 711.53 605.86 716.002C604.708 713.824 601.19 707.111 600.663 705.095L602.907 701.906Z"/><path fill="#5798CD" d="M439.554 778.795C439.92 759.503 444.988 740.591 454.318 723.701C465.814 703.078 479.556 690.485 503.271 704.494C515.129 711.499 517.66 720.534 520.936 733.257C539.817 730.764 554.143 733.073 564.559 750.116C553.877 753.262 551.218 753.725 543.001 761.294C535.727 771.624 532.606 784.326 531.761 796.837C530.381 808.103 529.734 818.525 530.805 829.928C531.194 834.06 532.348 837.148 532.77 841.367L531.197 842.306C527.997 842.244 518.157 842.57 516.195 841.237C519.221 816.747 496.786 810.075 477.058 811.675C478.519 783.601 467.452 772.983 439.554 778.795Z"/><path fill="#0567B1" d="M455.786 765.374C467.178 748.555 485.782 740.251 506.115 740.871C522.304 741.365 532.567 749.718 543.001 761.294C535.727 771.624 532.606 784.326 531.761 796.837C530.995 798.055 531.137 797.747 529.986 798.699C529.367 798.278 524.345 794.993 524.178 794.842C522.843 791.862 509.508 791.965 509.451 791.11C507.739 765.821 498.532 748.642 455.786 765.374Z"/><path fill="#5798CD" d="M2082.75 699.42C2092.82 686.206 2122.3 646.671 2136.31 677.892C2137.43 685.914 2138.04 693.329 2135.98 701.223C2134.83 707.782 2132.25 711.451 2128.44 716.637C2142.55 742.59 2132.1 769.455 2106.59 782.931C2106.12 783.179 2105.65 783.418 2105.17 783.649C2102.37 784.74 2099.59 785.626 2096.77 786.652C2058.01 793.213 2061.12 759.069 2045.92 742.869C2052.6 735.74 2050.25 714.464 2048.64 705.358C2056.66 704.968 2077.51 701.432 2079.74 692.235L2082.75 699.42Z"/><path fill="#0567B1" d="M2136.31 677.892C2137.43 685.914 2138.04 693.329 2135.98 701.223C2134.83 707.782 2132.25 711.451 2128.44 716.637C2142.55 742.59 2132.1 769.455 2106.59 782.931C2106.12 783.179 2105.65 783.418 2105.17 783.649C2101.93 782.89 2101.15 783.311 2099.05 780.834C2108.25 769.717 2114.26 756.027 2107.6 741.826C2101.05 727.88 2085.38 723.43 2072.03 718.445C2098.63 713.757 2119.73 710.598 2133.76 685.074C2134.15 682.172 2135.16 680.585 2136.31 677.892Z"/><path fill="#166FB7" d="M2136.31 677.892C2137.43 685.914 2138.04 693.329 2135.98 701.223C2135.39 694.759 2137 688.555 2133.76 685.074C2134.15 682.172 2135.16 680.585 2136.31 677.892Z"/><path fill="#166FB7" d="M2096.77 786.652C2096.14 786.5 2095.5 786.362 2094.87 786.237C2094.17 786.132 2093.35 786.055 2092.94 785.39C2094.32 783.519 2096.97 781.889 2099.05 780.834C2101.15 783.311 2101.93 782.89 2105.17 783.649C2102.37 784.74 2099.59 785.626 2096.77 786.652Z"/><path fill="#5798CD" d="M255.367 966.958C252.951 964.329 250.59 957.455 249.907 954.008C248.237 946.733 248.313 932.048 253.532 926.216C268.359 909.648 291.652 932.933 290.114 950.515C289.926 952.666 291.784 952.828 293.35 952.548C302.802 950.859 314.507 950.641 323.199 955.316C328.554 958.582 340.588 967.719 333.267 974.3C311.466 993.896 272.369 990.767 255.367 966.958Z"/><path fill="#0567B1" d="M323.199 955.316C328.554 958.582 340.588 967.719 333.267 974.3C311.466 993.896 272.369 990.767 255.367 966.958C257.46 966.021 257.653 965.976 259.993 966.987C276.588 974.154 305.847 980.844 319.107 964.569C321.214 961.982 322.18 958.395 323.199 955.316Z"/><path fill="#5798CD" d="M1171.29 926.047C1192.46 923.7 1205.32 941.917 1212.49 959.021C1221.25 959.101 1243.4 958.986 1243.65 971.179C1241.53 976.612 1236.17 979.619 1231.37 982.7C1181.63 1005.25 1141.95 951.906 1171.29 926.047Z"/><path fill="#5798CD" d="M1655.01 934.179C1675.61 935.504 1683.53 947.846 1689.29 966.055C1697.54 965.623 1716.71 967.713 1717.73 977.911C1714.73 983.388 1709.94 983.926 1703.85 985.758C1680.97 991.872 1654 989.163 1643.84 964.418C1641.21 958.004 1639.86 950.282 1643.01 943.753C1645.81 937.948 1649.26 936.13 1655.01 934.179Z"/><path fill="#5798CD" d="M1817.77 797.022C1823.77 802.946 1828.72 807.026 1835.2 812.332C1843.32 818.994 1856.01 828.96 1863.19 836.15C1862.82 844.44 1858.76 856.351 1858.9 859.554L1862.04 860.921C1841.68 860.092 1835.11 864.431 1820.47 877.835C1816.96 862.193 1816.45 846.506 1824.72 832.309C1819.31 819.486 1818.45 810.908 1817.77 797.022Z"/><path fill="#5798CD" d="M1319.18 772.74C1324.77 775.104 1346.97 793.101 1350.98 797.607C1351.97 798.363 1352.95 799.14 1353.91 799.937C1359.97 805.115 1387.28 827.691 1390.56 831.939C1377.58 826.481 1382.41 821.723 1366.58 830.735C1352.67 814.398 1343.26 815.759 1325.38 825.787C1328.49 800.528 1326.52 794.811 1319.18 772.74Z"/><path fill="#5798CD" d="M1793.7 953.277C1813.21 951.189 1828.56 957.926 1839.05 974.48C1841.86 978.924 1835.73 980.806 1832.32 982.208C1815.63 986.437 1797.58 984.914 1787.73 968.022C1783.65 961.037 1786.66 955.908 1793.7 953.277Z"/><path fill="#5798CD" d="M2294.66 969.297C2309.38 970.147 2321.56 973.445 2334.48 980.768C2330.49 982.476 2326.9 983.98 2322.86 985.542C2314.3 987.134 2299.65 988.741 2292.63 983.633C2283.94 977.309 2284.23 971.369 2294.66 969.297Z"/><path fill="#0567B1" d="M479.578 970.244C491.664 970.973 504.769 971.484 516.976 972.012C517.187 976.56 517.87 980.526 518.177 985.133C500.92 981.901 494.246 979.358 479.578 970.244Z"/><path fill="#5798CD" d="M1046.75 838.634C1056.53 839.317 1057.98 840.023 1067.31 843.224L1057.75 853.402C1055.18 856.26 1052.55 859.07 1049.87 861.83C1048.33 853.419 1047.76 847.016 1046.75 838.634Z"/><path fill="#5798CD" d="M1937.86 815.328C1948.3 814.526 1965.47 819.051 1972.45 826.97C1972.51 827.872 1972.18 827.544 1971.34 827.873C1968.23 829.227 1965.11 830.545 1961.97 831.825C1958.44 828.299 1956.88 826.618 1952.59 823.777C1946.23 819.567 1942.48 820.961 1937.86 815.328Z"/></svg>