<?xml version="1.0" encoding="utf-8" ?><svg xmlns="http://www.w3.org/2000/svg" xmlns:xlink="http://www.w3.org/1999/xlink" width="2688" height="1536" viewBox="0 0 2688 1536"><path fill="#EBE5E0" d="M1190.13 582.68C1206.14 565.824 1229.78 561.767 1247.31 578.867C1255.34 586.791 1259.95 597.532 1260.18 608.807C1260.45 631.797 1245.28 630.466 1239.94 642.017L1240.01 644.937C1241.95 650.52 1241.48 656.522 1243.38 658.978C1249.5 662.53 1250.67 664.07 1254.31 670.607C1256.69 686.322 1252.11 691.095 1238.97 698.62C1243.52 702.787 1247.34 706.444 1251.63 710.871C1262.38 703.181 1265.7 702.368 1278.53 706.823C1285.96 697.993 1293.04 692.094 1305.2 691.147C1313.75 690.443 1322.23 693.223 1328.7 698.856C1331.94 701.64 1333.71 704.194 1335.96 707.844C1336.96 710.833 1340.07 721.767 1341.08 723.551C1369.84 712.918 1387.57 728.682 1385.69 758.406C1397.99 768.391 1405.4 774.742 1392.6 789.149C1391.8 790.045 1390.99 790.932 1390.17 791.808C1413.92 813.072 1410.77 829.281 1390.04 851.121C1395.34 860.035 1399.17 868.495 1396.69 879.224C1393.37 893.591 1381.13 898.696 1371.15 906.347C1370.53 920.798 1371.6 927.555 1357.18 934.855C1350.97 937.975 1344.4 936.966 1337.99 935.003C1319.74 956.684 1308.02 958.083 1282.73 946.672C1275.71 952.272 1272.3 954.227 1264.04 957.834C1249.25 959.641 1240.09 959.62 1226.22 952.53C1212.04 962.485 1199.94 967.612 1182.24 964.24C1163.27 962.468 1151.33 946.989 1145.86 930.198C1141.38 937.496 1139.93 939.266 1132.79 943.786C1122.47 948.001 1117.51 946.752 1107.17 943.64C1087.13 959.045 1058.11 962.887 1041.45 940.668C1040.25 939.05 1039.11 937.388 1038.04 935.685C1019.97 953.633 1009.39 955.706 988.823 939.693C977.957 950.768 971.877 953.686 956.394 954.345C945.152 953.732 943.042 951.845 933.313 945.814C926.263 946.286 920.792 946.868 914.007 944.839C907.937 942.012 904.814 939.023 900.328 934.281C898.802 929.17 896.354 912.707 895.276 906.507C891.767 881.634 893.982 873.511 918.274 863.747C917.916 859.435 917.857 854.988 917.727 850.654C921.794 820.4 939.961 814.16 966.034 826.202C973.704 799.43 993.695 792.315 1016.88 808.728C1021.81 803.745 1023.82 801.676 1029.67 797.98C1035.04 792.215 1033.9 799.073 1038.2 786.629C1041.25 778.365 1034.84 774.723 1039.99 762.719L1040.24 761.163C1039.3 758.716 1033.49 753.88 1031.21 751.792C1026.31 743.066 1020.96 728.685 1010.4 726.259C984.157 720.234 995.23 746.777 981.95 754.955C978.904 757.887 976.994 759.063 973.543 761.349C972.805 764.071 971.83 768.205 970.953 770.75L970.94 771.474C964.999 780.642 960.723 779.856 950.601 779.773C936.32 787.734 919.683 789.582 911.127 772.097C908.052 765.859 907.655 758.636 910.029 752.099C913.822 741.739 920.873 737.947 930.137 733.608C937.624 707.51 954.275 695.344 980.378 707.664C985.357 691.273 989.528 685.809 1007.21 683.678C1016.71 686.597 1017.93 687.309 1024.48 694.79C1035.84 690.169 1046.2 687.838 1058.12 692.817C1065.18 695.733 1070.75 701.411 1073.53 708.533C1074.52 711.019 1074.77 712.187 1075.16 714.777L1076.65 716.487C1095.88 715.737 1110.91 718.298 1106.17 742.522C1117.28 753.342 1117.96 757.98 1118.66 773.051C1115.73 785.145 1112.69 788.265 1103.73 796.65C1125.97 815.873 1127.2 839.592 1104.2 858.785C1116.47 870.541 1120.85 876.741 1121.15 893.957C1136.03 898.731 1139.72 900.093 1145.84 915.105C1152.95 899.993 1156.49 894.792 1171.85 887.722C1162.5 877.936 1159.95 875.236 1158.64 861.53C1159.55 849.312 1161.55 845.094 1168.82 835.286C1167.27 833.383 1165.78 831.44 1164.34 829.457C1152.96 813.488 1158.64 793.628 1174.14 782.783C1157.36 772.024 1153.71 764.625 1156.16 744.4C1159.5 736.625 1161.47 733.619 1167.63 727.918C1169.17 726.391 1169.09 726.003 1170.02 723.98C1167.2 717.618 1169.25 713.907 1171.39 707.294C1170.29 704.205 1163.62 701.248 1159.61 694.42C1156.99 686.404 1157.3 681.849 1160.08 674.163C1164.33 667.991 1165.68 666.867 1171.45 661.83C1169.37 658.561 1167.11 654.393 1165.16 650.991C1159.38 642.631 1148.17 650.638 1139.64 626.678C1138.7 619.591 1139.03 615.652 1140.15 608.683C1150.65 584.794 1162.65 582.515 1186.24 587.63C1188.17 586.567 1188.96 584.645 1190.13 582.68ZM1245.65 789.241C1247.22 790.886 1249.36 792.994 1250.74 794.709L1250.95 795.395C1254.65 801.337 1254.47 803.57 1254.05 810.488C1251.35 820.263 1249.87 821.147 1242.68 828.448C1255.35 842.269 1254.45 853.496 1245.73 868.94C1252.21 875.608 1253.14 877.122 1255.64 886.096C1267.2 891.497 1273.17 894.597 1281.84 904.486L1294.61 898.307C1294.22 896.518 1293.12 893.497 1292.51 891.643C1288.96 885.593 1290.28 876.35 1292.34 869.96C1298.93 858.553 1302.58 856.439 1314.92 852.319C1315.67 850.371 1317.36 843.842 1318.01 841.56C1320.61 838.625 1322.63 837.219 1325.69 834.842C1326.12 832.551 1324.41 829.945 1323.29 827.691C1317.87 819.868 1318.16 810.04 1321.06 801.409C1321.39 799.126 1322.89 796.353 1323.91 794.171C1310.24 788.72 1296.01 791.318 1297.33 769.181C1299.61 763.389 1301.16 760.642 1294.92 756.467C1287.89 751.766 1274.11 751.068 1266.05 752.475C1255.25 754.36 1248.5 758.69 1242.19 767.493C1243.64 770.213 1245.74 773.86 1246.99 776.56C1246.66 779.131 1245.46 787.148 1245.65 789.241ZM1030.06 838.073C1001.58 845.317 958.266 852.438 969.031 893.099C971.755 903.388 979.482 909.777 988.268 915.118C998.89 904.444 999.927 904.568 1014.72 903.762C1014.96 890.578 1014.37 880.151 1024.54 870.241C1026.49 868.352 1028.56 866.582 1030.72 864.942C1030.72 864.874 1027.84 852.787 1027.64 851.929C1028.27 846.289 1028.67 843.551 1030.06 838.073Z"/><path fill="#D2CDC8" d="M1075.16 714.777L1076.65 716.487C1095.88 715.737 1110.91 718.298 1106.17 742.522C1099.29 749.369 1087.96 756.572 1079.43 747.341C1071.42 738.665 1074.98 725.652 1075.16 714.777Z"/><path fill="#C0BEBB" d="M1203.23 961C1212.09 953.524 1237.5 930.783 1238.4 920.054C1244.12 932.682 1232.14 961.026 1259.29 955.664C1259.29 955.664 1263.62 957.644 1264.04 957.834C1249.25 959.641 1240.09 959.62 1226.22 952.53C1212.04 962.485 1199.94 967.612 1182.24 964.24C1187.7 961.21 1196.66 961.434 1203.23 961Z"/><path fill="#D2CDC8" d="M1139.64 626.678C1138.7 619.591 1139.03 615.652 1140.15 608.683C1145.27 616.64 1150.69 622.043 1153.66 630.708C1155.83 630.998 1162.14 629.847 1162.69 630.292C1166.9 633.726 1173.32 638.585 1172.91 644.492C1170.82 647.462 1171.85 646.491 1168.16 647.935L1165.16 650.991C1159.38 642.631 1148.17 650.638 1139.64 626.678Z"/><path fill="#C0BEBB" d="M1139.64 626.678C1145.24 631.013 1166.94 642.369 1168.32 647.114L1168.16 647.935L1165.16 650.991C1159.38 642.631 1148.17 650.638 1139.64 626.678Z"/><path fill="#D2CDC8" d="M1038.2 786.629C1041.25 778.365 1034.84 774.723 1039.99 762.719C1040.14 764.348 1040.31 767.304 1040.54 768.759C1040.98 771.6 1051.17 777.283 1048.9 779.251C1044.07 783.445 1042.27 779.926 1039.69 786.367C1040.46 792.7 1039.6 792.978 1045.61 796.375C1052.81 803.701 1053.36 805.338 1051.35 815.553C1048.23 818.976 1047.01 820.188 1042.41 820.53C1033.05 817.818 1034.77 802.468 1029.67 797.98C1035.04 792.215 1033.9 799.073 1038.2 786.629Z"/><path fill="#C0BEBB" d="M1045.61 796.375C1052.81 803.701 1053.36 805.338 1051.35 815.553C1046.07 814.52 1044.54 814.244 1042.34 809.373C1042.47 803.448 1044.18 801.861 1045.61 796.375Z"/><path fill="#C0BEBB" d="M1190.13 582.68C1194.79 592.332 1199.65 606.434 1209.35 611.448C1210.18 614.5 1210.3 613.021 1208.7 615.998C1192.63 626.363 1180.04 611.554 1184.32 593.814C1184.81 591.711 1185.46 589.645 1186.24 587.63C1188.17 586.567 1188.96 584.645 1190.13 582.68Z"/><path fill="#D2CDC8" d="M914.007 944.839C919.951 938.267 924.279 929.212 931.466 928.026C941.895 930.421 945.719 946.131 956.394 954.345C945.152 953.732 943.042 951.845 933.313 945.814C926.263 946.286 920.792 946.868 914.007 944.839Z"/><path fill="#C0BEBB" d="M1007.21 683.678C1016.71 686.597 1017.93 687.309 1024.48 694.79C1023.52 698.325 1024.27 702.803 1022.56 706.698C1020.4 711.61 1016.1 718.301 1010.2 715.848C1005.3 709.446 1004.62 694.987 1008.19 687.538L1008.69 686.522L1007.21 683.678Z"/><path fill="#D2CDC8" d="M1159.61 694.42C1156.99 686.404 1157.3 681.849 1160.08 674.163C1163.07 685.883 1183.72 689.916 1183.36 701.363C1181.83 703.528 1180.98 704.359 1178.09 704.699L1171.39 707.294C1170.29 704.205 1163.62 701.248 1159.61 694.42Z"/><path fill="#C0BEBB" d="M1159.61 694.42C1168.51 695.872 1171.92 697.382 1178.09 704.699L1171.39 707.294C1170.29 704.205 1163.62 701.248 1159.61 694.42Z"/><path fill="#D2CDC8" d="M1031.21 751.792L1032.31 751.408C1040.51 748.475 1044.34 742.684 1051.42 743.414C1056.73 746.563 1056.09 746.309 1061.49 742.312L1062.8 742.896C1069.38 764.481 1045.13 758.279 1040.24 761.163C1039.3 758.716 1033.49 753.88 1031.21 751.792Z"/><path fill="#D2CDC8" d="M1174.14 782.783C1157.36 772.024 1153.71 764.625 1156.16 744.4C1161.47 754.244 1161.05 767.425 1171.65 772.627L1172.43 772.281L1169.61 769.048L1170.47 768.169C1175.49 768.525 1181.02 772.714 1182.03 777.749C1180.47 780.506 1177.31 781.784 1174.14 782.783Z"/><path fill="#D2CDC8" d="M1171.39 707.294C1174.42 719.815 1203.78 723.745 1188.4 736.934C1184.28 729.952 1177.09 727.03 1170.02 723.98C1167.2 717.618 1169.25 713.907 1171.39 707.294Z"/><path fill="#D2CDC8" d="M1214.25 675.8C1212.2 673.805 1211.88 673.836 1211.31 670.985C1213.16 665.222 1220.49 661.759 1224.74 657.941C1229.8 653.401 1234.6 653.328 1239.87 648.995C1240.19 667.778 1221.76 665.47 1214.25 675.8Z"/><path fill="#D2CDC8" d="M955.374 763.887C960.825 763.224 965.377 761.729 969.865 763.446C971.093 766.035 970.882 767.89 970.953 770.75L970.94 771.474C964.999 780.642 960.723 779.856 950.601 779.773L952.25 774.132L955.374 763.887Z"/><path fill="#D2CDC8" d="M1337.99 935.003C1338.07 929.363 1337.55 920.758 1341.29 916.588C1348.85 916.507 1351.15 931.304 1357.18 934.855C1350.97 937.975 1344.4 936.966 1337.99 935.003Z"/><path fill="#D2CDC8" d="M1228.85 695.484L1226.29 693.651C1221.8 683.505 1238.36 675.613 1246.5 678.497C1249.16 679.438 1249.32 681.985 1250.1 684.404C1243.18 688.061 1232.38 691.126 1228.85 695.484Z"/><path fill="#C0BEBB" d="M1240.01 644.937C1241.95 650.52 1241.48 656.522 1243.38 658.978C1232.93 666.234 1241.02 679.465 1214.25 675.8C1221.76 665.47 1240.19 667.778 1239.87 648.995L1240.01 644.937Z"/><path fill="#C0BEBB" d="M955.374 763.887C948.713 762.157 938.594 758.921 937.339 751.429C948.603 761.446 967.954 758.223 981.95 754.955C978.904 757.887 976.994 759.063 973.543 761.349C972.805 764.071 971.83 768.205 970.953 770.75C970.882 767.89 971.093 766.035 969.865 763.446C965.377 761.729 960.825 763.224 955.374 763.887Z"/><path fill="#C0BEBB" d="M1158.64 861.53C1165.48 871.366 1172.78 878.489 1179.29 887.67L1181.36 888.013C1182.21 886.061 1181.66 885.574 1181.23 883.04C1183.68 882.354 1183.77 883.064 1186.83 884.396L1187.6 885.665C1183.79 889.424 1176.63 889.415 1171.85 887.722C1162.5 877.936 1159.95 875.236 1158.64 861.53Z"/><path fill="#C0BEBB" d="M1254.31 670.607C1256.69 686.322 1252.11 691.095 1238.97 698.62C1234.7 697.757 1232.82 697.005 1228.85 695.484C1232.38 691.126 1243.18 688.061 1250.1 684.404C1252.39 678.626 1253.14 676.657 1254.31 670.607Z"/><path fill="#C0BEBB" d="M1107.17 943.64C1108.75 939.61 1109.75 934.861 1112.71 932.739L1111.28 933.303L1112.45 931.707L1113.4 933.744C1115.51 934.903 1116.92 935.909 1119.31 936.22L1120.45 934.265C1126.88 938.394 1117.66 940.673 1132.79 943.786C1122.47 948.001 1117.51 946.752 1107.17 943.64Z"/><path fill="#C0BEBB" d="M1335.96 707.844C1336.96 710.833 1340.07 721.767 1341.08 723.551C1336.23 727.388 1330.72 728.767 1327.61 721.97L1329.22 718.754L1328.43 721.234C1330.09 718.902 1331.45 717.22 1333.29 715.021C1333.54 711.464 1334.06 711.031 1335.96 707.844Z"/><path fill="#C0BEBB" d="M1170.02 723.98C1177.09 727.03 1184.28 729.952 1188.4 736.934C1173.17 738.554 1177.74 735.43 1167.63 727.918C1169.17 726.391 1169.09 726.003 1170.02 723.98Z"/><path fill="#C0BEBB" d="M1103.73 796.65C1100.73 794.67 1097.76 792.63 1094.84 790.534L1096.11 789.026C1099.76 790.453 1100.63 790.944 1104.5 790.912C1111.65 788.162 1112.3 779.753 1118.66 773.051C1115.73 785.145 1112.69 788.265 1103.73 796.65Z"/><path fill="#C0BEBB" d="M934.553 902.947L935.323 899.888C940.091 897.282 941.397 886.594 950.457 891.208C956.04 900.968 945.203 915.113 936.512 919.58C928.245 923.829 921.096 924.047 912.185 921.979C908.982 920.208 908.497 920.184 906.965 917.068C907.861 914.214 907.121 915.536 909.828 913.354C916.454 911.83 917.243 909.298 925.724 907.541L924.735 904.924L926.063 903.782C929.291 903.689 931.342 903.4 934.553 902.947Z"/><path fill="#D2CDC8" d="M925.724 907.541L924.735 904.924L926.063 903.782C929.291 903.689 931.342 903.4 934.553 902.947C934.013 907.43 934.554 905.739 930.6 909.852L927.692 910.682C925.847 908.925 926.466 909.943 925.724 907.541Z"/><path fill="#D2CDC8" d="M912.185 921.979C908.982 920.208 908.497 920.184 906.965 917.068C907.861 914.214 907.121 915.536 909.828 913.354L914.411 915.655C914.698 919.493 912.929 918.415 912.185 921.979Z"/><path fill="#D2CDC8" d="M1323.29 827.691C1317.87 819.868 1318.16 810.04 1321.06 801.409C1321.12 805.2 1321.77 816.084 1324.66 818.71C1332.2 825.573 1357.05 826.816 1359.71 837.425C1358.85 840.013 1358.89 839.831 1357 841.82C1343.89 848.833 1335.95 842.18 1325.69 834.842C1326.12 832.551 1324.41 829.945 1323.29 827.691Z"/><path fill="#C0BEBB" d="M1323.29 827.691C1334.01 831.504 1346.49 837.123 1357 841.82C1343.89 848.833 1335.95 842.18 1325.69 834.842C1326.12 832.551 1324.41 829.945 1323.29 827.691Z"/><path fill="#C0BEBB" d="M1027.64 851.929C1030.43 855.345 1032.28 855.791 1036.18 857.54L1033.16 859.34C1037.3 866.244 1065.32 866.784 1069.73 874.441C1068.14 878.57 1065.41 878.881 1061.74 880.923C1048.61 888.231 1037.38 874.688 1030.72 864.942C1030.72 864.874 1027.84 852.787 1027.64 851.929Z"/><path fill="#D2CDC8" d="M1292.51 891.643C1288.96 885.593 1290.28 876.35 1292.34 869.96C1298.75 896.875 1312.63 888.065 1323.01 900.093C1323.15 902.429 1323.09 903.583 1321.15 905.384C1307.54 910.511 1305.31 906.945 1294.61 898.307C1294.22 896.518 1293.12 893.497 1292.51 891.643Z"/><path fill="#C0BEBB" d="M1292.51 891.643C1293.94 892.455 1305.16 899.327 1305.12 899.313C1312.05 901.634 1314.76 897.196 1321.15 905.384C1307.54 910.511 1305.31 906.945 1294.61 898.307C1294.22 896.518 1293.12 893.497 1292.51 891.643Z"/><path fill="#D2CDC8" d="M1250.74 794.709L1250.95 795.395C1254.65 801.337 1254.47 803.57 1254.05 810.488C1251.35 820.263 1249.87 821.147 1242.68 828.448C1236.21 829.022 1235.34 829.011 1229.16 827.416C1226.34 823.505 1226.05 823.272 1227.92 819.099C1233.49 814.449 1238.53 815.613 1244.56 813.133C1244.45 811.685 1244.72 810.427 1245.07 809.022C1245.68 798.396 1248 803.553 1250.74 794.709Z"/><path fill="#C0BEBB" d="M1229.16 827.416C1236.26 820.901 1245.75 815.442 1254.05 810.488C1251.35 820.263 1249.87 821.147 1242.68 828.448C1236.21 829.022 1235.34 829.011 1229.16 827.416Z"/><path fill="#C0BEBB" d="M1245.65 789.241C1239.63 797.585 1221.44 803.828 1220.35 792.698C1222.2 788.074 1225.68 785.01 1229.85 782.434C1229.07 784.899 1228.84 783.918 1229.57 785.748C1232.86 784.404 1238.73 781.032 1240.09 777.582L1237.98 776.859C1238.52 774.496 1240.6 771.147 1241.71 768.619L1242.19 767.493C1243.64 770.213 1245.74 773.86 1246.99 776.56C1246.66 779.131 1245.46 787.148 1245.65 789.241Z"/><path fill="#D2CDC8" d="M1318.01 841.56C1324.09 851.751 1339.87 855.376 1338.04 866.026C1335.98 868.129 1335.61 868.499 1333.24 870.193C1321.66 869.877 1320.41 867.092 1316.38 856.996C1316.02 855.562 1315.38 853.765 1314.92 852.319C1315.67 850.371 1317.36 843.842 1318.01 841.56Z"/><path fill="#C0BEBB" d="M1316.38 856.996C1323.74 857.736 1328.9 864.477 1333.24 870.193C1321.66 869.877 1320.41 867.092 1316.38 856.996Z"/><path fill="#D2CDC8" d="M1297.33 769.181L1298.51 770.147C1299.84 771.226 1302.89 772.955 1303.64 774.068C1306.64 775.541 1309.64 776.944 1312.52 778.635L1312.33 779.988C1308.07 781.279 1309.04 778.225 1306.4 780.16C1308.03 785.822 1307.43 785.822 1314.07 786.16C1317.12 786.316 1322.38 785.279 1324.75 786.898L1324.68 789.465L1326.25 789.957C1326.98 787.68 1326.93 786.29 1327.06 783.941L1328.12 783.595L1330.47 785.869C1330.53 790.699 1327.8 791.591 1323.91 794.171C1310.24 788.72 1296.01 791.318 1297.33 769.181Z"/><path fill="#C0BEBB" d="M1113.46 907.904L1115.52 907.168L1115.58 908.609C1107.32 921.459 1099.16 923.317 1085.26 919.723L1084.32 918.36C1085.26 912.978 1102.34 908.311 1107.01 908.102C1109.16 908.011 1111.31 907.945 1113.46 907.904Z"/><path fill="#EBE5E0" d="M581.134 583.681C615.716 543.421 669.326 590.548 643.243 628.89C640.153 633.432 632.67 636.695 631.909 641.768C636.112 648.931 632.384 656.344 637.109 659.196C640.31 661.973 642.445 663.759 645.264 667.012C653.407 687.947 637.991 688.415 634.988 697.903C639.193 705.947 637.544 708.001 633.781 715.975C638.996 722.83 645.744 731.138 648.973 738.983C654.011 755.608 647.149 763.568 633.658 772.573C632.779 773.16 633.015 773.037 632.328 774.029C637.256 783.693 639.155 791.117 635.611 801.862C634.867 804.09 634.066 806.299 633.211 808.486C648.317 827.436 645.148 839.957 627.229 854.981C637.345 863.334 642.686 867.331 647.587 879.824C648.008 883.016 648.425 893.411 649.2 894.828C657.473 901.052 663.432 907.319 664.835 918.206C665.855 926.736 663.418 935.319 658.067 942.039C652.612 949.04 644.551 953.529 635.726 954.481C626.485 955.425 619.51 952.766 611.318 948.931C599.5 957.688 588.645 962.167 573.565 960.08C557.421 957.845 549.255 948.23 539.078 936.99C525.604 952.138 512.394 961.155 493.001 946.982C478.159 948.744 475.298 955.091 457.339 946.476C449.259 940.735 446.422 936.127 442.111 927.402C424.982 926.717 417.191 925.466 409.906 908.756C407.784 898.218 408.757 892.195 414.796 883.297L414.049 881.705C407.312 880.115 402.58 877.969 397.221 873.741C378.43 859.905 380.212 832.046 397.995 818.203C398.549 816.958 398.55 814.739 398.668 813.25C396.858 807.442 398.481 804.35 401.095 799.267L408.57 792.77C403.484 764.04 408.45 744.755 441.2 741.563C445.399 708.848 465.327 696.765 495.446 710.818C503.02 693.109 518.275 681.505 536.651 695.347C540.406 698.175 543.225 701.985 546.996 704.594C550.106 704.196 551.991 702.209 554.563 700.21C552.432 691.09 548.533 681.521 554.505 672.904C555.709 668.473 560.477 664.98 563.949 662.154C561.34 658.285 559.662 655.178 557.443 651.092C552.26 647.146 538.331 644.554 532.456 633.862C527.921 625.609 529.172 617.365 531.413 608.671C540.872 587.29 554.829 582.32 576.921 588.603C578.153 587.554 580.027 585.056 581.134 583.681ZM502.439 745.997C492.188 750.449 489.731 752.502 481.722 760.386C479.956 764.265 477.124 770.053 475.829 773.935C473.593 780.228 471.868 783.099 468.507 788.963C481.072 808.795 467.891 817.752 473.225 835.567C475.144 841.977 487.814 842.958 495.082 855.216C499.567 869.793 494.623 873.024 495.48 881.886C508.31 895.585 517.935 883.604 529.435 903.291C531.539 910.267 530.04 915.126 533.073 918.906L536.033 918.339C539.126 914.582 539.613 908.545 541.951 904.025C547.554 893.187 552.764 891.663 563.233 887.636L559.115 881.156C557.12 877.715 556.593 874.497 555.637 870.631C554.675 863.104 555.459 859.627 558.085 852.627C560.042 848.283 562.43 845.769 565.461 842.117C563.778 838.504 562.658 837.283 560.189 834.237C558.604 832.837 556.491 826.597 556.201 824.249C554.68 811.9 557.702 804.8 564.495 795.343C564.5 794.924 556.76 785.5 554.582 780.699C552.326 773.624 553.176 769.498 554.057 762.265C547.909 755.044 543.396 751.53 535.343 746.532C531.212 745.143 526.219 744.527 521.859 743.808C519.701 744.002 512.801 743.723 510.31 743.676L502.439 745.997Z"/><path fill="#C0BEBB" d="M531.413 608.671C534.357 616.415 531.639 618.68 533.472 624.545C534.523 622.638 534.79 622.267 535.42 620.207C538.793 620.716 540.014 622.408 540.724 625.834C542.939 636.521 556.011 635.469 562.14 641.767C563.24 645.421 563.346 643.932 562.007 647.305L557.443 651.092C552.26 647.146 538.331 644.554 532.456 633.862C527.921 625.609 529.172 617.365 531.413 608.671Z"/><path fill="#C0BEBB" d="M554.505 672.904C548.765 696.928 579.787 692.023 583.177 703.757C577.31 718.758 561.69 707.868 554.563 700.21C552.432 691.09 548.533 681.521 554.505 672.904Z"/><path fill="#C0BEBB" d="M645.264 667.012C653.407 687.947 637.991 688.415 634.988 697.903C629.308 696.407 617.379 699.556 618.659 688.97C622.664 683.012 632.199 679.536 638.772 683.032L640.628 682.452C643.001 677.155 645.541 672.773 645.264 667.012Z"/><path fill="#C0BEBB" d="M647.587 879.824C648.008 883.016 648.425 893.411 649.2 894.828L648.858 895.438C639.498 912.458 639.652 921.788 614.695 918.312C619.424 912.958 622.385 911.674 628.617 908.075C638.883 907.311 645.784 888.657 647.587 879.824Z"/><path fill="#D2CDC8" d="M631.909 641.768C636.112 648.931 632.384 656.344 637.109 659.196L634.623 659.852C634.031 660.906 633.18 662.284 632.751 663.369C628.913 663.121 610.567 673.626 607.908 675.813C605.328 674.106 604.965 673.19 604.566 670.365C609.479 657.522 632.741 661.266 631.909 641.768Z"/><path fill="#D2CDC8" d="M401.095 799.267C403.375 806.838 419.627 812.606 418.716 821.594C417.598 822.385 416.474 823.169 415.345 823.945C406.296 825.138 404.707 823.728 397.995 818.203C398.549 816.958 398.55 814.739 398.668 813.25C396.858 807.442 398.481 804.35 401.095 799.267Z"/><path fill="#C0BEBB" d="M398.668 813.25C404.608 818.588 410.598 819.25 415.345 823.945C406.296 825.138 404.707 823.728 397.995 818.203C398.549 816.958 398.55 814.739 398.668 813.25Z"/><path fill="#D2CDC8" d="M576.921 588.603C578.153 587.554 580.027 585.056 581.134 583.681C587.485 591.858 584.384 595.553 587.663 598.634L588.644 598.19L588.931 594.736C593.721 602.031 593.173 605.526 600.15 609.476C601.418 612.369 601.017 611.512 600.67 615.053C598.727 617.313 598.682 617.448 596.28 619.135C590.22 612.487 580.722 599.674 576.253 591.838C576.631 591.071 576.767 589.55 576.921 588.603Z"/><path fill="#C0BEBB" d="M648.973 738.983C654.011 755.608 647.149 763.568 633.658 772.573C632.779 773.16 633.015 773.037 632.328 774.029C629.727 772.898 623.759 771.871 620.713 771.23L625.13 768.514C639.089 763.356 631.588 762.856 635.735 759.298C644.033 752.179 649.037 752.184 648.973 738.983Z"/><path fill="#C0BEBB" d="M576.253 591.838C580.722 599.674 590.22 612.487 596.28 619.135C576.984 619.956 571.085 609.573 576.253 591.838Z"/><path fill="#C0BEBB" d="M397.221 873.741C399.451 872.936 401.063 872.134 403.427 872.188C404.429 872.927 404.155 872.485 404.474 873.345C424.953 877.581 422.868 869.727 433 869.404C434.494 869.357 436.226 869.383 437.232 868.222C438.45 866.814 438.69 865.66 439.196 863.914L439.473 863.774C440.511 874.776 424.995 880.123 416.454 881.804L414.796 883.297L414.049 881.705C407.312 880.115 402.58 877.969 397.221 873.741Z"/><path fill="#C0BEBB" d="M409.906 908.756C414.631 912.079 417.858 916.985 421.324 921.668C425.74 919.989 445.854 917.469 449.129 919.104L448.574 923.335C445.583 924.832 444.532 925.18 442.111 927.402C424.982 926.717 417.191 925.466 409.906 908.756Z"/><path fill="#C0BEBB" d="M457.339 946.476L458.178 946.425C463.927 946.038 473.081 943.86 479.141 943.59C481.23 943.497 484.282 937.739 488.843 937.524C489.917 941.842 489.7 944.455 493.001 946.982C478.159 948.744 475.298 955.091 457.339 946.476Z"/><path fill="#C0BEBB" d="M607.908 675.813C610.567 673.626 628.913 663.121 632.751 663.369C627.168 674.111 620.254 678.621 607.908 675.813Z"/><path fill="#D2CDC8" d="M614.695 918.312C611.767 916.069 611.564 916.005 609.887 912.815C610.022 909.532 609.385 910.834 611.693 908.704C618.217 906.751 621.982 907.681 628.617 908.075C622.385 911.674 619.424 912.958 614.695 918.312Z"/><path fill="#D2CDC8" d="M620.713 771.23C616.839 768.897 616.858 769.734 615.172 766.342C617.684 762.997 622.077 763.636 625.398 765.514L625.13 768.514L620.713 771.23Z"/><path fill="#D2CDC8" d="M449.129 919.104C454.134 915.82 449.961 914.318 453.937 914.562L454.955 915.996C454.124 919.069 451.17 921.535 448.574 923.335L449.129 919.104Z"/><path fill="#D2CDC8" d="M512.988 732.53L507.327 730.334C507.838 725.091 520.657 724.703 523.429 720.152C523.473 720.081 526.208 717.928 526.605 717.609C528.93 719.107 529.492 720.106 531.159 722.253L533.281 722.182C534.281 720.2 535.117 718.538 536.274 716.621L537.675 716.703C540.803 721.202 540.44 726.697 542.118 729.365C545.787 735.202 563.892 743.81 566.293 749.909C565.211 752.67 565.324 752.553 562.849 754.168C558.441 757.742 555.37 759.741 554.501 765.549C557.906 775.715 567.938 772.99 574.103 782.322C578.585 782.237 583.383 781.74 587.443 783.492C590.155 786.564 590.105 787.694 588.698 791.528L586.282 792.374C580.214 796.353 576.978 798.061 569.291 796.467C567.685 796.127 566.086 795.752 564.495 795.343C564.5 794.924 556.76 785.5 554.582 780.699C552.326 773.624 553.176 769.498 554.057 762.265C547.909 755.044 543.396 751.53 535.343 746.532C531.212 745.143 526.219 744.527 521.859 743.808C519.701 744.002 512.801 743.723 510.31 743.676L502.439 745.997C500.759 742.984 500.024 742.338 500.384 739.116C503.033 734.539 507.9 733.899 512.988 732.53Z"/><path fill="#C0BEBB" d="M510.31 743.676C510.405 743.48 511.802 740.606 511.782 740.793C512.177 737.231 531.495 726.386 534.217 725.621L535.937 726.744C537.466 730.893 537.056 735.32 536.974 739.76L537.706 745.013C536.364 746.241 536.934 746.047 535.343 746.532C531.212 745.143 526.219 744.527 521.859 743.808C519.701 744.002 512.801 743.723 510.31 743.676Z"/><path fill="#EBE5E0" d="M521.859 743.808C521.824 740.451 524.54 737.928 527.209 736.453C531.624 736.064 533.25 737.504 536.974 739.76L537.706 745.013C536.364 746.241 536.934 746.047 535.343 746.532C531.212 745.143 526.219 744.527 521.859 743.808Z"/><path fill="#C0BEBB" d="M554.582 780.699C564.363 784.302 574.545 789.642 584.405 790.625L586.282 792.374C580.214 796.353 576.978 798.061 569.291 796.467C567.685 796.127 566.086 795.752 564.495 795.343C564.5 794.924 556.76 785.5 554.582 780.699Z"/><path fill="#D2CDC8" d="M555.637 870.631C554.675 863.104 555.459 859.627 558.085 852.627C558.049 859.838 556.711 864.642 561.166 869.364C568.592 877.235 588.532 878.881 593.581 883.217C593.677 885.197 593.925 886.72 592.003 888.249L588.511 890.736C576.501 895.268 574.341 893.668 563.233 887.636L559.115 881.156C557.12 877.715 556.593 874.497 555.637 870.631Z"/><path fill="#C0BEBB" d="M559.115 881.156C567.876 883.225 581.391 885.623 588.511 890.736C576.501 895.268 574.341 893.668 563.233 887.636L559.115 881.156Z"/><path fill="#C0BEBB" d="M495.082 855.216C499.567 869.793 494.623 873.024 495.48 881.886C486.924 892.292 482.149 897.94 467.962 892.551C460.094 880.535 477.264 877.343 485.198 875.301C489.01 870.622 488.219 871.15 494.189 870.861C495.368 866.225 495.085 860.121 495.082 855.216Z"/><path fill="#D2CDC8" d="M467.962 892.551C460.094 880.535 477.264 877.343 485.198 875.301C489.01 870.622 488.219 871.15 494.189 870.861C492.536 872.777 488.586 877.381 486.789 878.704C480.999 882.968 472.101 886.493 467.962 892.551Z"/><path fill="#D2CDC8" d="M529.435 903.291C531.539 910.267 530.04 915.126 533.073 918.906C531.581 919.476 530.75 919.597 529.615 920.555C523.988 929.992 519.739 931.514 508.646 930.097C505.557 929.269 504.917 928.772 503.912 926.064C506.216 920.5 519.451 913.291 524.818 914.129C528.781 911.058 528.911 908 529.435 903.291Z"/><path fill="#C0BEBB" d="M508.646 930.097C512.417 926.08 524.005 920.636 529.615 920.555C523.988 929.992 519.739 931.514 508.646 930.097Z"/><path fill="#C0BEBB" d="M445.126 758.491C445.781 758.757 446.44 759.01 447.105 759.248C457.713 763.054 471.608 766.581 481.722 760.386C479.956 764.265 477.124 770.053 475.829 773.935L473.949 772.094C470.391 770.749 466.317 771.806 462.365 772.344C454.021 767.817 451.762 765.428 445.126 758.491Z"/><path fill="#D2CDC8" d="M560.189 834.237C566.077 836.313 568.795 835.784 574.99 835.228C574.318 837.118 567.825 840.578 565.461 842.117C563.778 838.504 562.658 837.283 560.189 834.237Z"/><path fill="#EBE5E0" d="M2238.76 584.132C2276.03 543.02 2344.04 604.659 2288.01 642.67C2290.77 651.979 2289.59 651.099 2290.99 659.169C2295.43 661.883 2297.45 662.799 2300.7 666.877C2313.7 691.146 2291.31 691.935 2289.11 701.935C2290.81 704.789 2291.21 705.195 2291.85 708.374C2291.89 711.242 2291.75 711.682 2293.27 714.193C2308.5 704.171 2319.24 705.96 2335.42 711.78C2353.8 687.335 2374.12 683.705 2396.1 706.436L2396.53 707.211C2398.54 710.862 2399.82 717.386 2403.59 718.089C2418.17 712.821 2427.22 717.126 2435.47 729.727C2439.77 737.348 2435.84 743.889 2440.36 748.036C2460.54 763.476 2455.53 784.081 2439.3 800.002C2453.13 814.389 2458.04 828.876 2448.39 847.565C2444.43 852.235 2442.11 854.696 2437.64 858.869C2447.08 867.522 2450.53 873.531 2452.35 886.535C2463.57 891.757 2473.08 897.73 2477.66 910.034C2480.53 917.6 2480.22 926.008 2476.79 933.339C2471.57 944.459 2462.64 949.344 2451.82 953.528C2439.68 956.771 2428.51 951.213 2418.34 945.753C2403.07 956.283 2387.99 961.419 2369.56 955.477C2357.24 951.536 2346.98 942.861 2341.05 931.36C2328.55 906.842 2340.87 886.107 2363.96 875.107C2364.27 868.345 2353.83 861.458 2354.73 841.474C2355.78 829.255 2360.27 823.212 2367.42 813.634C2361.34 798.379 2363.89 793.25 2360.42 778.682C2359.58 775.992 2356.81 770.603 2355.5 767.845L2352.63 765.081C2331.82 750.942 2313.96 748.421 2297.31 770.749C2294.83 774.074 2293.17 778.723 2290.81 782.102L2285.33 791.421C2295.25 802.086 2299.02 811.862 2296.41 826.699C2295.44 830.881 2292.01 839.332 2291.84 840.905C2295.28 846.169 2296.08 847.856 2298.47 853.702C2301.01 869.976 2297.5 877.718 2286.32 889.182C2296.33 892.621 2303.76 897.26 2308.65 907.115C2312.64 915.075 2313.27 924.306 2310.4 932.735C2307.09 942.344 2300.32 948.947 2291.56 953.747C2276.09 959.661 2269.21 956.077 2254.54 949.857C2249.35 953.611 2246.89 955.622 2240.71 957.633C2239.41 958.123 2238.1 958.563 2236.77 958.953C2224.92 962.526 2212 961.865 2201.07 955.782C2192.18 950.941 2185.59 942.76 2182.75 933.045C2180.1 923.676 2181.35 913.636 2186.21 905.199C2193.13 893.193 2204.44 887.985 2217.27 884.66C2207.74 871.621 2199.65 868.089 2202.92 848.936C2202.81 842.048 2207.93 834.639 2212.52 829.814C2206.33 819.852 2204.47 818.189 2202.7 806.548C2202.56 790.985 2206.29 785.568 2216.62 774.464C2215.1 772.965 2213.63 771.422 2212.21 769.835C2205.46 762.248 2202.01 752.282 2202.63 742.146C2203.53 728.755 2210.82 719.307 2220.42 710.758C2213.81 706.485 2209.85 702.281 2206.66 695.12L2205.51 691.779L2205.02 682.276C2208.08 673.407 2209.55 669.639 2217.79 664.709C2217.86 665.004 2211.34 652.008 2210.95 651.197C2209.35 650.723 2207.77 650.205 2206.2 649.645C2195.71 645.858 2192.55 641.977 2187.98 632.165C2184.9 622.527 2186.06 616.924 2188.76 607.57C2195.71 588.335 2214.65 582.109 2232.9 589.692C2234.7 588.709 2237.25 585.729 2238.76 584.132Z"/><path fill="#C0BEBB" d="M2240.71 957.633C2242 956.135 2251.2 948.646 2251.25 947.499C2251.61 939.681 2250.4 915.374 2260.7 914.268C2265.13 918.358 2265.12 926.102 2265.64 931.973C2269.8 935.714 2277.75 941.906 2279.22 947.113L2278.3 948.532L2274.52 946.975L2273.46 947.531C2275.27 952.701 2285.13 953.018 2288.71 951.302L2291.56 953.747C2276.09 959.661 2269.21 956.077 2254.54 949.857C2249.35 953.611 2246.89 955.622 2240.71 957.633Z"/><path fill="#D2CDC8" d="M2187.98 632.165C2184.9 622.527 2186.06 616.924 2188.76 607.57C2190.47 613.461 2187.79 621.136 2190.19 623.055L2192.25 620.15C2195.55 622.754 2193.02 626.652 2196.86 630.063C2197.76 628.791 2197.9 628.566 2199.22 627.644C2205.63 631.039 2221.62 640.768 2219.06 648.692L2217.31 650.076C2214.34 656.709 2221.33 657.175 2221.82 663.238C2219.98 664.635 2220.11 664.523 2217.79 664.709C2217.86 665.004 2211.34 652.008 2210.95 651.197C2209.35 650.723 2207.77 650.205 2206.2 649.645C2195.71 645.858 2192.55 641.977 2187.98 632.165Z"/><path fill="#C0BEBB" d="M2187.98 632.165C2196.31 635.998 2197.28 632.148 2203.39 639.966C2204.2 640.999 2204.99 642.045 2205.77 643.102C2209.66 644.104 2213.49 644.587 2216.3 647.227L2217.31 650.076C2214.34 656.709 2221.33 657.175 2221.82 663.238C2219.98 664.635 2220.11 664.523 2217.79 664.709C2217.86 665.004 2211.34 652.008 2210.95 651.197C2209.35 650.723 2207.77 650.205 2206.2 649.645C2195.71 645.858 2192.55 641.977 2187.98 632.165Z"/><path fill="#C0BEBB" d="M2290.99 659.169C2288.96 664.194 2286.51 670.627 2282.16 673.953C2275.14 679.313 2265.55 680.62 2259.68 673.371C2257.8 663.589 2279.21 656.08 2286.79 652.593C2289.09 648.994 2287.46 648.289 2288.01 642.67C2290.77 651.979 2289.59 651.099 2290.99 659.169Z"/><path fill="#C0BEBB" d="M2354.73 841.474C2358.84 857.959 2366.62 872.363 2384.87 873.879C2391.19 874.404 2404.28 871.171 2398.51 882.083C2397.54 883.999 2394.48 884.983 2392.49 885.141C2379.1 886.604 2370.66 877.481 2363.96 875.107C2364.27 868.345 2353.83 861.458 2354.73 841.474Z"/><path fill="#C0BEBB" d="M2298.47 853.702C2301.01 869.976 2297.5 877.718 2286.32 889.182C2281.43 888.288 2276.26 887.936 2272.94 884.409C2270.65 872.83 2295.4 867.34 2298.47 853.702Z"/><path fill="#C0BEBB" d="M2300.7 666.877C2313.7 691.146 2291.31 691.935 2289.11 701.935C2284.92 696.334 2282.1 701.379 2276.43 695.836C2275.03 692.344 2275.09 694.048 2276.07 690.555C2281.23 684.375 2292.78 681.407 2300.57 677.635C2302.08 675.241 2301.01 670.027 2300.7 666.877Z"/><path fill="#D2CDC8" d="M2205.02 682.276C2206.48 683.509 2216.98 693.444 2216.84 693.377C2221.33 695.511 2234.23 694.429 2235.42 702.536C2233.55 705.328 2233.63 705.172 2230.71 706.928L2228.96 706.925C2226.88 707.842 2222.2 709.742 2220.42 710.758C2213.81 706.485 2209.85 702.281 2206.66 695.12L2205.51 691.779L2205.02 682.276Z"/><path fill="#C0BEBB" d="M2206.66 695.12C2207.93 695.575 2228.1 706.19 2228.96 706.925C2226.88 707.842 2222.2 709.742 2220.42 710.758C2213.81 706.485 2209.85 702.281 2206.66 695.12Z"/><path fill="#C0BEBB" d="M2232.9 589.692C2234.7 588.709 2237.25 585.729 2238.76 584.132L2237.95 588.551C2238.9 593.868 2239.66 594.479 2243.27 598.159C2242.04 600.02 2240.91 600.212 2238.83 601.06C2236.4 609.651 2251.05 616.932 2254.18 622.508C2229.81 626.214 2228.76 607.547 2232.9 589.692Z"/><path fill="#D2CDC8" d="M2435.47 729.727C2439.77 737.348 2435.84 743.889 2440.36 748.036C2439.18 748.711 2437.51 749.366 2436.97 750.345C2431.27 756.722 2429.26 756.876 2420.76 755.897C2417.13 753.264 2416.09 752.607 2416.18 748.015C2419.61 741.516 2427.74 739.609 2433.45 735.337C2435.63 733.712 2435.06 732.952 2435.47 729.727Z"/><path fill="#C0BEBB" d="M2420.76 755.897C2424.52 751.761 2431.53 747.773 2436.97 750.345C2431.27 756.722 2429.26 756.876 2420.76 755.897Z"/><path fill="#D2CDC8" d="M2352.63 765.081C2353.47 761.964 2353.55 761.19 2355.16 758.461L2357.07 757.412C2363.42 760.06 2381.53 766.098 2378.79 774.557C2376.42 776.768 2376.29 776.979 2373.37 778.227C2369.54 777.42 2364.24 775.67 2361.08 776.8L2360.42 778.682C2359.58 775.992 2356.81 770.603 2355.5 767.845L2352.63 765.081Z"/><path fill="#C0BEBB" d="M2355.5 767.845C2361.77 769.581 2369.44 772.81 2373.37 778.227C2369.54 777.42 2364.24 775.67 2361.08 776.8L2360.42 778.682C2359.58 775.992 2356.81 770.603 2355.5 767.845Z"/><path fill="#C0BEBB" d="M2291.84 840.905C2284.96 845.163 2272.5 860.503 2262.78 846.538C2261.9 845.271 2262.33 845.137 2262.73 843.666L2264.07 842.914L2266.02 845.006C2267.18 845.053 2274.35 845.277 2274.93 845.107C2282.38 842.906 2291.77 831.855 2296.41 826.699C2295.44 830.881 2292.01 839.332 2291.84 840.905Z"/><path fill="#D2CDC8" d="M2202.92 848.936C2203.83 868.567 2210.98 862.993 2219.32 870.073C2216.27 871.83 2213.3 872.785 2211.96 875.446C2214.16 876.791 2214.69 876.879 2217.08 877.699C2220.52 882.164 2221.9 883.994 2227.82 883.436L2229.2 882.108L2227.44 879.575C2230.48 878.387 2228.92 878.619 2232.32 879.09C2232.79 886.639 2222.06 885.68 2217.27 884.66C2207.74 871.621 2199.65 868.089 2202.92 848.936Z"/><path fill="#C0BEBB" d="M2418.34 945.753C2419.76 941.856 2420.67 938.215 2423.39 935.186C2427.48 933.77 2431.25 934 2433.11 938.489L2432.37 939.452C2430.15 936.695 2431.24 937.282 2428.18 936.345C2424.92 937.626 2425.84 936.547 2424.59 938.979C2426.82 943.021 2427.89 942.729 2432.4 943.276C2438.6 948.705 2436.82 951.521 2443.86 951.504C2446.31 951.498 2449.44 953.005 2451.82 953.528C2439.68 956.771 2428.51 951.213 2418.34 945.753Z"/><path fill="#C0BEBB" d="M2396.1 706.436L2396.53 707.211C2398.54 710.862 2399.82 717.386 2403.59 718.089L2402.02 718.948C2398.78 722.814 2402.58 740.496 2392.9 737.923C2387.78 729.343 2396.53 717.494 2396.1 706.436Z"/><path fill="#C0BEBB" d="M2291.85 708.374C2291.89 711.242 2291.75 711.682 2293.27 714.193C2289.43 719.219 2288.8 731.052 2279.62 734.657C2274.23 736.77 2261.83 738.713 2258.24 733.533L2259.8 731.415C2263.36 730.419 2265.07 731.746 2269.28 732.889C2279.01 729.302 2288.19 725.036 2289.71 714.011C2288.61 712.834 2288.99 713.536 2288.64 711.87L2291.85 708.374Z"/><path fill="#D2CDC8" d="M2237.95 588.551C2243.96 597.305 2245.14 595.491 2242.09 605.906C2249.15 613.988 2257.34 608.461 2258.79 617.428C2257.14 620.389 2256.96 620.447 2254.18 622.508C2251.05 616.932 2236.4 609.651 2238.83 601.06C2240.91 600.212 2242.04 600.02 2243.27 598.159C2239.66 594.479 2238.9 593.868 2237.95 588.551Z"/><path fill="#C0BEBB" d="M2202.7 806.548C2207.06 811.586 2207.99 818.285 2214.55 821.154C2219.94 823.51 2225.28 820.799 2230.26 818.671C2224.54 821.981 2217.56 825.726 2212.52 829.814C2206.33 819.852 2204.47 818.189 2202.7 806.548Z"/><path fill="#D2CDC8" d="M2437.64 858.869C2433.19 856.423 2428.78 853.915 2424.4 851.344L2424.37 850.591L2430.39 852.021C2439.64 854.315 2436.74 847.599 2448.39 847.565C2444.43 852.235 2442.11 854.696 2437.64 858.869Z"/><path fill="#D2CDC8" d="M2285.33 791.421C2280.37 787.908 2275.65 785.256 2270.41 782.245C2274.79 780.84 2279.99 786.824 2290.81 782.102L2285.33 791.421Z"/><defs><linearGradient id="gradient_0" gradientUnits="userSpaceOnUse" x1="2433.9685" y1="917.18158" x2="2426.0557" y2="902.55865"><stop offset="0" stop-color="#B3B3B1"/><stop offset="1" stop-color="#D9D4CF"/></linearGradient></defs><path fill="url(#gradient_0)" d="M2449.9 900.207L2450.28 900.555C2451.35 911.859 2434.87 919.341 2426.22 922.509C2421.45 921.288 2418.8 920.279 2414.25 918.512C2412.11 915.699 2410.51 913.912 2410.31 910.688C2415.32 903.911 2432.94 906.443 2441.17 906.385C2444.31 904.539 2446.99 902.398 2449.9 900.207Z"/><path fill="#EBE5E0" d="M1802.36 706.761C1822.29 681.032 1848.01 688.48 1864.04 713.604C1880.9 708.308 1892.18 708.4 1902.04 725.539C1904.5 731.09 1904.62 734.989 1904.54 741.07C1925.02 759.919 1925.57 779.33 1902.44 796.285C1920.95 813.51 1927.56 832.59 1908.6 852.925C1907.43 854.181 1906.22 855.407 1904.98 856.602C1913.01 862.91 1916.02 866.084 1919.46 875.98C1919.24 880.42 1917.91 891.322 1920.09 894.35C1939.43 902.064 1951.4 920.883 1939.44 940.5C1934.95 947.924 1927.61 953.18 1919.14 955.037C1907 957.71 1898.82 953.57 1889.11 947.214C1877.68 955.493 1866.26 959.967 1851.9 957.907C1839.93 956.235 1829.12 949.826 1821.91 940.117C1809.37 923 1813.41 902.804 1830.74 890.951C1826.01 883.789 1824.77 881.374 1822.85 873.126C1823.3 859.532 1825.23 856.286 1834.29 846.401C1828.07 839.583 1825.72 836.333 1824.49 827.203C1825.24 814.811 1826.42 811.48 1834.41 801.926C1834.53 801.106 1834.36 796.955 1834.33 795.871C1831.38 792.593 1833.01 784.902 1833.58 780.778C1812.19 773.975 1807.96 769.676 1809.15 746.675C1798.5 748.33 1793.04 748.517 1782.26 747.789C1781.28 770.966 1772.43 781.136 1753.46 792.644C1769.42 806.634 1772.97 823.066 1759.65 840.556L1756.85 844.329C1761.75 847.309 1763.49 850.483 1766.23 855.512C1767 857.949 1767.83 860.064 1768.05 862.592C1770.64 875.012 1767.91 882.703 1759.77 891.905C1770.66 899.274 1779.48 907 1782.1 920.725C1783.79 929.502 1781.9 938.593 1776.85 945.968C1770.61 955.135 1762.79 959.052 1752.73 962.569C1737.24 964.543 1730.8 962.75 1717.45 954.165C1715.07 955.706 1712.25 957.402 1709.71 958.658C1698.39 964.181 1685.36 965.013 1673.43 960.974C1655.3 954.746 1643.24 935.98 1650.01 916.737C1654.34 904.426 1665.88 900.43 1676.96 895.682C1679.25 880.738 1680.9 875.679 1689.7 863.414C1689.3 863.039 1688.92 862.658 1688.53 862.272C1668.33 841.708 1670.91 824.067 1691.07 805.444C1680.58 795.121 1678.43 787.824 1677.4 773.173C1668.47 767.758 1660.85 764.598 1655.66 754.865C1646.63 737.92 1655.03 718.639 1671.69 710.459C1684.52 704.156 1694.9 706.883 1707.86 711.411C1727.6 690.194 1743.55 686.802 1762.96 711.092L1764.74 714.677C1766.31 718.791 1765.59 719.122 1768.5 720.696C1778.61 713.74 1785.07 713.304 1795.86 719.052C1797.22 717.233 1798.89 713.006 1799.87 710.758L1802.36 706.761Z"/><path fill="#D2CDC8" d="M1833.58 780.778C1836.61 800.115 1862.69 798.715 1865.82 809.92C1864.92 812.5 1865.02 812.549 1863.24 814.796C1850.85 818.857 1841.62 810.757 1834.41 801.926C1834.53 801.106 1834.36 796.955 1834.33 795.871C1831.38 792.593 1833.01 784.902 1833.58 780.778Z"/><path fill="#C0BEBB" d="M1834.33 795.871C1843.65 802.726 1850.58 810.488 1861.04 809.501C1863.11 811.755 1862.49 811.336 1863.24 814.796C1850.85 818.857 1841.62 810.757 1834.41 801.926C1834.53 801.106 1834.36 796.955 1834.33 795.871Z"/><path fill="#C0BEBB" d="M1822.85 873.126C1825.26 875.389 1833.26 880.407 1834.06 881.619C1832.18 883.155 1832.43 882.682 1829.6 883.079C1838.87 889.55 1858.83 884.103 1864.63 892.379C1863.93 896.501 1864.62 894.943 1861.92 898.256C1851.9 903.24 1838.89 896.979 1830.74 890.951C1826.01 883.789 1824.77 881.374 1822.85 873.126Z"/><path fill="#D2CDC8" d="M1902.04 725.539C1904.5 731.09 1904.62 734.989 1904.54 741.07C1898.98 751.774 1897.73 754.533 1885.11 755.328C1882.2 754.848 1879.95 752.715 1878.05 750.648C1876.21 741.127 1894.97 734.832 1902.08 731.807L1902.04 725.539Z"/><path fill="#C0BEBB" d="M1902.04 725.539C1904.5 731.09 1904.62 734.989 1904.54 741.07C1898.98 751.774 1897.73 754.533 1885.11 755.328L1883.56 753.59L1883.73 751.421C1891 742.363 1901.65 748.814 1902.08 731.807L1902.04 725.539Z"/><path fill="#D2CDC8" d="M1717.45 954.165C1717.94 949.33 1717.8 944.093 1721.49 941.021C1732.94 940.956 1736.07 959.728 1752.73 962.569C1737.24 964.543 1730.8 962.75 1717.45 954.165Z"/><path fill="#C0BEBB" d="M1824.49 827.203L1829.5 828.377C1830.71 831.424 1830.93 836.485 1834.42 837.412C1841.65 839.335 1854.6 834.649 1859.27 842.595C1857 851.822 1842.76 849.714 1836.02 847.118C1835.44 846.891 1834.86 846.652 1834.29 846.401C1828.07 839.583 1825.72 836.333 1824.49 827.203Z"/><path fill="#D2CDC8" d="M1762.96 711.092L1764.74 714.677C1766.31 718.791 1765.59 719.122 1768.5 720.696C1765.93 725.255 1767.53 726.283 1766.73 728.766L1765.4 727.424C1760.69 729.068 1746.7 739.121 1743.12 742.982L1741.57 743.134C1731.66 727.676 1751.99 728.392 1760.08 720.462C1763.51 717.098 1762.82 715.448 1762.96 711.092Z"/><path fill="#C0BEBB" d="M1768.05 862.592C1770.64 875.012 1767.91 882.703 1759.77 891.905C1751.47 895.607 1750.74 896.004 1741.85 894.49C1750.27 879.733 1767.38 882.795 1768.05 862.592Z"/><path fill="#D2CDC8" d="M1766.23 855.512C1767 857.949 1767.83 860.064 1768.05 862.592C1767.38 882.795 1750.27 879.733 1741.85 894.49C1738.84 891.858 1737.05 890.993 1737.11 886.908C1742.34 878.424 1754.03 878.017 1761.47 871.889C1765.46 868.6 1765.51 860.715 1766.23 855.512Z"/><path fill="#D2CDC8" d="M1799.87 710.758L1802.36 706.761C1801.63 722.222 1810.91 725.927 1809.26 734.169C1806.97 736.226 1806.05 736.248 1802.83 735.813C1795.77 730.175 1796.31 727.484 1795.86 719.052C1797.22 717.233 1798.89 713.006 1799.87 710.758Z"/><path fill="#C0BEBB" d="M1795.86 719.052C1797.22 717.233 1798.89 713.006 1799.87 710.758C1798.59 719.403 1805.66 727.73 1802.83 735.813C1795.77 730.175 1796.31 727.484 1795.86 719.052Z"/><path fill="#C0BEBB" d="M1743.12 742.982C1746.7 739.121 1760.69 729.068 1765.4 727.424L1766.73 728.766C1762.33 740.467 1756.08 745.204 1743.12 742.982Z"/><path fill="#D2CDC8" d="M1756.85 844.329C1755.17 841.971 1747.37 837.088 1743.36 833.081C1745.26 833.55 1749.88 836.023 1750.23 835.966C1753.81 835.391 1752.3 834.507 1756.22 835.75C1755.55 837.679 1755.36 837.638 1755.88 839.564L1759.65 840.556L1756.85 844.329Z"/><path fill="#D2CDC8" d="M1906.63 905.722C1903.07 906.08 1902.29 906.134 1898.76 905.609C1896.02 903.419 1896.76 904.695 1896.28 900.788L1897.09 902.813C1895.91 896.064 1904.29 888.358 1909.97 886.118C1909.4 889.698 1908.97 889.864 1906.38 892.66L1906.71 893.883L1908.66 893.638C1908.66 897.133 1908.75 897.431 1907.54 900.633C1905.11 901.804 1904.78 901.937 1902.17 902.631L1902.08 903.763C1903.63 904.016 1905.02 904.344 1906.47 904.951L1906.63 905.722Z"/><path fill="#EBE5E0" d="M1512.59 686.279C1536.81 665.02 1559.93 676.207 1570.45 703.782C1580.52 700.074 1590.79 697.687 1600.65 702.588C1614.34 709.395 1616.92 724.128 1622.19 736.781C1623.2 739.195 1629.07 742.108 1629.76 744.029C1631.25 748.199 1627.9 756.832 1626.53 760.856C1660.74 791.262 1645.25 813.01 1603.52 812.558L1496.96 811.186C1495.32 814.443 1493.77 817.477 1492.31 820.828C1503.68 827.764 1509.98 830.815 1515.8 843.038L1516.2 843.852C1518.03 850.764 1516.32 857.629 1517.38 861.155C1542.68 889.636 1558.89 856.461 1580.09 874.391L1582.87 877.022C1587.24 875.168 1590.14 874.096 1594.67 872.685C1604.16 872.215 1602.9 873.244 1607.09 864.861L1610.84 859.97C1617.55 855.969 1623.47 853.77 1631.52 855.961C1636.61 857.295 1640.9 860.686 1643.38 865.32C1645.58 869.468 1645.98 874.332 1644.51 878.787C1641.67 887.382 1634.8 891.221 1627.35 895.124C1628.13 906.093 1626.82 915.097 1619.29 923.841C1614.28 929.697 1607.18 933.358 1599.51 934.036C1596.03 934.328 1592.52 934.098 1589.11 933.356C1583.6 935.222 1572.82 955.358 1553.6 957.584C1537.5 959.447 1527.5 956.673 1513.98 947.253C1491.36 953.301 1475.84 951.881 1464.78 928.798C1463.95 926.081 1463.18 922.809 1462.44 920.016C1458.53 918.784 1443.57 919.626 1436.87 915.68C1429.38 911.273 1426.36 903.134 1423.8 895.483C1423.36 892.626 1423.2 889.733 1423.33 886.845C1423.76 877.097 1428.43 869.966 1435.29 863.506C1430.61 860.33 1426.4 857.934 1423.07 853.367C1409.98 835.305 1414.91 821.634 1431.57 809.263C1421.32 792.881 1425.79 782.406 1437.24 769.175C1428.87 747.77 1434.52 737.46 1457.33 734.145C1463.25 706.188 1470.24 693.135 1501.82 704.791C1504.11 702.024 1505.94 696.369 1507.27 692.854C1508.8 690.752 1510.91 688.329 1512.59 686.279ZM1489.72 745.758C1496.11 757.708 1492.19 763.427 1482 771.228C1486.16 774.488 1488.1 776.561 1491.73 780.359C1518.61 780.736 1545.49 780.58 1572.36 779.889C1569.81 772.717 1542.61 770.67 1554.09 743.596C1553.76 742.406 1553.37 741.552 1552.38 740.709C1533.62 724.69 1507.24 728.417 1489.98 743.872L1489.72 745.758Z"/><path fill="#C0BEBB" d="M1464.78 928.798C1469.71 932.168 1472.84 938.575 1476.64 940.477L1477.72 937.436C1482.81 939.566 1483.7 943.354 1491.32 940.439C1496.55 938.438 1498.93 935.566 1504.62 935.013L1505.39 935.809L1504.23 938.329C1509.08 940.744 1513.36 936.102 1522.12 938.683L1523.36 941.547C1521.39 944.484 1520 946.107 1521.39 949.384C1527.81 951.432 1564.14 945.585 1574.56 944.823C1578.76 940.548 1580.99 935.666 1585.51 932.011C1588.54 932.205 1587.49 931.552 1589.11 933.356C1583.6 935.222 1572.82 955.358 1553.6 957.584C1537.5 959.447 1527.5 956.673 1513.98 947.253C1491.36 953.301 1475.84 951.881 1464.78 928.798Z"/><path fill="#C0BEBB" d="M1580.09 874.391L1582.87 877.022C1588.65 913.508 1555.54 902.951 1556.05 890.804C1558.3 888.15 1561.86 886.649 1565.02 884.96L1564.41 884.995C1569.47 881.695 1576.35 879.092 1580.09 874.391Z"/><path fill="#C0BEBB" d="M1476.78 817.845L1477.87 817.63L1479.23 819.135L1481.22 818.691C1483.27 816.803 1485.35 815.58 1485.86 813.269L1481.8 811.785C1483.34 809.894 1487.05 809.633 1489.7 809.163C1493.62 806.124 1491.34 804.012 1494.3 802.167L1495.32 803.562L1497.79 798.41C1498.81 801.154 1497.46 807.986 1496.96 811.186C1495.32 814.443 1493.77 817.477 1492.31 820.828C1480.77 830.471 1477.96 832.727 1462.75 829.366C1466.15 821.032 1470.65 823.843 1476.78 817.845Z"/><path fill="#C0BEBB" d="M1516.2 843.852C1518.03 850.764 1516.32 857.629 1517.38 861.155C1513.99 864.055 1511.6 874.503 1506.54 877.71C1501.66 880.796 1491.39 881.971 1487.95 876.773C1488.94 872.343 1500.89 863.492 1504.72 862.834C1504.02 865.169 1503.09 866.468 1503.91 868.044C1507.76 868.492 1508.25 868.388 1511.98 867.313C1515.42 861.289 1515.96 850.7 1516.2 843.852Z"/><path fill="#C0BEBB" d="M1423.8 895.483C1427.96 896.998 1431.47 898.224 1435.46 900.181L1435.36 900.943L1430.41 901.698L1429.86 903.04C1434.18 909.758 1443.7 911.541 1451.23 911.123L1453.44 911.146C1457.96 916.754 1459.41 914.713 1463.81 917.445L1462.44 920.016C1458.53 918.784 1443.57 919.626 1436.87 915.68C1429.38 911.273 1426.36 903.134 1423.8 895.483Z"/><path fill="#C0BEBB" d="M1501.82 704.791C1504.11 702.024 1505.94 696.369 1507.27 692.854C1510.04 702.722 1515.87 705.261 1517.59 718.237C1503.94 727.34 1504.3 710.906 1501.82 704.791Z"/><path fill="#D2CDC8" d="M1512.59 686.279C1518.82 695.444 1526.34 708.375 1517.59 718.237C1515.87 705.261 1510.04 702.722 1507.27 692.854C1508.8 690.752 1510.91 688.329 1512.59 686.279Z"/><path fill="#D2CDC8" d="M1607.09 864.861L1610.84 859.97C1615.6 868.446 1624.7 880.568 1614.1 887.036L1613.09 886.914C1615.68 880.712 1606.35 878.012 1607.09 864.861Z"/><path fill="#D2CDC8" d="M1451.23 911.123L1451.81 909.466L1450.46 906.667L1451.95 905.264C1460.39 905.658 1456.98 913.448 1466.86 907.276C1469.52 908.555 1468.54 907.558 1469.62 910.6C1468.17 914.144 1466.7 914.972 1463.81 917.445C1459.41 914.713 1457.96 916.754 1453.44 911.146L1451.23 911.123Z"/><path fill="#C0BEBB" d="M1423.07 853.367C1425.68 854.419 1427.93 855.755 1430.53 855.039C1430.8 852.834 1430.6 852.566 1431.87 850.829L1437.08 852.583L1437.94 853.506L1437.26 854.558C1440.09 859.327 1441.67 858.067 1445.19 860.465C1442.48 861.231 1437.71 862.418 1435.29 863.506C1430.61 860.33 1426.4 857.934 1423.07 853.367Z"/><path fill="#C0BEBB" d="M1607.09 864.861C1606.35 878.012 1615.68 880.712 1613.09 886.914C1605.68 884.516 1606.51 882.577 1604.08 875.271C1600.63 872.378 1599.87 873.202 1594.67 872.685C1604.16 872.215 1602.9 873.244 1607.09 864.861Z"/><path fill="#D2CDC8" d="M1462.75 829.366C1459.95 826.868 1457.99 825.55 1459 821.692C1467.02 815.881 1467.06 825.529 1476.44 812.192C1476.36 814.03 1476.28 814.848 1476.58 816.67L1476.78 817.845C1470.65 823.843 1466.15 821.032 1462.75 829.366Z"/><path fill="#D2CDC8" d="M1437.08 852.583C1441.43 852.01 1447.11 854.953 1448.35 859.299C1447.29 859.739 1446.28 860.26 1445.19 860.465C1441.67 858.067 1440.09 859.327 1437.26 854.558L1437.94 853.506L1437.08 852.583Z"/><path fill="#D2CDC8" d="M1522.12 938.683C1524.65 937.342 1525.58 935.614 1527.22 933.32L1528.59 932.818C1528.22 936.827 1526.44 939.044 1523.36 941.547L1522.12 938.683Z"/><path fill="#D2CDC8" d="M1470.18 765.901C1467.79 763.683 1467.95 762.825 1468.05 759.915C1472.01 754.056 1479.03 754.959 1484.88 752.965C1487.78 751.977 1485.51 747.902 1489.98 743.872L1489.72 745.758C1496.11 757.708 1492.19 763.427 1482 771.228C1477.97 769.711 1474.07 767.758 1470.18 765.901Z"/><path fill="#D2CDC8" d="M1554.09 743.596C1554.28 758.37 1557.62 750.67 1562.78 760.358C1562.23 763.981 1560.12 762.272 1561.63 763.806C1565.71 767.943 1579.63 769.225 1580.64 775.018C1578.2 777.886 1577.29 778.159 1573.92 780.07L1572.36 779.889C1569.81 772.717 1542.61 770.67 1554.09 743.596Z"/><path fill="#D2CDC8" d="M1593.94 754.838C1589.5 754.067 1586.35 752.294 1586.54 747.637C1589.79 741.504 1607.83 735.603 1614.39 733.439C1605.27 746.372 1598.76 739.01 1596.55 751.814C1594.14 753.553 1594.83 752.458 1593.94 754.838Z"/><path fill="#C0BEBB" d="M1608.34 747.083C1611.07 743.551 1613.07 740.186 1616.98 738.269L1618.04 739.016C1617.73 743.032 1615.97 745.472 1614.03 749.058C1605 754.812 1604.36 755.218 1593.94 754.838C1594.83 752.458 1594.14 753.553 1596.55 751.814C1602.55 747.569 1602.16 748.956 1608.34 747.083Z"/><path fill="#EBE5E0" d="M753.905 692.551C775.945 669.718 804.884 674.328 815.388 704.958C838.054 696.846 854.566 702.136 862.459 726.162C863.38 728.965 864.156 731.814 864.784 734.697C878.414 744.354 879.326 748.529 869.743 761.866C877.655 767.296 884.798 771.614 887.032 781.605C891.202 797.238 882.431 809.659 867.11 811.95C849.015 814.656 827.883 812.007 809.501 811.91C797.524 811.847 782.815 812.858 771.486 811.138C766.784 811.718 748.599 811.256 743.515 810.851C740.255 815.075 739.377 816.637 736.907 821.359C754.338 829.9 761.098 836.772 759.303 857.176C766.711 863.764 770.417 866.998 779.479 870.899C800.716 868.774 808.546 858.299 826.513 874.409L837.282 870.731C846.55 867.87 845.96 873.832 851.028 862.63C860.863 849.657 871.041 850.787 883.963 858.094C890.1 867.361 892.513 873.856 885.345 883.858C881.683 886.245 875.542 890.007 872.378 892.649C871.029 905.193 869.593 914.984 859.436 924.196C849.7 933.024 838.555 926.865 828.557 930.181C827.42 930.558 821.433 938.566 819.862 940.381C800.355 957.952 779.66 958.276 758.634 943.499C740.334 948.937 726.501 949.499 714.214 933.02C710.552 928.561 708.709 923.763 707.493 918.214L706.95 917.178C697.94 911.955 684.037 921.662 672.551 899.8C665.046 885.169 668.603 871.276 681.112 860.892C670.313 854.196 666.446 851.891 661.889 839.992C659.672 823.742 663.515 817.778 676.118 808.752C669.028 790.326 669.108 784.477 683.02 769.291C671.563 746.821 682.789 738.401 703.836 734.258C703.668 702.581 719.69 698.023 746.832 705.578C748.256 704.312 751.628 696.051 753.905 692.551ZM734.393 744.508C735.829 748.874 736.764 750.916 736.862 755.359C736.99 761.194 725.678 775.273 732.177 777.512C744.464 781.745 770.271 780.841 783.75 780.909C796.026 780.998 808.303 780.976 820.579 780.841C800.86 771.929 790.962 767.103 797.925 742.733C783.811 732.729 779.336 730.219 761.454 731.362C750.439 734.141 743.133 736.848 734.393 744.508Z"/><path fill="#C0BEBB" d="M768.747 934.719C770.232 932.415 771.709 929.202 773.815 928.294C772.544 935.373 763.739 941.165 763.735 944.136C779.396 950.029 801.566 942.589 819.862 940.381C800.355 957.952 779.66 958.276 758.634 943.499C740.334 948.937 726.501 949.499 714.214 933.02C733.269 942.411 748.059 936.821 768.747 934.719Z"/><path fill="#C0BEBB" d="M887.032 781.605C891.202 797.238 882.431 809.659 867.11 811.95C849.015 814.656 827.883 812.007 809.501 811.91C797.524 811.847 782.815 812.858 771.486 811.138C795.778 809.231 860.855 812.383 879.967 802.614C883.703 798.561 886.716 787.526 887.032 781.605Z"/><path fill="#D2CDC8" d="M661.889 839.992C665.655 839.93 668.165 839.452 671.342 841.312L671.266 842.554L666.925 844.545L667.096 845.462L667.976 845.888L668.292 843.577L668.913 846.201C677.392 848.103 690.812 847.613 698.606 851.79L699.293 853.598C696.748 858.31 686.147 860.324 681.112 860.892C670.313 854.196 666.446 851.891 661.889 839.992Z"/><path fill="#C0BEBB" d="M719.236 822.381C722.28 823.163 729.049 819.714 731.449 817.752L728.162 815.967L728.882 814.848C735.999 813.237 734.997 813.665 737.472 807.377C740.438 807.894 741.403 808.749 743.515 810.851C740.255 815.075 739.377 816.637 736.907 821.359C728.22 829.836 722.342 832.778 709.787 829.993C712.194 825.267 714.624 824.534 719.236 822.381Z"/><path fill="#C0BEBB" d="M753.905 692.551C754.172 701.221 761.319 713.424 756.886 719.585C753.341 720.157 755.014 720.321 751.67 719.127C746.027 713.804 749.74 709.049 746.832 705.578C748.256 704.312 751.628 696.051 753.905 692.551Z"/><path fill="#C0BEBB" d="M672.551 899.8C678.037 903.56 682.779 905.829 688.893 908.404C697.481 912.02 700.096 915.663 708.363 909.345L709.278 907.251L710.611 908.618C710.365 914.033 708.139 913.366 707.493 918.214L706.95 917.178C697.94 911.955 684.037 921.662 672.551 899.8Z"/><path fill="#C0BEBB" d="M837.282 870.731C846.55 867.87 845.96 873.832 851.028 862.63C854.955 868.428 859.575 874.035 860.022 881.043C858.028 884.117 859.339 883.007 855.9 884.434C846.887 882.607 851.708 874.625 846.503 870.97C843.357 870.836 840.441 870.723 837.282 870.731Z"/><path fill="#D2CDC8" d="M709.787 829.993C706.635 826.732 704.646 825.333 706.611 820.912C711.181 819.012 714.909 820.215 719.236 822.381C714.624 824.534 712.194 825.267 709.787 829.993Z"/><path fill="#D2CDC8" d="M824.828 878.87C833.465 884.558 823.863 893.78 818.015 896.503C814.598 898.094 811.068 898.664 807.455 899.307C804.495 896.905 803.793 896.793 803.599 893.17C806.877 886.659 817.981 882.346 824.828 878.87Z"/><path fill="#C0BEBB" d="M757.946 861.122C756.84 874.738 744.256 879.198 732.368 875.398C730.687 872.125 731.12 871.234 733.086 868.629C743.139 863.87 749.778 873.168 757.946 861.122Z"/><path fill="#C0BEBB" d="M860.074 738.214L862.263 739.051L863.121 741.409C860.457 750.218 849.626 754.958 841.298 756.448L839.85 754.842C843.898 753.07 848.903 751.011 852.665 748.765C859.016 744.975 858.378 744.606 860.074 738.214Z"/><path fill="#C0BEBB" d="M840.16 746.777L841.428 747.527L841.538 749.12C839.005 750.12 837.36 750.849 834.921 752.069L834.043 752.017L833.301 750.916C835.556 748.368 836.907 748.134 840.16 746.777Z"/><path fill="#EBE5E0" d="M310.434 629.457C330.163 645.189 330.172 645.12 353.66 647.88C359.088 660.373 357.423 663.912 353.541 676.37C364.783 692.272 365.156 704.078 351.096 718.35C391.658 754.622 351.9 767.599 352.235 777.537C355.754 787.404 353.07 791.836 348.953 801.064C367.185 823.863 371.221 846.312 348 868.084C343.865 870.637 338.451 873.378 335.94 877.28C333.579 872.538 332.089 871.272 328.456 867.453C276.828 836.564 256.097 881.386 251.657 881.756L251.031 881.309C251.786 878.387 202.277 832.921 262.482 800.573C259.157 797.965 255.895 795.279 252.699 792.516L252.225 791.837C248.202 787.667 245.621 784.042 244.179 778.354C242.405 774.346 241.847 771.35 241.583 767.012C240.849 755.102 244.875 743.387 252.775 734.444C250.719 730.972 248.945 727.51 247.088 723.937C244.808 706.163 245.952 701.713 256.872 687.256C243.07 671.324 238.639 656.24 249.902 637.345C251.309 636.15 252.367 634.753 253.462 633.28L254.572 633.527L254.965 636.725C280.139 651.328 289.058 648.402 310.434 629.457Z"/><defs><linearGradient id="gradient_1" gradientUnits="userSpaceOnUse" x1="296.87436" y1="873.81274" x2="298.85757" y2="761.87347"><stop offset="0" stop-color="#D4CFCA"/><stop offset="1" stop-color="#FCF7F1"/></linearGradient></defs><path fill="url(#gradient_1)" d="M305.933 760.274C316.773 767.599 329.163 781.483 341.343 778.844C344.426 778.176 349.447 776.74 352.235 777.537C355.754 787.404 353.07 791.836 348.953 801.064C367.185 823.863 371.221 846.312 348 868.084C343.865 870.637 338.451 873.378 335.94 877.28C333.579 872.538 332.089 871.272 328.456 867.453C276.828 836.564 256.097 881.386 251.657 881.756L251.031 881.309C251.786 878.387 202.277 832.921 262.482 800.573C259.157 797.965 255.895 795.279 252.699 792.516L252.225 791.837C248.202 787.667 245.621 784.042 244.179 778.354C244.677 771.206 244.281 768.25 243.408 761.045C247.931 767.227 250.941 772.099 257.66 775.95C277.123 787.108 295.097 777.062 305.933 760.274Z"/><path fill="#D2CDC8" d="M252.225 791.837C262.195 786.327 265.439 788.301 276.682 788.493C280.311 790.732 286.315 793.483 287.331 796.843C285.613 799.007 283.651 799.866 280.934 800.698C273.35 802.516 270.154 801.683 262.482 800.573C259.157 797.965 255.895 795.279 252.699 792.516L252.225 791.837Z"/><path fill="#C0BEBB" d="M328.456 867.453C329.403 867.143 346.008 867.868 348 868.084C343.865 870.637 338.451 873.378 335.94 877.28C333.579 872.538 332.089 871.272 328.456 867.453Z"/><path fill="#D2CDC8" d="M247.088 723.937C253.159 725.331 264.492 726.866 267.956 731.371C265.004 737.217 258.091 736.176 252.775 734.444C250.719 730.972 248.945 727.51 247.088 723.937Z"/><path fill="#D2CDC8" d="M321.598 687.648C318.628 685.36 319.613 686.757 318.294 683.486C321.211 678.485 347.251 678.038 351.569 679.488C351.732 682.829 351.481 681.958 348.82 685.427C340.97 692.535 330.66 691.98 321.598 687.648Z"/><path fill="#C0BEBB" d="M321.598 687.648C326.294 685.004 341.596 682.24 347.298 683.203L348.82 685.427C340.97 692.535 330.66 691.98 321.598 687.648Z"/><path fill="#EBE5E0" d="M1961.38 772.873C1967.34 761.146 1972.02 757.921 1984.1 753.261C1987.6 755.977 1989.07 759.815 1991.96 763.337C2000.66 773.966 2010.96 771.076 2021.57 773.387C2028.03 780.658 2030.73 784.454 2032.46 794.334C2033.09 804.997 2028.15 812.32 2028.99 816.192C2046.32 823.971 2055.94 831.388 2060.4 850.699C2060.38 855.837 2058.16 867.398 2059.21 869.009C2075.75 877.896 2080.96 876.248 2094.24 863.266C2104.13 853.59 2116.44 859.106 2125.75 866.974C2126.91 868.6 2128.58 870.802 2129.59 872.441C2135.68 869.65 2138.88 869.172 2145.41 868.574C2146.07 865.26 2146.99 862.594 2148.01 859.397C2153.47 854.668 2158.34 851.284 2166.21 852.085C2170.88 852.525 2175.16 854.901 2178 858.637C2180.71 862.26 2181.81 866.836 2181.04 871.295C2179.69 879.486 2174.9 882.846 2168.58 887.391C2162.51 908.114 2165.28 919.739 2136.1 917.129C2134 925.446 2133.63 929.857 2127.97 936.276C2115.87 952.548 2095.02 951.73 2078.04 944.465C2065.57 950.594 2053.88 955.525 2039.63 950.839C2034.14 948.974 2029.06 946.067 2024.66 942.278L2022.68 939.932C2020.16 937.677 2016.96 933.23 2014.79 930.44C1992.28 934.756 1973.51 929.218 1964.43 906.681C1958.28 893.13 1963.1 882.944 1969.06 870.539C1939.04 854.373 1930.35 820.681 1964.4 804.352C1963.22 798.694 1960.63 791.986 1959.13 784.712C1959.39 780.293 1960.33 777.133 1961.38 772.873Z"/><path fill="#C0BEBB" d="M2083.19 934.406L2084.37 936.339C2083.27 939.459 2082.27 941.029 2083.06 944.037L2085.04 945.36L2086.15 944.876C2096.14 940.669 2099.51 946.206 2108.89 945.284C2114.16 944.767 2122.57 938.818 2127.97 936.276C2115.87 952.548 2095.02 951.73 2078.04 944.465C2065.57 950.594 2053.88 955.525 2039.63 950.839C2034.14 948.974 2029.06 946.067 2024.66 942.278C2035.13 941.479 2040.1 936.991 2048.79 936.197C2059.66 935.203 2072.43 940.147 2083.19 934.406Z"/><path fill="#D2CDC8" d="M2032.46 794.334C2033.09 804.997 2028.15 812.32 2028.99 816.192C2021.7 821.114 2010.89 832.954 2000.31 822.504C1999.59 813.392 2025.47 806.604 2030.5 798.976C2030.36 799.183 2032.36 794.564 2032.46 794.334Z"/><path fill="#D2CDC8" d="M1959.13 784.712C1959.39 780.293 1960.33 777.133 1961.38 772.873C1962.01 780.438 1968.26 778.682 1969.55 788.137C1973.81 792.699 1978.23 796.655 1974.58 802.983C1970.85 805.143 1968.78 804.879 1964.4 804.352C1963.22 798.694 1960.63 791.986 1959.13 784.712Z"/><path fill="#C0BEBB" d="M1964.43 906.681C1974.02 912.381 1975.17 923.953 1993.12 924.832C1999.59 925.149 2010.01 931.972 2017.29 928.122C2017.84 926.696 2018.14 925.053 2019.16 924.448C2021.82 927.327 2020.21 933.597 2022.68 939.932C2020.16 937.677 2016.96 933.23 2014.79 930.44C1992.28 934.756 1973.51 929.218 1964.43 906.681Z"/><path fill="#D2CDC8" d="M2125.75 866.974C2126.91 868.6 2128.58 870.802 2129.59 872.441C2128.77 876.338 2129.06 876.661 2130.3 880.611C2122.58 885.285 2109.98 892.395 2104.57 898.889C2101.69 896.152 2101.55 894.753 2101.44 891.494C2105.96 882.558 2120.11 882.624 2126.57 876.643C2127.49 873.476 2126.43 870.333 2125.75 866.974Z"/><path fill="#C0BEBB" d="M2059.21 869.009C2056.93 870.698 2056.34 872.675 2054.49 874.626C2045.44 884.165 2037.99 890.169 2026.37 880.495L2026.6 878.953C2029.22 879.939 2032.93 882.351 2034.48 881.466C2039.74 878.455 2050.51 874.295 2053.43 869.471C2053.69 865.745 2053.86 867.178 2051.96 863.634L2052.55 862.595L2055.16 862.399C2056.79 857.649 2058.12 855.146 2060.4 850.699C2060.38 855.837 2058.16 867.398 2059.21 869.009Z"/><path fill="#C0BEBB" d="M2104.57 898.889C2109.98 892.395 2122.58 885.285 2130.3 880.611C2129.66 897.202 2120.58 902.444 2104.57 898.889Z"/><path fill="#C0BEBB" d="M2148.01 859.397C2151.54 864.858 2154.7 868.386 2153.67 874.922L2152.53 875.687C2148.82 874.067 2147.52 872.192 2145.41 868.574C2146.07 865.26 2146.99 862.594 2148.01 859.397Z"/><path fill="#D2CDC8" d="M2083.19 934.406C2083.65 931.371 2083.54 928.402 2085.28 926.439C2086.19 930.366 2085.57 932.375 2084.37 936.339L2083.19 934.406Z"/><defs><linearGradient id="gradient_2" gradientUnits="userSpaceOnUse" x1="298.57968" y1="954.12994" x2="303.40982" y2="858.22211"><stop offset="0" stop-color="#D1CDC9"/><stop offset="1" stop-color="#FEFAF4"/></linearGradient></defs><path fill="url(#gradient_2)" d="M251.031 881.309L251.657 881.756C256.097 881.386 276.828 836.564 328.456 867.453C332.089 871.272 333.579 872.538 335.94 877.28C360.716 873.118 379.156 876.155 391.335 900.882C393.828 907.66 394.988 912.846 395.11 920.163C391.182 951.001 366.361 957.466 340.592 945.57C314.673 962.619 294.093 961.329 268.735 944.183C250.599 954.323 230.103 956.985 215.688 939.059C209.107 930.88 206.066 920.411 207.24 909.979C209.941 886.188 229.593 878.6 251.031 881.309Z"/><defs><linearGradient id="gradient_3" gradientUnits="userSpaceOnUse" x1="301.3923" y1="649.00616" x2="293.33347" y2="549.21533"><stop offset="0" stop-color="#D3CDC9"/><stop offset="1" stop-color="#FFFCF6"/></linearGradient></defs><path fill="url(#gradient_3)" d="M255.306 586.327C262.148 560.718 281.136 544.688 308.937 547.323C323.518 548.705 335.803 557.687 341.494 571.375C345.887 574.375 351.117 569.753 357.286 569.369C368.324 571.012 376.122 574.37 383.047 583.626C389.272 591.896 391.868 602.341 390.238 612.563C388.567 622.839 383.278 631.91 374.997 638.423C369.58 642.684 356.136 645.791 353.66 647.88C330.172 645.12 330.163 645.189 310.434 629.457C289.058 648.402 280.139 651.328 254.965 636.725L254.572 633.527L253.462 633.28C252.367 634.753 251.309 636.15 249.902 637.345C243.125 633.923 215.544 646.703 207.958 616.668C205.909 608.34 207.212 599.54 211.589 592.164C222.557 573.888 239.937 577.077 255.306 586.327Z"/><path fill="#C0BEBB" d="M341.494 571.375C345.887 574.375 351.117 569.753 357.286 569.369C353.632 574.332 353.072 582.809 346.41 586.916C342.568 584.656 345.21 577.775 341.273 573.414L341.494 571.375Z"/><defs><linearGradient id="gradient_4" gradientUnits="userSpaceOnUse" x1="2079.6626" y1="788.25574" x2="2076.3323" y2="684.40625"><stop offset="0" stop-color="#CBC6C3"/><stop offset="1" stop-color="#FFFAF4"/></linearGradient></defs><path fill="url(#gradient_4)" d="M2067.44 696.03C2088.24 674.124 2109.06 679.095 2124.38 703.264C2142.82 701.635 2167.86 706.149 2164.67 730.702C2164.81 731.386 2165.59 735.305 2165.76 735.683C2185.32 760.367 2166.26 794.133 2135.49 789.506C2129.41 788.591 2120.29 790.396 2113.88 788.724C2087.98 782.768 2078.31 760.76 2093.63 738.692C2086.7 734.975 2081.83 732.599 2074.53 731.457C2059.07 729.04 2038.66 734.34 2041.25 753.939C2042.31 761.956 2027.41 769.683 2021.57 773.387C2010.96 771.076 2000.66 773.966 1991.96 763.337C1989.07 759.815 1987.6 755.977 1984.1 753.261C1986.09 750.985 1985.11 744.76 1985.58 741.016C1988.6 716.846 2002.57 712.822 2024.52 716.103C2031.31 690.078 2043.5 684.816 2067.44 696.03Z"/><path fill="#D2CDC8" d="M2137.98 747.279C2136.07 745.832 2136.28 745.705 2135.53 743.362C2140.02 735.574 2155.96 738.517 2161 733.612C2162.9 731.771 2162.08 732.228 2164.67 730.702C2164.81 731.386 2165.59 735.305 2165.76 735.683C2164.41 738.223 2163.11 740.663 2161.86 743.255C2156.75 739.886 2141.81 743.126 2137.98 747.279Z"/><path fill="#C0BEBB" d="M2137.98 747.279C2141.81 743.126 2156.75 739.886 2161.86 743.255C2153.41 751.404 2148.86 751.801 2137.98 747.279Z"/><path fill="#001048" fill-opacity="0.015686275" d="M883.963 858.094C888.211 858.891 892.553 860.295 896.613 860.549L898.864 858.491C902.556 858.525 901.146 858.15 904.511 861.388L905.915 860.974C907.171 858.524 906.434 853.302 906.258 850.268L907.161 849.446L908.236 852.95C911.032 853.928 914.297 851.931 917.727 850.654C917.857 854.988 917.916 859.435 918.274 863.747C893.982 873.511 891.767 881.634 895.276 906.507C888.406 899.596 892.714 891.63 889.244 884.635L885.345 883.858C892.513 873.856 890.1 867.361 883.963 858.094Z"/></svg>