<?xml version="1.0" encoding="utf-8" ?><svg xmlns="http://www.w3.org/2000/svg" xmlns:xlink="http://www.w3.org/1999/xlink" width="2688" height="1536" viewBox="0 0 2688 1536"><path fill="#FAF9F7" d="M0 0L2688 0L2688 1536L0 1536L0 0Z"/><path fill="#4C80AD" d="M344.958 751.513C325.308 747.963 306.01 738.99 295.444 721.402C245.249 637.847 332.725 526.15 424.913 544.481C450.857 549.774 473.63 565.168 488.212 587.268C513.586 625.506 504.034 664.182 488.34 703.314C491.733 709.901 496.672 698.603 506.996 696.586C524.475 685.623 539.807 676.094 560.613 672.086C579.862 668.379 589.529 672.1 606.252 680.367C601.955 639.365 585.861 613.376 615.881 576.917C640.23 547.346 684.998 532.09 716.726 558.874C732.181 572.173 741.728 591.059 743.274 611.389C745.595 641.006 732.154 666.656 723.331 693.878C719.596 705.404 705.811 745.07 707.549 755.196L708.825 755.824C712.733 752.786 719.633 742.558 722.669 738.139C754.399 691.954 809.978 653.351 867.713 674.919C883.187 680.7 896.678 691.192 907.16 705.039C917.23 718.147 923.919 733.533 926.635 749.839C934.437 736.52 940.273 727.186 950.146 715.348C984.088 674.647 1042.59 652.867 1085.99 693.062C1107.02 680.631 1126.62 666.097 1152.44 672.514C1182.02 679.868 1191.09 711.424 1183.22 738.065C1182.33 741.093 1179.45 747.925 1179.63 750.568L1180.61 751.301C1191.47 740.076 1198.37 696.296 1197.42 680.414C1196.82 670.377 1196.1 657.451 1192.22 647.755C1169.77 599.718 1217.88 545.527 1266.33 545.054C1283.3 544.829 1299.62 551.58 1311.47 563.728C1343.12 595.532 1336.02 636.57 1321.3 674.174C1337.35 674.152 1351.52 674.057 1366.4 681.373C1395.64 695.76 1406.84 727.991 1417.67 756.391L1418.4 755.357C1424.92 745.906 1429.37 735.472 1436.22 726.105C1474.85 673.309 1556.7 644.12 1608.31 696.52C1618.67 707.047 1623.09 718.849 1628.13 732.264C1636.9 705.554 1643.88 689.762 1670.43 676.958C1697.4 663.957 1728.98 668.874 1744.4 695.906C1806.19 642.655 1886.95 678.506 1881.58 762.921C1881.31 767.029 1879.81 775.483 1880.85 779.14L1882.53 780.018C1887.1 777.706 1900.54 751.275 1904.54 744.911C1935.7 695.409 1989.06 650.297 2051.33 672.809C2087.61 685.924 2101.34 703.441 2108.69 740.443C2124.35 695.492 2121.69 671.985 2110.21 627.714C2103.67 602.507 2133.01 561.721 2155.83 553.41C2192.98 536.772 2230.83 544.361 2248.18 583.488C2262.93 616.754 2255.51 642.442 2245.56 674.757C2304.22 660.074 2341.74 688.504 2348.15 747.229C2349.84 762.759 2338.06 782.679 2339.83 795.854C2341.81 796.394 2341.7 795.923 2343.41 795.442C2352.11 793.323 2367.64 795.715 2375.3 800.087C2390.67 808.87 2400.41 828.576 2405.11 844.965C2427.97 924.748 2327.33 1026.35 2249.59 976.85C2232.13 965.731 2221.5 955.047 2212.18 936.225C2206.63 945.361 2200.97 955.687 2193.21 963.025C2152.64 1001.4 2108.94 994.941 2075.82 954.117C2059.23 968.151 2047.4 977.727 2026.43 984.502C1987.8 996.984 1946.99 989.065 1915.81 963.212C1909.52 957.995 1904.3 952.017 1898.32 946.643C1886.98 957.444 1878.83 965.708 1865 973.827C1828.04 995.527 1781.85 993.372 1755.49 956.67C1751.91 951.689 1748.68 945.569 1745.53 940.133C1737.02 952.121 1731.56 960.392 1720.75 970.722C1691.52 998.63 1643.72 998.17 1617.67 966.347C1615.34 963.501 1613.12 960.3 1610.68 957.509C1601.42 963.314 1589.82 971.993 1580.35 976.512C1549.18 991.382 1516.5 994.359 1483.28 986.887C1439.75 977.096 1432.01 955.573 1403.51 931.731C1359.85 976.503 1302.25 1014.15 1242.78 970.318C1210.29 995.658 1189.76 997.328 1158.28 969.206C1117.81 995.482 1090.13 998.866 1052.76 964.061C1031.82 982.679 1011.77 992.302 982.881 990.375C950.181 988.193 931.848 971.885 909.788 950.629C902.493 956.196 891.122 967.379 884.907 971.264C858.688 987.652 819.679 994.099 789.212 989.913C761.27 986.073 741.686 974.751 721.828 955.727C704.491 975.351 690.793 988.695 662.662 990.64C643.22 992.002 624.042 985.531 609.4 972.669C605.465 969.23 602.362 965.749 598.953 961.81C569.824 986.971 536.673 996.573 498.833 984.171C481.482 978.484 470.674 969.145 457.751 956.801L456.688 957.349C449.426 961.158 441.031 967.751 434.121 972.55C369.019 1017.75 291.4 962.698 287.275 889.859C284.221 835.923 311.326 790.99 344.958 751.513Z"/><path fill="#FAF9F7" d="M488.34 703.314C491.733 709.901 496.672 698.603 506.996 696.586C498.873 703.411 491.569 709.17 483.275 716.359C485.226 710.201 485.386 709.266 488.34 703.314Z"/><path fill="#FAF9F7" d="M311.203 695.722C295.92 642.198 331.663 582.477 384.663 568.102C404.542 562.684 425.769 565.56 443.49 576.073C459.909 585.601 471.817 601.321 476.545 619.706C487.051 660.008 459.995 701.403 441.319 734.278C428.506 756.832 403.726 788.932 410.6 815.495C419.495 842.488 451.627 837.075 462.183 813.735C467.536 801.9 468.646 792.611 472.503 780.676C486.326 737.904 554.433 662.363 599.44 708.654C604.202 713.552 606.149 725.454 614.026 726.357C619.754 723.106 622.159 713.862 623.802 707.852C628.013 692.447 629.632 674.338 628.15 658.446C627.22 648.471 623.882 638.749 623.096 628.899C621.261 605.888 636.403 584.651 655.629 573.439C665.441 567.717 676.527 564.507 687.764 567.425C698.145 570.119 706.044 577.134 711.369 586.293C720.025 601.181 720.815 618.342 716.375 634.634C711.709 651.757 703.693 668.334 697.711 685.085C688.324 711.373 659.487 798.336 673.386 824.076C675.673 828.312 679.314 831.105 683.974 832.281C687.794 833.244 690.955 832.486 694.219 830.34C702.846 824.667 708.314 813.69 713.112 804.839C734.456 765.468 751.786 722.52 794.671 701.841C811.432 693.759 830.372 690.386 848.821 693.585C865.906 696.547 881.122 705.031 891.142 719.372C900.811 733.21 905.122 749.726 902.041 766.419C897.996 788.342 885.485 806.963 867.099 819.424C852.425 829.369 828.528 839.615 810.359 835.637C803.236 834.078 795.958 830.689 789.143 828.063C782.898 831.912 789.437 842.268 792.447 846.989C811.067 876.267 859.242 868.891 883.722 851.533C940.035 811.602 935.069 736.093 1000.75 703.189C1039.31 683.868 1064.73 699.649 1082.72 737.166C1096.9 718.36 1124.31 681.27 1153.19 701.293C1154.93 702.668 1156.78 706.219 1156.5 708.356C1152.28 740.679 1127.1 777.806 1128.35 810.987C1129.71 846.888 1160.44 834.96 1175.93 815.083C1206.97 775.224 1222.78 722.273 1220.1 671.907C1215.68 639.731 1200.5 617.829 1226.02 588.664C1235.93 577.343 1247.45 569.522 1263.14 568.236C1290.02 566.032 1306.17 584.259 1307.08 610.082C1308.67 655.367 1276.49 687.783 1268.19 731.694C1336.11 669.568 1382.89 690.236 1395.1 778.125C1399.94 812.975 1416.24 813.173 1429.84 781.954C1448.59 738.65 1492.43 688.104 1544.62 692.988C1656.57 703.463 1603.35 855.69 1509.02 833.377C1504.91 832.404 1494.71 822.541 1491.45 824.467C1490.09 831.54 1495.02 842.388 1498.9 848.003C1521.24 880.334 1571.1 866.547 1597.73 847.463C1623.37 829.565 1645.65 794.219 1650.31 763.028C1653.9 738.994 1649.4 719.407 1672.74 702.789C1688.52 691.551 1713.5 687.373 1726.12 705.215C1734.25 716.706 1731.01 735.605 1730.35 748.996C1746.69 722.574 1765.31 702.154 1796.69 694.505C1821.81 688.38 1848.51 704.668 1853.89 730.073C1858.25 750.631 1852.48 769.568 1847.89 789.327C1844.84 802.465 1840.11 819.871 1853.83 828.77C1859.33 832.409 1868.25 834.568 1874.93 833.083C1886.26 829.539 1894.6 813.844 1899.77 803.991C1903.16 797.209 1906.7 790.319 1909.99 783.505C1927.77 746.674 1952.35 709.654 1993.2 696.111C2025.58 685.379 2068.46 690.955 2081.95 727.048C2087.54 741.998 2086.53 755.979 2081.61 770.868C2070.68 798.801 2063.24 809.778 2031.47 800.198C2022.93 797.624 2017.72 797.791 2012.53 789.651C2011.65 774.637 2020.93 758.64 2010.27 746.234C2008.8 744.697 2005.9 743.249 2003.77 743.644C1978.47 748.33 1972.83 785.385 1975.19 805.815C1978.73 836.392 1998.83 853.906 2029.82 849.778C2059.92 845.768 2085.42 827.813 2104.26 804.272C2129.7 771.113 2147.88 707.527 2142.59 665.787C2136.88 637.004 2127.34 615.485 2147.94 589.474C2156.54 578.616 2168.4 569.731 2182.85 568.22C2209.03 565.483 2228.33 579.697 2230.23 606.224C2234.03 659.529 2197.74 692.527 2195.53 746.555C2209.42 723.546 2231.76 701.724 2257.41 696.098C2303.75 685.934 2327.42 717.204 2319.4 761.345C2315.71 781.62 2297.74 824.992 2315.59 840.493C2317.13 841.715 2320.65 842.601 2322.48 841.794C2338.02 834.969 2339.82 813.967 2361.06 825.277C2373.27 831.775 2375.79 843.968 2378.47 856.073C2381.7 881.418 2378.62 907.312 2362.16 926.844C2337.5 956.115 2290.01 979.308 2256.29 950.946C2237.93 935.495 2229.04 915.389 2227.06 892.206C2226.16 874.842 2227.93 857.442 2232.31 840.616C2237.63 820.231 2248.36 801.663 2252.39 781.081C2253.91 773.335 2251.73 762.143 2243.61 758.865C2219.85 749.274 2202.43 773.148 2193.72 791.925C2181.23 818.836 2172.53 850.567 2182.41 879.534C2188.51 895.848 2192.33 910.219 2184.16 926.61C2159.59 975.849 2095.46 967.095 2084.93 913.401C2081.18 897.148 2086.79 876.583 2090.4 860.357C2088.17 863.367 2086.42 866.633 2084.55 869.881C2068.31 911.898 2071.15 933.541 2023.1 954.254C1967.09 978.398 1905.16 944.739 1900.67 882.608C1900.32 877.838 1901.17 868.467 1896.57 866.403C1891.59 871.897 1894.21 890.266 1890.53 899.356C1878.48 929.172 1847.37 959.808 1814.21 962.77C1778.89 965.924 1751.11 911.927 1758.01 880.949C1759.52 849.536 1790.97 804.045 1788.1 772.595C1787.13 767.536 1783.14 762.005 1778.73 759.635C1757.28 748.118 1736.5 773.408 1727.4 789.302C1710.18 819.36 1707.61 847.904 1716.39 880.841C1718.89 893.501 1720.62 904.913 1718.54 917.917C1715.17 938.965 1699.25 957.416 1677.91 961.449C1664.84 963.983 1651.3 961.239 1640.25 953.816C1623.44 942.286 1617.85 924.862 1618.68 905.252C1619.26 892.139 1627.69 877.512 1626.33 865.904L1624.94 865.154C1622.19 867.156 1621.41 870.217 1620.03 873.494C1617.68 884.02 1615.8 897.362 1613.11 907.084C1609.41 920.449 1587.27 938.902 1576.42 945.452C1524.69 976.694 1456.45 967.063 1425.98 911.609C1420.6 901.82 1415.26 891.872 1412.42 881.083C1410.21 874.488 1409.67 857.113 1402.9 856.742L1400.1 859.5C1398.52 892.207 1389.81 903.658 1366.83 925.769C1327.85 963.262 1263.73 980.331 1235.35 921.306C1233.79 918.051 1232.72 913.647 1229.96 911.45L1228.56 911.367C1225.12 915.049 1220.9 919.485 1218.08 923.59C1214.71 934.046 1212.42 948.041 1203.47 953.972C1181.12 968.796 1163.34 936.36 1168.3 917.007C1169.03 914.137 1170.2 907.711 1170.54 905.156C1171.9 898.516 1173.15 891.854 1174.29 885.173C1173.96 882.4 1174.33 880.228 1172.66 878.084C1169.99 890.969 1168.62 903.964 1162.68 915.913C1132.68 976.225 1063.28 976.492 1054.62 901.69C1051.03 906.587 1053.8 904.989 1052.54 910.414C1048.5 922.136 1043.17 932.997 1033.9 941.403C985.04 985.719 920.675 950.926 913.294 889.852C912.223 880.994 912.902 872.207 913.16 863.439L910.336 859.471C907.499 871.29 904.737 883.128 902.05 894.982C897.962 907.8 891.209 925.58 882.204 934.67C845.677 971.548 775.858 973.975 738.388 936.458C716.885 914.928 715.734 915.536 713.85 884.812C713.98 881.434 714.069 881.17 713.046 878.018L711.153 877.299C709.398 906.25 714.472 925.29 690.48 946.819C678.984 957.128 663.789 962.317 648.388 961.191C626.385 959.598 612.082 944.677 604.408 925.01C598.936 919.49 603.992 917.726 598.728 915.007C595.194 924.041 589.797 932.228 582.888 939.037C567.781 954.087 547.26 962.434 525.937 962.201C494.915 961.77 471.037 943.625 459.827 915.094C455.068 902.983 455.585 896.609 455.86 883.976L455.071 883.175C447.655 893.709 462.328 908.972 438.347 937.514C426.104 951.999 408.568 960.975 389.659 962.436C346.224 965.716 313.446 925.922 310.791 884.836C311.894 823.192 353.338 777.944 392.236 735.195C413.522 711.803 431.351 656.173 397.609 636.013C385.132 628.558 360.846 639.63 374.91 660.565C391.453 677.399 400.323 695.208 380.327 714.577C372.536 722.191 362.002 726.336 351.112 726.074C339.553 725.74 328.639 720.669 320.929 712.05C316.453 707.144 313.642 701.87 311.203 695.722Z"/><path fill="#BACCD8" d="M310.791 884.836C322.936 916.668 368.087 935.674 399.124 921.317C420.281 911.53 440.711 892.866 451.452 872.037C452.665 869.685 452.124 869.717 454.1 867.478C459.34 868.201 466.976 889.329 470.739 895.071C504.398 946.424 565.045 923.352 599.24 880.971C598.398 893.504 599.235 903.726 598.728 915.007C595.194 924.041 589.797 932.228 582.888 939.037C567.781 954.087 547.26 962.434 525.937 962.201C494.915 961.77 471.037 943.625 459.827 915.094C455.068 902.983 455.585 896.609 455.86 883.976L455.071 883.175C447.655 893.709 462.328 908.972 438.347 937.514C426.104 951.999 408.568 960.975 389.659 962.436C346.224 965.716 313.446 925.922 310.791 884.836Z"/><path fill="#BACCD8" d="M1892.78 870.023C1893.47 860.239 1893.31 857.864 1895.4 847.709C1905.16 868.448 1900.01 882.334 1918.73 900.38C1935.8 916.922 1958.74 926 1982.5 925.614C2022.6 924.812 2057.62 897.609 2084.55 869.881C2068.31 911.898 2071.15 933.541 2023.1 954.254C1967.09 978.398 1905.16 944.739 1900.67 882.608C1900.32 877.838 1901.17 868.467 1896.57 866.403C1891.59 871.897 1894.21 890.266 1890.53 899.356C1878.48 929.172 1847.37 959.808 1814.21 962.77C1778.89 965.924 1751.11 911.927 1758.01 880.949C1758.2 884.818 1757.77 891.444 1757.62 895.529C1761.75 903.026 1765.57 908.447 1772.19 913.978C1783.73 923.576 1798.6 928.198 1813.54 926.826C1847.72 923.611 1872.33 894.315 1892.78 870.023Z"/><path fill="#BACCD8" d="M1412.42 881.083C1473.76 957.601 1561.6 940.373 1620.03 873.494C1617.68 884.02 1615.8 897.362 1613.11 907.084C1609.41 920.449 1587.27 938.902 1576.42 945.452C1524.69 976.694 1456.45 967.063 1425.98 911.609C1420.6 901.82 1415.26 891.872 1412.42 881.083Z"/><path fill="#BACCD8" d="M1400.1 859.5C1398.52 892.207 1389.81 903.658 1366.83 925.769C1327.85 963.262 1263.73 980.331 1235.35 921.306C1233.79 918.051 1232.72 913.647 1229.96 911.45L1228.56 911.367C1225.32 906.472 1226.52 891.831 1230.77 887.533L1232.89 887.571C1237.66 891.531 1240.87 902.275 1246.31 907.614C1287.77 948.281 1337.87 913.032 1372.11 882.395C1381.24 874.217 1391.21 867.401 1400.1 859.5Z"/><path fill="#BACCD8" d="M713.85 884.812C730.079 909.223 752.629 924.14 782.023 930.247C820.887 938.321 867.474 916.777 899.769 896.704C900.5 896.249 901.384 895.522 902.05 894.982C897.962 907.8 891.209 925.58 882.204 934.67C845.677 971.548 775.858 973.975 738.388 936.458C716.885 914.928 715.734 915.536 713.85 884.812Z"/><path fill="#BACCD8" d="M2378.47 856.073C2381.7 881.418 2378.62 907.312 2362.16 926.844C2337.5 956.115 2290.01 979.308 2256.29 950.946C2237.93 935.495 2229.04 915.389 2227.06 892.206C2227.91 894.877 2228.92 897.369 2230.5 899.711C2240.39 914.582 2255.94 924.758 2273.53 927.876C2302.02 932.978 2330.83 917.327 2350.33 897.63C2359.71 888.152 2376.26 869.298 2378.47 856.073Z"/><path fill="#BACCD8" d="M910.336 859.471C910.601 856.79 910.362 854.402 912.985 853.429C914.389 858.83 913.948 863.708 914.962 869.095C918.408 887.398 930.669 907.441 946.718 917.127C981.149 937.908 1024.31 920.648 1043.27 887.302C1046.03 882.445 1048.18 878.85 1050.24 873.693C1050.49 871.365 1050.61 869.765 1051.49 867.524C1051.77 867.549 1051.57 867.494 1052.16 867.899C1051.84 867.192 1053.98 893.994 1054.06 895.417L1054.11 896.184C1054.35 898.151 1054.52 899.72 1054.62 901.69C1051.03 906.587 1053.8 904.989 1052.54 910.414C1048.5 922.136 1043.17 932.997 1033.9 941.403C985.04 985.719 920.675 950.926 913.294 889.852C912.223 880.994 912.902 872.207 913.16 863.439L910.336 859.471Z"/><path fill="#6790B3" d="M1050.24 873.693C1050.49 871.365 1050.61 869.765 1051.49 867.524C1051.77 867.549 1051.57 867.494 1052.16 867.899C1051.84 867.192 1053.98 893.994 1054.06 895.417L1054.11 896.184C1054.35 898.151 1054.52 899.72 1054.62 901.69C1051.03 906.587 1053.8 904.989 1052.54 910.414C1051.43 905.188 1050.55 879.906 1050.24 873.693Z"/><path fill="#6790B3" d="M910.336 859.471C910.601 856.79 910.362 854.402 912.985 853.429C912.96 856.89 913.105 860.009 913.16 863.439L910.336 859.471Z"/><path fill="#BACCD8" d="M711.153 877.299C709.398 906.25 714.472 925.29 690.48 946.819C678.984 957.128 663.789 962.317 648.388 961.191C626.385 959.598 612.082 944.677 604.408 925.01C598.936 919.49 603.992 917.726 598.728 915.007C599.235 903.726 598.398 893.504 599.24 880.971C600.902 877.688 601.371 880.259 602.053 882.738C610.995 927.918 644.932 941.107 683.683 913.651C692.202 907.615 709.859 887.77 711.153 877.299Z"/><path fill="#6790B3" d="M599.24 880.971C600.902 877.688 601.371 880.259 602.053 882.738C601.897 898.983 601.939 908.856 604.408 925.01C598.936 919.49 603.992 917.726 598.728 915.007C599.235 903.726 598.398 893.504 599.24 880.971Z"/><path fill="#BACCD8" d="M1171.9 876.782L1172.66 878.084C1169.99 890.969 1168.62 903.964 1162.68 915.913C1132.68 976.225 1063.28 976.492 1054.62 901.69C1054.52 899.72 1054.35 898.151 1054.11 896.184C1055.45 899.82 1058.2 904.354 1060.48 907.415C1085.79 941.337 1127.95 922.811 1152.56 898.53C1159.04 892.131 1167.79 884.657 1171.9 876.782Z"/><path fill="#BACCD8" d="M2182.41 879.534C2188.51 895.848 2192.33 910.219 2184.16 926.61C2159.59 975.849 2095.46 967.095 2084.93 913.401C2101.33 927.426 2127.29 930.069 2146.66 921.115C2165.59 912.367 2175.07 898.399 2182.41 879.534Z"/><path fill="#BACCD8" d="M1716.39 880.841C1718.89 893.501 1720.62 904.913 1718.54 917.917C1715.17 938.965 1699.25 957.416 1677.91 961.449C1664.84 963.983 1651.3 961.239 1640.25 953.816C1623.44 942.286 1617.85 924.862 1618.68 905.252C1652.12 952.478 1699.32 928.209 1716.39 880.841Z"/><path fill="#BACCD8" d="M374.91 660.565C391.453 677.399 400.323 695.208 380.327 714.577C372.536 722.191 362.002 726.336 351.112 726.074C339.553 725.74 328.639 720.669 320.929 712.05C316.453 707.144 313.642 701.87 311.203 695.722C321.838 703.384 336.939 711.416 350.433 708.39C372.323 703.48 379.556 680.248 374.91 660.565Z"/><path fill="#BACCD8" d="M1170.54 905.156C1175.59 928.354 1198.6 935.242 1218.08 923.59C1214.71 934.046 1212.42 948.041 1203.47 953.972C1181.12 968.796 1163.34 936.36 1168.3 917.007C1169.03 914.137 1170.2 907.711 1170.54 905.156Z"/><path fill="#BACCD8" d="M2012.53 789.651C2042.57 794.366 2058.82 794.426 2081.61 770.868C2070.68 798.801 2063.24 809.778 2031.47 800.198C2022.93 797.624 2017.72 797.791 2012.53 789.651Z"/><path fill="#6790B3" d="M1171.9 876.782C1172.27 875.348 1172.89 871.05 1174.43 870.841C1176.2 872.24 1174.66 882.826 1174.29 885.173C1173.96 882.4 1174.33 880.228 1172.66 878.084L1171.9 876.782Z"/><path fill="#4C80AD" d="M1039.54 753.19C1091.87 747.827 1064.85 835.109 1031.93 841.541C1000.47 838.388 995.409 806.089 1006.51 781.654C1013.52 766.21 1024.16 758.834 1039.54 753.19Z"/><path fill="#4C80AD" d="M1289.88 753.176C1338.05 747.967 1320.81 833.168 1283.66 842.935C1246.48 843.154 1241 773.939 1289.88 753.176Z"/><path fill="#4C80AD" d="M580.399 755.267C631.928 748.879 607.503 829.691 571.691 841.586C568.115 841.169 564.974 840.505 561.697 839.006C553.142 835.055 546.6 827.745 543.619 818.806C537.432 800.647 545.953 777.606 560.116 765.394C566.666 759.746 572.284 757.921 580.399 755.267Z"/><path fill="#4C80AD" d="M1534.58 730.416C1538.65 730.252 1545.88 729.648 1549.51 730.72C1569.89 736.732 1567.01 767.41 1557.63 781.371C1548.7 794.66 1538.72 800.522 1523.67 803.761C1467.58 804.659 1503.71 737.02 1534.58 730.416Z"/><path fill="#4C80AD" d="M830.75 730.138C835.344 729.733 843.372 728.989 847.131 731.709C861.459 742.08 862.148 766.695 852.582 780.267C843.522 793.122 833.072 798.497 818.617 801.495C799.059 801.715 786.051 795.914 791.104 774.01C796.365 751.203 808.281 736.996 830.75 730.138Z"/></svg>